<svg xmlns="http://www.w3.org/2000/svg" xmlns:xlink="http://www.w3.org/1999/xlink" contentStyleType="text/css" data-diagram-type="ACTIVITY" height="1078.125px" preserveAspectRatio="none" style="width:2261px;height:1078px;" version="1.1" viewBox="0 0 2261 1078" width="2261.4583px" zoomAndPan="magnify"><?plantuml 1.2026.5?><defs><linearGradient id="g111xiyqlk3tr30" x1="50%" x2="50%" y1="0%" y2="100%"><stop offset="0%" stop-color="#EDF0F2"/><stop offset="100%" stop-color="#E9ECEF"/></linearGradient><filter height="300%" id="f111xiyqlk3tr3" width="300%" x="-1" y="-1"><feGaussianBlur result="blurOut" stdDeviation="2.0833"/><feColorMatrix in="blurOut" result="blurOut2" type="matrix" values="0 0 0 0 0 0 0 0 0 0 0 0 0 0 0 0 0 0 .4 0"/><feOffset dx="4.1667" dy="4.1667" in="blurOut2" result="blurOut3"/><feBlend in="SourceGraphic" in2="blurOut3" mode="normal"/></filter></defs><g><g class="title" data-source-line="1436"><rect fill="none" height="35.2875" rx="4.1667" ry="4.1667" style="stroke:#BABDBF;stroke-width:1.0417;" width="396.2067" x="932.0689" y="20.8333"/><text fill="#111111" font-family="'Verdana'" font-size="18.75" font-weight="700" lengthAdjust="spacing" textLength="383.7067" x="938.3189" y="45.934">Activity &#8212; Live Signal &amp; Margin Flow</text></g><rect fill="url(#g111xiyqlk3tr30)" height="15.1917" style="stroke:url(#g111xiyqlk3tr30);stroke-width:1.0417;" width="2213.4694" x="20.8333" y="73.8495"/><ellipse cx="138.9913" cy="104.6661" fill="#033C73" filter="url(#f111xiyqlk3tr3)" rx="10.4167" ry="10.4167" style="stroke:#2683B9;stroke-width:1.0417;"/><rect fill="#D6EAF8" filter="url(#f111xiyqlk3tr3)" height="27.6917" rx="4.1667" ry="4.1667" style="stroke:#2980B9;stroke-width:1.0417;" width="223.8159" x="27.0833" y="135.9161"/><text fill="#111111" font-family="'Verdana'" font-size="12.5" font-weight="700" lengthAdjust="spacing" textLength="211.3159" x="33.3333" y="154.7333">Bar Completed (via Streamer)</text><line style="stroke:#033C73;stroke-width:2.0833;" x1="20.8333" x2="20.8333" y1="73.8495" y2="1051.5493"/><rect fill="#D6EAF8" filter="url(#f111xiyqlk3tr3)" height="27.6917" rx="4.1667" ry="4.1667" style="stroke:#2980B9;stroke-width:1.0417;" width="193.7927" x="437.1816" y="184.4411"/><text fill="#111111" font-family="'Verdana'" font-size="12.5" font-weight="700" lengthAdjust="spacing" textLength="181.2927" x="443.4316" y="203.2583">Strategy.on_bar(bar, ctx)</text><polygon fill="#D6EAF8" filter="url(#f111xiyqlk3tr3)" points="470.6045,232.9661,597.5515,232.9661,610.0515,245.4661,597.5515,257.9661,470.6045,257.9661,458.1045,245.4661,470.6045,232.9661" style="stroke:#2980B9;stroke-width:1.0417;stroke-linejoin:miter;stroke-miterlimit:10;"/><text fill="#111111" font-family="'Verdana'" font-size="12.5" font-weight="700" lengthAdjust="spacing" textLength="126.947" x="470.6045" y="250.4374">Signal generated?</text><text fill="#27AE60" font-family="'Verdana'" font-size="12.5" lengthAdjust="spacing" textLength="21.3562" x="436.7483" y="242.8416">yes</text><text fill="#7F8C8D" font-family="'Verdana'" font-size="12.5" lengthAdjust="spacing" textLength="15.4968" x="610.0515" y="242.8416">no</text><rect fill="#D6EAF8" filter="url(#f111xiyqlk3tr3)" height="27.6917" rx="4.1667" ry="4.1667" style="stroke:#2980B9;stroke-width:1.0417;" width="198.9685" x="267.5659" y="278.7994"/><text fill="#111111" font-family="'Verdana'" font-size="12.5" font-weight="700" lengthAdjust="spacing" textLength="186.4685" x="273.8159" y="297.6166">direction = LONG / SHORT</text><polygon fill="#D6EAF8" filter="url(#f111xiyqlk3tr3)" points="313.9832,327.3244,420.1172,327.3244,432.6172,339.8244,420.1172,352.3244,313.9832,352.3244,301.4832,339.8244,313.9832,327.3244" style="stroke:#2980B9;stroke-width:1.0417;stroke-linejoin:miter;stroke-miterlimit:10;"/><text fill="#111111" font-family="'Verdana'" font-size="12.5" font-weight="700" lengthAdjust="spacing" textLength="106.134" x="313.9832" y="344.7957">News enabled?</text><text fill="#27AE60" font-family="'Verdana'" font-size="12.5" lengthAdjust="spacing" textLength="21.3562" x="280.127" y="337.1999">yes</text><text fill="#7F8C8D" font-family="'Verdana'" font-size="12.5" lengthAdjust="spacing" textLength="15.4968" x="432.6172" y="337.1999">no</text><polygon fill="#D6EAF8" filter="url(#f111xiyqlk3tr3)" points="367.0502,623.5077,379.5502,636.0077,367.0502,648.5077,354.5502,636.0077,367.0502,623.5077" style="stroke:#2980B9;stroke-width:1.0417;stroke-linejoin:miter;stroke-miterlimit:10;"/><polygon fill="#D6EAF8" filter="url(#f111xiyqlk3tr3)" points="534.078,982.7993,546.578,995.2993,534.078,1007.7993,521.578,995.2993,534.078,982.7993" style="stroke:#2980B9;stroke-width:1.0417;stroke-linejoin:miter;stroke-miterlimit:10;"/><line style="stroke:#033C73;stroke-width:2.0833;" x1="261.3159" x2="261.3159" y1="73.8495" y2="1051.5493"/><rect fill="#D6EAF8" filter="url(#f111xiyqlk3tr3)" height="27.6917" rx="4.1667" ry="4.1667" style="stroke:#2980B9;stroke-width:1.0417;" width="269.519" x="780.0913" y="373.1578"/><text fill="#111111" font-family="'Verdana'" font-size="12.5" font-weight="700" lengthAdjust="spacing" textLength="257.019" x="786.3413" y="391.9749">NewsEngine.get_sentiment(symbol)</text><rect fill="#D6EAF8" filter="url(#f111xiyqlk3tr3)" height="27.6917" rx="4.1667" ry="4.1667" style="stroke:#2980B9;stroke-width:1.0417;" width="142.4622" x="843.6198" y="421.6827"/><text fill="#111111" font-family="'Verdana'" font-size="12.5" font-weight="700" lengthAdjust="spacing" textLength="129.9622" x="849.8698" y="440.4999">score = [0.0 - 1.0]</text><rect fill="#D6EAF8" filter="url(#f111xiyqlk3tr3)" height="27.6917" rx="4.1667" ry="4.1667" style="stroke:#2980B9;stroke-width:1.0417;" width="335.3943" x="747.1537" y="470.2077"/><text fill="#111111" font-family="'Verdana'" font-size="12.5" font-weight="700" lengthAdjust="spacing" textLength="322.8943" x="753.4037" y="489.0249">MarginAdjuster.compute_margin_multiplier()</text><polygon fill="#D6EAF8" filter="url(#f111xiyqlk3tr3)" points="803.9714,518.7327,1025.7304,518.7327,1038.2304,531.2327,1025.7304,543.7327,803.9714,543.7327,791.4714,531.2327,803.9714,518.7327" style="stroke:#2980B9;stroke-width:1.0417;stroke-linejoin:miter;stroke-miterlimit:10;"/><text fill="#111111" font-family="'Verdana'" font-size="12.5" font-weight="700" lengthAdjust="spacing" textLength="221.759" x="803.9714" y="536.204">direction agrees w/ sentiment?</text><text fill="#27AE60" font-family="'Verdana'" font-size="12.5" lengthAdjust="spacing" textLength="21.3562" x="770.1152" y="528.6082">yes</text><text fill="#7F8C8D" font-family="'Verdana'" font-size="12.5" lengthAdjust="spacing" textLength="15.4968" x="1038.2304" y="528.6082">no</text><rect fill="#ABEBC6" filter="url(#f111xiyqlk3tr3)" height="27.6917" rx="4.1667" ry="4.1667" style="stroke:#2980B9;stroke-width:1.0417;" width="266.8274" x="647.641" y="554.1494"/><text fill="#111111" font-family="'Verdana'" font-size="12.5" font-weight="700" lengthAdjust="spacing" textLength="254.3274" x="653.891" y="572.9665">margin &#215;= (1 + boost)  up to +50%</text><rect fill="#D5D8DC" filter="url(#f111xiyqlk3tr3)" height="27.6917" rx="4.1667" ry="4.1667" style="stroke:#2980B9;stroke-width:1.0417;" width="213.9587" x="941.6677" y="554.1494"/><text fill="#111111" font-family="'Verdana'" font-size="12.5" font-weight="700" lengthAdjust="spacing" textLength="201.4587" x="947.9177" y="572.9665">margin &#215;= 1.0  (unchanged)</text><polygon fill="#D6EAF8" filter="url(#f111xiyqlk3tr3)" points="914.8509,588.091,927.3509,600.591,914.8509,613.091,902.3509,600.591,914.8509,588.091" style="stroke:#2980B9;stroke-width:1.0417;stroke-linejoin:miter;stroke-miterlimit:10;"/><rect fill="#D6EAF8" filter="url(#f111xiyqlk3tr3)" height="27.6917" rx="4.1667" ry="4.1667" style="stroke:#2980B9;stroke-width:1.0417;" width="159.7351" x="1166.0431" y="373.1578"/><text fill="#111111" font-family="'Verdana'" font-size="12.5" font-weight="700" lengthAdjust="spacing" textLength="147.2351" x="1172.2931" y="391.9749">margin = base sizing</text><line style="stroke:#033C73;stroke-width:2.0833;" x1="641.391" x2="641.391" y1="73.8495" y2="1051.5493"/><rect fill="#D6EAF8" filter="url(#f111xiyqlk3tr3)" height="27.6917" rx="4.1667" ry="4.1667" style="stroke:#2980B9;stroke-width:1.0417;" width="244.3176" x="1342.4449" y="669.341"/><text fill="#111111" font-family="'Verdana'" font-size="12.5" font-weight="700" lengthAdjust="spacing" textLength="231.8176" x="1348.6949" y="688.1582">GlobalRisk.check_account_risk()</text><polygon fill="#D6EAF8" filter="url(#f111xiyqlk3tr3)" points="1432.6914,717.866,1496.5159,717.866,1509.0159,730.366,1496.5159,742.866,1432.6914,742.866,1420.1914,730.366,1432.6914,717.866" style="stroke:#2980B9;stroke-width:1.0417;stroke-linejoin:miter;stroke-miterlimit:10;"/><text fill="#111111" font-family="'Verdana'" font-size="12.5" font-weight="700" lengthAdjust="spacing" textLength="63.8245" x="1432.6914" y="735.3373">Allowed?</text><text fill="#27AE60" font-family="'Verdana'" font-size="12.5" lengthAdjust="spacing" textLength="21.3562" x="1398.8352" y="727.7415">yes</text><text fill="#C0392B" font-family="'Verdana'" font-size="12.5" lengthAdjust="spacing" textLength="15.4968" x="1509.0159" y="727.7415">no</text><polygon fill="#D6EAF8" filter="url(#f111xiyqlk3tr3)" points="1464.6037,947.3826,1477.1037,959.8826,1464.6037,972.3826,1452.1037,959.8826,1464.6037,947.3826" style="stroke:#2980B9;stroke-width:1.0417;stroke-linejoin:miter;stroke-miterlimit:10;"/><line style="stroke:#033C73;stroke-width:2.0833;" x1="1336.1949" x2="1336.1949" y1="73.8495" y2="1051.5493"/><rect fill="#D6EAF8" filter="url(#f111xiyqlk3tr3)" height="27.6917" rx="4.1667" ry="4.1667" style="stroke:#2980B9;stroke-width:1.0417;" width="273.3765" x="1603.4292" y="763.6993"/><text fill="#111111" font-family="'Verdana'" font-size="12.5" font-weight="700" lengthAdjust="spacing" textLength="260.8765" x="1609.6792" y="782.5165">Compute qty from margin &#215; leverage</text><rect fill="#D6EAF8" filter="url(#f111xiyqlk3tr3)" height="27.6917" rx="4.1667" ry="4.1667" style="stroke:#2980B9;stroke-width:1.0417;" width="174.9268" x="1652.654" y="812.2243"/><text fill="#111111" font-family="'Verdana'" font-size="12.5" font-weight="700" lengthAdjust="spacing" textLength="162.4268" x="1658.904" y="831.0415">Broker.market_order()</text><rect fill="#D6EAF8" filter="url(#f111xiyqlk3tr3)" height="27.6917" rx="4.1667" ry="4.1667" style="stroke:#2980B9;stroke-width:1.0417;" width="243.457" x="1618.3889" y="860.7493"/><text fill="#111111" font-family="'Verdana'" font-size="12.5" font-weight="700" lengthAdjust="spacing" textLength="230.957" x="1624.6389" y="879.5664">place_stop_market / take_profit</text><rect fill="#D6EAF8" filter="url(#f111xiyqlk3tr3)" height="27.6917" rx="4.1667" ry="4.1667" style="stroke:#2980B9;stroke-width:1.0417;" width="225.2319" x="1627.5014" y="909.2743"/><text fill="#111111" font-family="'Verdana'" font-size="12.5" font-weight="700" lengthAdjust="spacing" textLength="212.7319" x="1633.7514" y="928.0914">LiveSupervisor tracks position</text><rect fill="#F1948A" filter="url(#f111xiyqlk3tr3)" height="27.6917" rx="4.1667" ry="4.1667" style="stroke:#2980B9;stroke-width:1.0417;" width="245.9961" x="1887.2223" y="763.6993"/><text fill="#111111" font-family="'Verdana'" font-size="12.5" font-weight="700" lengthAdjust="spacing" textLength="233.4961" x="1893.4723" y="782.5165">Log rejection / maybe kill-switch</text><rect fill="#D5D8DC" filter="url(#f111xiyqlk3tr3)" height="27.6917" rx="4.1667" ry="4.1667" style="stroke:#2980B9;stroke-width:1.0417;" width="79.0955" x="2143.6351" y="278.7994"/><text fill="#111111" font-family="'Verdana'" font-size="12.5" font-weight="700" lengthAdjust="spacing" textLength="66.5955" x="2149.8851" y="297.6166">No action</text><ellipse cx="2036.9883" cy="1040.0909" fill="none" filter="url(#f111xiyqlk3tr3)" rx="11.4583" ry="11.4583" style="stroke:#2683B9;stroke-width:1.0417;"/><ellipse cx="2036.9883" cy="1040.0909" fill="none" rx="6.25" ry="6.25" style="stroke:#2683B9;stroke-width:1.0417;"/><line style="stroke:#033C73;stroke-width:2.0833;" x1="1597.1792" x2="1597.1792" y1="73.8495" y2="1051.5493"/><line style="stroke:#033C73;stroke-width:2.0833;" x1="2233.1472" x2="2233.1472" y1="73.8495" y2="1051.5493"/><line style="stroke:#2C3E50;stroke-width:2.0833;" x1="138.9913" x2="138.9913" y1="115.0828" y2="135.9161"/><polygon fill="#2C3E50" points="134.8246,125.4995,138.9913,135.9161,143.158,125.4995,138.9913,129.6661" style="stroke:#2C3E50;stroke-width:1.0417;stroke-linejoin:miter;stroke-miterlimit:10;"/><line style="stroke:#2C3E50;stroke-width:2.0833;" x1="367.0502" x2="367.0502" y1="306.4911" y2="327.3244"/><polygon fill="#2C3E50" points="362.8835,316.9078,367.0502,327.3244,371.2168,316.9078,367.0502,321.0744" style="stroke:#2C3E50;stroke-width:1.0417;stroke-linejoin:miter;stroke-miterlimit:10;"/><line style="stroke:#2C3E50;stroke-width:2.0833;" x1="458.1045" x2="367.0502" y1="245.4661" y2="245.4661"/><line style="stroke:#2C3E50;stroke-width:2.0833;" x1="367.0502" x2="367.0502" y1="245.4661" y2="278.7994"/><polygon fill="#2C3E50" points="362.8835,268.3828,367.0502,278.7994,371.2168,268.3828,367.0502,272.5494" style="stroke:#2C3E50;stroke-width:1.0417;stroke-linejoin:miter;stroke-miterlimit:10;"/><line style="stroke:#2C3E50;stroke-width:2.0833;" x1="534.078" x2="534.078" y1="212.1328" y2="232.9661"/><polygon fill="#2C3E50" points="529.9113,222.5494,534.078,232.9661,538.2446,222.5494,534.078,226.7161" style="stroke:#2C3E50;stroke-width:1.0417;stroke-linejoin:miter;stroke-miterlimit:10;"/><line style="stroke:#2C3E50;stroke-width:2.0833;" x1="914.8509" x2="914.8509" y1="400.8494" y2="421.6827"/><polygon fill="#2C3E50" points="910.6842,411.2661,914.8509,421.6827,919.0175,411.2661,914.8509,415.4327" style="stroke:#2C3E50;stroke-width:1.0417;stroke-linejoin:miter;stroke-miterlimit:10;"/><line style="stroke:#2C3E50;stroke-width:2.0833;" x1="914.8509" x2="914.8509" y1="449.3744" y2="470.2077"/><polygon fill="#2C3E50" points="910.6842,459.7911,914.8509,470.2077,919.0175,459.7911,914.8509,463.9577" style="stroke:#2C3E50;stroke-width:1.0417;stroke-linejoin:miter;stroke-miterlimit:10;"/><line style="stroke:#2C3E50;stroke-width:2.0833;" x1="791.4714" x2="781.0547" y1="531.2327" y2="531.2327"/><line style="stroke:#2C3E50;stroke-width:2.0833;" x1="781.0547" x2="781.0547" y1="531.2327" y2="554.1494"/><polygon fill="#2C3E50" points="776.888,543.7327,781.0547,554.1494,785.2214,543.7327,781.0547,547.8994" style="stroke:#2C3E50;stroke-width:1.0417;stroke-linejoin:miter;stroke-miterlimit:10;"/><line style="stroke:#2C3E50;stroke-width:2.0833;" x1="1038.2304" x2="1048.6471" y1="531.2327" y2="531.2327"/><line style="stroke:#2C3E50;stroke-width:2.0833;" x1="1048.6471" x2="1048.6471" y1="531.2327" y2="554.1494"/><polygon fill="#2C3E50" points="1044.4804,543.7327,1048.6471,554.1494,1052.8137,543.7327,1048.6471,547.8994" style="stroke:#2C3E50;stroke-width:1.0417;stroke-linejoin:miter;stroke-miterlimit:10;"/><line style="stroke:#2C3E50;stroke-width:2.0833;" x1="781.0547" x2="781.0547" y1="581.841" y2="600.591"/><line style="stroke:#2C3E50;stroke-width:2.0833;" x1="781.0547" x2="902.3509" y1="600.591" y2="600.591"/><polygon fill="#2C3E50" points="891.9342,596.4244,902.3509,600.591,891.9342,604.7577,896.1009,600.591" style="stroke:#2C3E50;stroke-width:1.0417;stroke-linejoin:miter;stroke-miterlimit:10;"/><line style="stroke:#2C3E50;stroke-width:2.0833;" x1="1048.6471" x2="1048.6471" y1="581.841" y2="600.591"/><line style="stroke:#2C3E50;stroke-width:2.0833;" x1="1048.6471" x2="927.3509" y1="600.591" y2="600.591"/><polygon fill="#2C3E50" points="937.7675,596.4244,927.3509,600.591,937.7675,604.7577,933.6009,600.591" style="stroke:#2C3E50;stroke-width:1.0417;stroke-linejoin:miter;stroke-miterlimit:10;"/><line style="stroke:#2C3E50;stroke-width:2.0833;" x1="914.8509" x2="914.8509" y1="497.8994" y2="518.7327"/><polygon fill="#2C3E50" points="910.6842,508.316,914.8509,518.7327,919.0175,508.316,914.8509,512.4827" style="stroke:#2C3E50;stroke-width:1.0417;stroke-linejoin:miter;stroke-miterlimit:10;"/><line style="stroke:#2C3E50;stroke-width:2.0833;" x1="1464.6037" x2="1464.6037" y1="697.0327" y2="717.866"/><polygon fill="#2C3E50" points="1460.437,707.4493,1464.6037,717.866,1468.7703,707.4493,1464.6037,711.616" style="stroke:#2C3E50;stroke-width:1.0417;stroke-linejoin:miter;stroke-miterlimit:10;"/><line style="stroke:#2C3E50;stroke-width:2.0833;" x1="1740.1174" x2="1740.1174" y1="791.391" y2="812.2243"/><polygon fill="#2C3E50" points="1735.9507,801.8077,1740.1174,812.2243,1744.2841,801.8077,1740.1174,805.9743" style="stroke:#2C3E50;stroke-width:1.0417;stroke-linejoin:miter;stroke-miterlimit:10;"/><line style="stroke:#2C3E50;stroke-width:2.0833;" x1="1740.1174" x2="1740.1174" y1="839.916" y2="860.7493"/><polygon fill="#2C3E50" points="1735.9507,850.3326,1740.1174,860.7493,1744.2841,850.3326,1740.1174,854.4993" style="stroke:#2C3E50;stroke-width:1.0417;stroke-linejoin:miter;stroke-miterlimit:10;"/><line style="stroke:#2C3E50;stroke-width:2.0833;" x1="1740.1174" x2="1740.1174" y1="888.441" y2="909.2743"/><polygon fill="#2C3E50" points="1735.9507,898.8576,1740.1174,909.2743,1744.2841,898.8576,1740.1174,903.0243" style="stroke:#2C3E50;stroke-width:1.0417;stroke-linejoin:miter;stroke-miterlimit:10;"/><line style="stroke:#2C3E50;stroke-width:2.0833;" x1="138.9913" x2="138.9913" y1="163.6078" y2="168.8161"/><line style="stroke:#2C3E50;stroke-width:2.0833;" x1="138.9913" x2="534.078" y1="168.8161" y2="168.8161"/><line style="stroke:#2C3E50;stroke-width:2.0833;" x1="534.078" x2="534.078" y1="168.8161" y2="184.4411"/><polygon fill="#2C3E50" points="529.9113,174.0245,534.078,184.4411,538.2446,174.0245,534.078,178.1911" style="stroke:#2C3E50;stroke-width:1.0417;stroke-linejoin:miter;stroke-miterlimit:10;"/><line style="stroke:#2C3E50;stroke-width:2.0833;" x1="301.4832" x2="288.9832" y1="339.8244" y2="339.8244"/><line style="stroke:#2C3E50;stroke-width:2.0833;" x1="288.9832" x2="288.9832" y1="339.8244" y2="358.5744"/><line style="stroke:#2C3E50;stroke-width:2.0833;" x1="288.9832" x2="914.8509" y1="358.5744" y2="358.5744"/><line style="stroke:#2C3E50;stroke-width:2.0833;" x1="914.8509" x2="914.8509" y1="358.5744" y2="373.1578"/><polygon fill="#2C3E50" points="910.6842,362.7411,914.8509,373.1578,919.0175,362.7411,914.8509,366.9078" style="stroke:#2C3E50;stroke-width:1.0417;stroke-linejoin:miter;stroke-miterlimit:10;"/><line style="stroke:#2C3E50;stroke-width:2.0833;" x1="432.6172" x2="1245.9106" y1="339.8244" y2="339.8244"/><line style="stroke:#2C3E50;stroke-width:2.0833;" x1="1245.9106" x2="1245.9106" y1="339.8244" y2="373.1578"/><polygon fill="#2C3E50" points="1241.744,362.7411,1245.9106,373.1578,1250.0773,362.7411,1245.9106,366.9078" style="stroke:#2C3E50;stroke-width:1.0417;stroke-linejoin:miter;stroke-miterlimit:10;"/><line style="stroke:#2C3E50;stroke-width:2.0833;" x1="914.8509" x2="914.8509" y1="613.091" y2="617.2577"/><line style="stroke:#2C3E50;stroke-width:2.0833;" x1="914.8509" x2="335.8002" y1="617.2577" y2="617.2577"/><line style="stroke:#2C3E50;stroke-width:2.0833;" x1="335.8002" x2="335.8002" y1="617.2577" y2="636.0077"/><line style="stroke:#2C3E50;stroke-width:2.0833;" x1="335.8002" x2="354.5502" y1="636.0077" y2="636.0077"/><polygon fill="#2C3E50" points="344.1335,631.841,354.5502,636.0077,344.1335,640.1744,348.3002,636.0077" style="stroke:#2C3E50;stroke-width:1.0417;stroke-linejoin:miter;stroke-miterlimit:10;"/><line style="stroke:#2C3E50;stroke-width:2.0833;" x1="1245.9106" x2="1245.9106" y1="400.8494" y2="636.0077"/><line style="stroke:#2C3E50;stroke-width:2.0833;" x1="1245.9106" x2="379.5502" y1="636.0077" y2="636.0077"/><polygon fill="#2C3E50" points="389.9668,631.841,379.5502,636.0077,389.9668,640.1744,385.8002,636.0077" style="stroke:#2C3E50;stroke-width:1.0417;stroke-linejoin:miter;stroke-miterlimit:10;"/><line style="stroke:#2C3E50;stroke-width:2.0833;" x1="367.0502" x2="367.0502" y1="648.5077" y2="653.716"/><line style="stroke:#2C3E50;stroke-width:2.0833;" x1="367.0502" x2="1464.6037" y1="653.716" y2="653.716"/><line style="stroke:#2C3E50;stroke-width:2.0833;" x1="1464.6037" x2="1464.6037" y1="653.716" y2="669.341"/><polygon fill="#2C3E50" points="1460.437,658.9244,1464.6037,669.341,1468.7703,658.9244,1464.6037,663.091" style="stroke:#2C3E50;stroke-width:1.0417;stroke-linejoin:miter;stroke-miterlimit:10;"/><line style="stroke:#2C3E50;stroke-width:2.0833;" x1="1420.1914" x2="1407.6914" y1="730.366" y2="730.366"/><line style="stroke:#2C3E50;stroke-width:2.0833;" x1="1407.6914" x2="1407.6914" y1="730.366" y2="749.116"/><line style="stroke:#2C3E50;stroke-width:2.0833;" x1="1407.6914" x2="1740.1174" y1="749.116" y2="749.116"/><line style="stroke:#2C3E50;stroke-width:2.0833;" x1="1740.1174" x2="1740.1174" y1="749.116" y2="763.6993"/><polygon fill="#2C3E50" points="1735.9507,753.2827,1740.1174,763.6993,1744.2841,753.2827,1740.1174,757.4493" style="stroke:#2C3E50;stroke-width:1.0417;stroke-linejoin:miter;stroke-miterlimit:10;"/><line style="stroke:#2C3E50;stroke-width:2.0833;" x1="1509.0159" x2="2010.2203" y1="730.366" y2="730.366"/><line style="stroke:#2C3E50;stroke-width:2.0833;" x1="2010.2203" x2="2010.2203" y1="730.366" y2="763.6993"/><polygon fill="#2C3E50" points="2006.0537,753.2827,2010.2203,763.6993,2014.387,753.2827,2010.2203,757.4493" style="stroke:#2C3E50;stroke-width:1.0417;stroke-linejoin:miter;stroke-miterlimit:10;"/><line style="stroke:#2C3E50;stroke-width:2.0833;" x1="1740.1174" x2="1740.1174" y1="936.9659" y2="941.1326"/><line style="stroke:#2C3E50;stroke-width:2.0833;" x1="1740.1174" x2="1433.3537" y1="941.1326" y2="941.1326"/><line style="stroke:#2C3E50;stroke-width:2.0833;" x1="1433.3537" x2="1433.3537" y1="941.1326" y2="959.8826"/><line style="stroke:#2C3E50;stroke-width:2.0833;" x1="1433.3537" x2="1452.1037" y1="959.8826" y2="959.8826"/><polygon fill="#2C3E50" points="1441.687,955.7159,1452.1037,959.8826,1441.687,964.0493,1445.8537,959.8826" style="stroke:#2C3E50;stroke-width:1.0417;stroke-linejoin:miter;stroke-miterlimit:10;"/><line style="stroke:#2C3E50;stroke-width:2.0833;" x1="2010.2203" x2="2010.2203" y1="791.391" y2="959.8826"/><line style="stroke:#2C3E50;stroke-width:2.0833;" x1="2010.2203" x2="1477.1037" y1="959.8826" y2="959.8826"/><polygon fill="#2C3E50" points="1487.5203,955.7159,1477.1037,959.8826,1487.5203,964.0493,1483.3537,959.8826" style="stroke:#2C3E50;stroke-width:1.0417;stroke-linejoin:miter;stroke-miterlimit:10;"/><line style="stroke:#2C3E50;stroke-width:2.0833;" x1="610.0515" x2="2183.1828" y1="245.4661" y2="245.4661"/><line style="stroke:#2C3E50;stroke-width:2.0833;" x1="2183.1828" x2="2183.1828" y1="245.4661" y2="278.7994"/><polygon fill="#2C3E50" points="2179.0161,268.3828,2183.1828,278.7994,2187.3494,268.3828,2183.1828,272.5494" style="stroke:#2C3E50;stroke-width:1.0417;stroke-linejoin:miter;stroke-miterlimit:10;"/><line style="stroke:#2C3E50;stroke-width:2.0833;" x1="1464.6037" x2="1464.6037" y1="972.3826" y2="976.5493"/><line style="stroke:#2C3E50;stroke-width:2.0833;" x1="1464.6037" x2="502.828" y1="976.5493" y2="976.5493"/><line style="stroke:#2C3E50;stroke-width:2.0833;" x1="502.828" x2="502.828" y1="976.5493" y2="995.2993"/><line style="stroke:#2C3E50;stroke-width:2.0833;" x1="502.828" x2="521.578" y1="995.2993" y2="995.2993"/><polygon fill="#2C3E50" points="511.1613,991.1326,521.578,995.2993,511.1613,999.4659,515.328,995.2993" style="stroke:#2C3E50;stroke-width:1.0417;stroke-linejoin:miter;stroke-miterlimit:10;"/><line style="stroke:#2C3E50;stroke-width:2.0833;" x1="2183.1828" x2="2183.1828" y1="306.4911" y2="995.2993"/><line style="stroke:#2C3E50;stroke-width:2.0833;" x1="2183.1828" x2="546.578" y1="995.2993" y2="995.2993"/><polygon fill="#2C3E50" points="556.9946,991.1326,546.578,995.2993,556.9946,999.4659,552.828,995.2993" style="stroke:#2C3E50;stroke-width:1.0417;stroke-linejoin:miter;stroke-miterlimit:10;"/><line style="stroke:#2C3E50;stroke-width:2.0833;" x1="534.078" x2="534.078" y1="1007.7993" y2="1013.0076"/><line style="stroke:#2C3E50;stroke-width:2.0833;" x1="534.078" x2="2036.9883" y1="1013.0076" y2="1013.0076"/><line style="stroke:#2C3E50;stroke-width:2.0833;" x1="2036.9883" x2="2036.9883" y1="1013.0076" y2="1028.6326"/><polygon fill="#2C3E50" points="2032.8217,1018.2159,2036.9883,1028.6326,2041.155,1018.2159,2036.9883,1022.3826" style="stroke:#2C3E50;stroke-width:1.0417;stroke-linejoin:miter;stroke-miterlimit:10;"/><text fill="#111111" font-family="'Verdana'" font-size="12.5" lengthAdjust="spacing" textLength="68.6096" x="108.9671" y="86.4166">Data Layer</text><text fill="#111111" font-family="'Verdana'" font-size="12.5" lengthAdjust="spacing" textLength="111.9751" x="397.5632" y="86.4166">Intelligence Layer</text><text fill="#111111" font-family="'Verdana'" font-size="12.5" lengthAdjust="spacing" textLength="72.5769" x="954.7017" y="86.4166">News Layer</text><text fill="#111111" font-family="'Verdana'" font-size="12.5" lengthAdjust="spacing" textLength="65.0696" x="1436.3495" y="86.4166">Risk Layer</text><text fill="#111111" font-family="'Verdana'" font-size="12.5" lengthAdjust="spacing" textLength="100.061" x="1867.3299" y="86.4166">Execution Layer</text><?plantuml-src bLHjRjj64FtFKqmXj92SMb-ERKcMLOWYcHHm7I3Alw8GLkI8sd2vo-ukfQXHW1uYG0_Kc_GadIKfvwjfNG8amDcPDpDltkmtTeivGeow5CZakIgju1AzgR47WJCFG2jbeNdUGgIaNIYXDBG6rGFloCToA_0_V5Ajok8viWJrLttCdkU2IVmwphJN55Qdd1h-6qu6ezdPsJosVCVj0Vxw_JtSyHt2agUI2VWEVc8wvH8YeVPdPuH0CJFFCncN1TCiXxSkzPObQizb2bQNI8O4DwmKrXMnf00O3CbuIlAPLMkrRoeTBYx2o_x9-6hBuqoYCJ3qtdsKaPsATQbz5cUE7Paq6C5LE8z6xaHfekk4F1xr_J5Pg-IE1LWhaNo2ct2MAvdyCsmKHkFm-dFOw6Ay6BZgl6ChzAFBo3z2m2o3EtP0xHdBjFKcFjEmK7aXq682xHrdiBGQMOwwSrE5Ze9v61tXHsbH29wYZB61c90divWUkagkraotwVqUOll6HV8Dj9j1KGmwn-I73f0i9RIdiQjnqXfUpyEh_ko0PjghJBCEjJ59k4OYKacuXRiNzy-W1yldBrw-8bW01toFUmCesLey6XJWs8g2q0_wHwZ2wnxSmSJzXvAaXDqKxSgWj3odJziSSXe5jLEvcLXff99-xdVxS0w3Rl-NvgGMuZnvNHgBkXiJeQN5LLwPLpd9ZHU2esutKAw73qsoL2CQsFVW8VEZcwBaTHRuyuzRQ0_W2Ob76Ti1A0km2fvSzh-zWUcqDVT3Vt4rcrLXA0n-0B-EHejHC9Fgtx2fNO1sAUCjaoacdGeqk0n6mU84AXE-yHu9VeA-XJKZTzfTsb77JetYLVEQ1tumEi9BRhA7UKsU2RLcmjcwyHRZRCNYcBR1hZIPQeOTltD1ryB_aaSmY8OXRKdu1kEocin76bdKCuLVQRatMkNmG0q8t96-Ksp4u6kLaGZeF2CnLIjvclka42p6bR6gMDNd96tBCbmLMcsuRRpSBRSi2zGxRcYLQSlYp42X37TLtNn1yQ9_CHxwNr9yfrBG-BgHMOzAFgmHCYx4ETt8DjvMCum6uwUZUJN3clj7p6zohwgxZghvH0OrWElF-ni0?></g></svg>