<svg xmlns="http://www.w3.org/2000/svg" xmlns:xlink="http://www.w3.org/1999/xlink" contentStyleType="text/css" data-diagram-type="CLASS" height="1559.375px" preserveAspectRatio="none" style="width:1405px;height:1559px;" version="1.1" viewBox="0 0 1405 1559" width="1405.2083px" zoomAndPan="magnify"><?plantuml 1.2026.5?><defs><filter height="300%" id="fsylgm32ng29l" width="300%" x="-1" y="-1"><feGaussianBlur result="blurOut" stdDeviation="2.0833"/><feColorMatrix in="blurOut" result="blurOut2" type="matrix" values="0 0 0 0 0 0 0 0 0 0 0 0 0 0 0 0 0 0 .4 0"/><feOffset dx="4.1667" dy="4.1667" in="blurOut2" result="blurOut3"/><feBlend in="SourceGraphic" in2="blurOut3" mode="normal"/></filter></defs><g><g class="title" data-source-line="213"><rect fill="none" height="35.2875" rx="4.1667" ry="4.1667" style="stroke:#BABDBF;stroke-width:1.0417;" width="542.4622" x="430.6511" y="20.8333"/><text fill="#111111" font-family="'Verdana'" font-size="18.75" font-weight="700" lengthAdjust="spacing" textLength="529.9622" x="436.9011" y="45.934">Core &#8212; Orchestration Layer (Services &amp; Factories)</text></g><!--class BacktestService--><g class="entity" data-qualified-name="BacktestService" data-source-line="239" id="ent0001"><rect fill="#F7DC6F" filter="url(#fsylgm32ng29l)" height="127.095" rx="4.1667" ry="4.1667" style="stroke:#D4AC0D;stroke-width:1.0417;" width="397.8155" x="537.5521" y="74.8708"/><rect fill="#F4D03F" height="40.8" rx="4.1667" ry="4.1667" style="stroke:#F4D03F;stroke-width:1.0417;" width="397.8155" x="537.5521" y="74.8708"/><rect fill="#F4D03F" height="4.1667" style="stroke:#F4D03F;stroke-width:1.0417;" width="397.8155" x="537.5521" y="111.5041"/><rect fill="none" height="127.095" rx="4.1667" ry="4.1667" style="stroke:#D4AC0D;stroke-width:1.0417;" width="397.8155" x="537.5521" y="74.8708"/><ellipse cx="671.7979" cy="95.2708" fill="#EDF0F2" rx="9.375" ry="9.375" style="stroke:#BABDBF;stroke-width:1.0417;"/><path d="M673.1585,99.1969 Q672.7668,99.3983 672.336,99.499 Q671.9052,99.5997 671.4296,99.5997 Q669.74,99.5997 668.8504,98.4863 Q667.9608,97.3729 667.9608,95.2693 Q667.9608,93.16 668.8504,92.0466 Q669.74,90.9332 671.4296,90.9332 Q671.9052,90.9332 672.3416,91.0339 Q672.778,91.1346 673.1585,91.3361 L673.1585,93.1712 Q672.7333,92.7795 672.3332,92.5977 Q671.9332,92.4159 671.508,92.4159 Q670.6016,92.4159 670.14,93.1348 Q669.6784,93.8538 669.6784,95.2693 Q669.6784,96.6792 670.14,97.3981 Q670.6016,98.1171 671.508,98.1171 Q671.9332,98.1171 672.3332,97.9352 Q672.7333,97.7534 673.1585,97.3618 Z " fill="#111111"/><text fill="#343A40" font-family="Verdana" font-size="11.4583" font-style="italic" lengthAdjust="spacing" textLength="55.1656" x="723.1999" y="91.599">&#171;service&#187;</text><text fill="#111111" font-family="'Verdana'" font-size="13.5417" font-weight="700" lengthAdjust="spacing" textLength="121.5113" x="690.0271" y="107.6192">BacktestService</text><line style="stroke:#D4AC0D;stroke-width:1.0417;" x1="538.5938" x2="934.3259" y1="115.6708" y2="115.6708"/><line style="stroke:#D4AC0D;stroke-width:1.0417;" x1="538.5938" x2="934.3259" y1="124.0041" y2="124.0041"/><g data-visibility-modifier="PUBLIC_METHOD"><ellipse cx="549.0104" cy="136.6961" fill="none" rx="3.125" ry="3.125" style="stroke:#2683B9;stroke-width:1.0417;"/></g><text fill="#111111" font-family="'Verdana'" font-size="11.4583" lengthAdjust="spacing" textLength="372.8155" x="556.3021" y="139.6907">run_single(strategy_name, params, symbol, ...): BacktestResult</text><g data-visibility-modifier="PUBLIC_METHOD"><ellipse cx="549.0104" cy="150.6218" fill="none" rx="3.125" ry="3.125" style="stroke:#2683B9;stroke-width:1.0417;"/></g><text fill="#111111" font-family="'Verdana'" font-size="11.4583" lengthAdjust="spacing" textLength="171.2875" x="556.3021" y="153.6163">run_with_cv(...): BatchResult</text><g data-visibility-modifier="PUBLIC_METHOD"><ellipse cx="549.0104" cy="164.5475" fill="none" rx="3.125" ry="3.125" style="stroke:#2683B9;stroke-width:1.0417;"/></g><text fill="#111111" font-family="'Verdana'" font-size="11.4583" lengthAdjust="spacing" textLength="178.2979" x="556.3021" y="167.542">export_trades(result, path, ...)</text><g data-visibility-modifier="PUBLIC_METHOD"><ellipse cx="549.0104" cy="178.4732" fill="none" rx="3.125" ry="3.125" style="stroke:#2683B9;stroke-width:1.0417;"/></g><text fill="#111111" font-family="'Verdana'" font-size="11.4583" lengthAdjust="spacing" textLength="109.8221" x="556.3021" y="181.4677">print_result(result)</text><g data-visibility-modifier="PRIVATE_METHOD"><rect fill="none" height="6.25" style="stroke:#2683B9;stroke-width:1.0417;" width="6.25" x="545.8854" y="189.2738"/></g><text fill="#111111" font-family="'Verdana'" font-size="11.4583" lengthAdjust="spacing" textLength="178.2476" x="556.3021" y="195.3934">_build_sizing(...): SizingConfig</text></g><!--class SweepService--><g class="entity" data-qualified-name="SweepService" data-source-line="246" id="ent0002"><rect fill="#F7DC6F" filter="url(#fsylgm32ng29l)" height="113.1694" rx="4.1667" ry="4.1667" style="stroke:#D4AC0D;stroke-width:1.0417;" width="448.052" x="512.4375" y="265.5062"/><rect fill="#F4D03F" height="40.8" rx="4.1667" ry="4.1667" style="stroke:#F4D03F;stroke-width:1.0417;" width="448.052" x="512.4375" y="265.5062"/><rect fill="#F4D03F" height="4.1667" style="stroke:#F4D03F;stroke-width:1.0417;" width="448.052" x="512.4375" y="302.1395"/><rect fill="none" height="113.1694" rx="4.1667" ry="4.1667" style="stroke:#D4AC0D;stroke-width:1.0417;" width="448.052" x="512.4375" y="265.5062"/><ellipse cx="679.5212" cy="285.9062" fill="#EDF0F2" rx="9.375" ry="9.375" style="stroke:#BABDBF;stroke-width:1.0417;"/><path d="M680.8818,289.8323 Q680.4902,290.0337 680.0594,290.1344 Q679.6286,290.2351 679.153,290.2351 Q677.4633,290.2351 676.5738,289.1217 Q675.6842,288.0084 675.6842,285.9047 Q675.6842,283.7954 676.5738,282.682 Q677.4633,281.5686 679.153,281.5686 Q679.6286,281.5686 680.065,281.6694 Q680.5014,281.7701 680.8818,281.9715 L680.8818,283.8066 Q680.4566,283.415 680.0566,283.2331 Q679.6565,283.0513 679.2313,283.0513 Q678.325,283.0513 677.8634,283.7702 Q677.4018,284.4892 677.4018,285.9047 Q677.4018,287.3146 677.8634,288.0335 Q678.325,288.7525 679.2313,288.7525 Q679.6565,288.7525 680.0566,288.5706 Q680.4566,288.3888 680.8818,287.9972 Z " fill="#111111"/><text fill="#343A40" font-family="Verdana" font-size="11.4583" font-style="italic" lengthAdjust="spacing" textLength="55.1656" x="723.2036" y="282.2344">&#171;service&#187;</text><text fill="#111111" font-family="'Verdana'" font-size="13.5417" font-weight="700" lengthAdjust="spacing" textLength="106.072" x="697.7504" y="298.2546">SweepService</text><line style="stroke:#D4AC0D;stroke-width:1.0417;" x1="513.4792" x2="959.4478" y1="306.3062" y2="306.3062"/><line style="stroke:#D4AC0D;stroke-width:1.0417;" x1="513.4792" x2="959.4478" y1="314.6395" y2="314.6395"/><g data-visibility-modifier="PUBLIC_METHOD"><ellipse cx="523.8958" cy="327.3315" fill="none" rx="3.125" ry="3.125" style="stroke:#2683B9;stroke-width:1.0417;"/></g><text fill="#111111" font-family="'Verdana'" font-size="11.4583" lengthAdjust="spacing" textLength="423.052" x="531.1875" y="330.3261">run_sweep(strategy_name, param_grid, symbol, ...): List[RankedResult]</text><g data-visibility-modifier="PUBLIC_METHOD"><ellipse cx="523.8958" cy="341.2572" fill="none" rx="3.125" ry="3.125" style="stroke:#2683B9;stroke-width:1.0417;"/></g><text fill="#111111" font-family="'Verdana'" font-size="11.4583" lengthAdjust="spacing" textLength="188.9954" x="531.1875" y="344.2517">print_top_results(results, top_n)</text><g data-visibility-modifier="PRIVATE_METHOD"><rect fill="none" height="6.25" style="stroke:#2683B9;stroke-width:1.0417;" width="6.25" x="520.7708" y="352.0579"/></g><text fill="#111111" font-family="'Verdana'" font-size="11.4583" lengthAdjust="spacing" textLength="224.4726" x="531.1875" y="358.1774">_build_search_space(grid, constraints)</text><g data-visibility-modifier="PRIVATE_METHOD"><rect fill="none" height="6.25" style="stroke:#2683B9;stroke-width:1.0417;" width="6.25" x="520.7708" y="365.9836"/></g><text fill="#111111" font-family="'Verdana'" font-size="11.4583" lengthAdjust="spacing" textLength="267.4301" x="531.1875" y="372.1031">_build_selection_criteria(...): SelectionCriteria</text></g><!--class LiveService--><g class="entity" data-qualified-name="LiveService" data-source-line="252" id="ent0003"><rect fill="#F7DC6F" filter="url(#fsylgm32ng29l)" height="85.318" rx="4.1667" ry="4.1667" style="stroke:#D4AC0D;stroke-width:1.0417;" width="383.6548" x="49.8438" y="442.2146"/><rect fill="#F4D03F" height="40.8" rx="4.1667" ry="4.1667" style="stroke:#F4D03F;stroke-width:1.0417;" width="383.6548" x="49.8438" y="442.2146"/><rect fill="#F4D03F" height="4.1667" style="stroke:#F4D03F;stroke-width:1.0417;" width="383.6548" x="49.8438" y="478.8479"/><rect fill="none" height="85.318" rx="4.1667" ry="4.1667" style="stroke:#D4AC0D;stroke-width:1.0417;" width="383.6548" x="49.8438" y="442.2146"/><ellipse cx="194.3727" cy="462.6145" fill="#EDF0F2" rx="9.375" ry="9.375" style="stroke:#BABDBF;stroke-width:1.0417;"/><path d="M195.7333,466.5406 Q195.3416,466.742 194.9108,466.8428 Q194.48,466.9435 194.0045,466.9435 Q192.3148,466.9435 191.4252,465.8301 Q190.5356,464.7167 190.5356,462.613 Q190.5356,460.5037 191.4252,459.3904 Q192.3148,458.277 194.0045,458.277 Q194.48,458.277 194.9164,458.3777 Q195.3528,458.4784 195.7333,458.6798 L195.7333,460.5149 Q195.3081,460.1233 194.908,459.9415 Q194.508,459.7596 194.0828,459.7596 Q193.1764,459.7596 192.7148,460.4786 Q192.2533,461.1975 192.2533,462.613 Q192.2533,464.0229 192.7148,464.7419 Q193.1764,465.4608 194.0828,465.4608 Q194.508,465.4608 194.908,465.279 Q195.3081,465.0971 195.7333,464.7055 Z " fill="#111111"/><text fill="#343A40" font-family="Verdana" font-size="11.4583" font-style="italic" lengthAdjust="spacing" textLength="55.1656" x="228.4113" y="458.9428">&#171;service&#187;</text><text fill="#111111" font-family="'Verdana'" font-size="13.5417" font-weight="700" lengthAdjust="spacing" textLength="86.7844" x="212.6019" y="474.963">LiveService</text><line style="stroke:#D4AC0D;stroke-width:1.0417;" x1="50.8854" x2="432.4569" y1="483.0145" y2="483.0145"/><line style="stroke:#D4AC0D;stroke-width:1.0417;" x1="50.8854" x2="432.4569" y1="491.3479" y2="491.3479"/><g data-visibility-modifier="PUBLIC_METHOD"><ellipse cx="61.3021" cy="504.0399" fill="none" rx="3.125" ry="3.125" style="stroke:#2683B9;stroke-width:1.0417;"/></g><text fill="#111111" font-family="'Verdana'" font-size="11.4583" lengthAdjust="spacing" textLength="358.6548" x="68.5938" y="507.0344">run(config_path, dry_run, run_id, sentiment_override): async</text><g data-visibility-modifier="PRIVATE_METHOD"><rect fill="none" height="6.25" style="stroke:#2683B9;stroke-width:1.0417;" width="6.25" x="58.1771" y="514.8405"/></g><text fill="#111111" font-family="'Verdana'" font-size="11.4583" lengthAdjust="spacing" textLength="258.0922" x="68.5938" y="520.9601">_validate_live_strategy_safety(cfg, dry_run)</text></g><!--class StrategyFactory--><g class="entity" data-qualified-name="StrategyFactory" data-source-line="257" id="ent0004"><rect fill="#FCF3CF" filter="url(#fsylgm32ng29l)" height="127.095" rx="4.1667" ry="4.1667" style="stroke:#D4AC0D;stroke-width:1.0417;" width="230.6569" x="568" y="605.6625"/><rect fill="#F9E79F" height="40.8" rx="4.1667" ry="4.1667" style="stroke:#F9E79F;stroke-width:1.0417;" width="230.6569" x="568" y="605.6625"/><rect fill="#F9E79F" height="4.1667" style="stroke:#F9E79F;stroke-width:1.0417;" width="230.6569" x="568" y="642.2958"/><rect fill="none" height="127.095" rx="4.1667" ry="4.1667" style="stroke:#D4AC0D;stroke-width:1.0417;" width="230.6569" x="568" y="605.6625"/><ellipse cx="618.5013" cy="626.0625" fill="#EDF0F2" rx="9.375" ry="9.375" style="stroke:#BABDBF;stroke-width:1.0417;"/><path d="M619.8618,629.9885 Q619.4702,630.19 619.0394,630.2907 Q618.6086,630.3914 618.133,630.3914 Q616.4433,630.3914 615.5538,629.278 Q614.6642,628.1646 614.6642,626.0609 Q614.6642,623.9517 615.5538,622.8383 Q616.4433,621.7249 618.133,621.7249 Q618.6086,621.7249 619.045,621.8256 Q619.4814,621.9263 619.8618,622.1277 L619.8618,623.9628 Q619.4366,623.5712 619.0366,623.3894 Q618.6365,623.2075 618.2113,623.2075 Q617.305,623.2075 616.8434,623.9265 Q616.3818,624.6454 616.3818,626.0609 Q616.3818,627.4708 616.8434,628.1898 Q617.305,628.9087 618.2113,628.9087 Q618.6365,628.9087 619.0366,628.7269 Q619.4366,628.5451 619.8618,628.1534 Z " fill="#111111"/><text fill="#343A40" font-family="Verdana" font-size="11.4583" font-style="italic" lengthAdjust="spacing" textLength="54.7796" x="670.2616" y="622.3907">&#171;factory&#187;</text><text fill="#111111" font-family="'Verdana'" font-size="13.5417" font-weight="700" lengthAdjust="spacing" textLength="121.8419" x="636.7304" y="638.4109">StrategyFactory</text><line style="stroke:#D4AC0D;stroke-width:1.0417;" x1="569.0417" x2="797.6153" y1="646.4624" y2="646.4624"/><g data-visibility-modifier="PRIVATE_FIELD"><rect fill="none" height="6.25" style="stroke:#2683B9;stroke-width:1.0417;" width="6.25" x="576.3333" y="656.0294"/></g><text fill="#111111" font-family="'Verdana'" font-size="11.4583" lengthAdjust="spacing" textLength="130.7917" x="586.75" y="662.149">_registry: dict[str, str]</text><line style="stroke:#D4AC0D;stroke-width:1.0417;" x1="569.0417" x2="797.6153" y1="668.7215" y2="668.7215"/><g data-visibility-modifier="PUBLIC_METHOD"><ellipse cx="579.4583" cy="681.4135" fill="none" rx="3.125" ry="3.125" style="stroke:#2683B9;stroke-width:1.0417;"/></g><text fill="#111111" font-family="'Verdana'" font-size="11.4583" lengthAdjust="spacing" textLength="170.4371" x="586.75" y="684.408">register(name, module_path)</text><g data-visibility-modifier="PUBLIC_METHOD"><ellipse cx="579.4583" cy="695.3391" fill="none" rx="3.125" ry="3.125" style="stroke:#2683B9;stroke-width:1.0417;"/></g><text fill="#111111" font-family="'Verdana'" font-size="11.4583" lengthAdjust="spacing" textLength="153.6133" x="586.75" y="698.3337">resolve_class(name): type</text><g data-visibility-modifier="PUBLIC_METHOD"><ellipse cx="579.4583" cy="709.2648" fill="none" rx="3.125" ry="3.125" style="stroke:#2683B9;stroke-width:1.0417;"/></g><text fill="#111111" font-family="'Verdana'" font-size="11.4583" lengthAdjust="spacing" textLength="205.6569" x="586.75" y="712.2594">create(name, **kwargs): IStrategy</text><g data-visibility-modifier="PUBLIC_METHOD"><ellipse cx="579.4583" cy="723.1905" fill="none" rx="3.125" ry="3.125" style="stroke:#2683B9;stroke-width:1.0417;"/></g><text fill="#111111" font-family="'Verdana'" font-size="11.4583" lengthAdjust="spacing" textLength="137.0748" x="586.75" y="726.185">list_available(): list[str]</text></g><!--class CompositeFactory--><g class="entity" data-qualified-name="CompositeFactory" data-source-line="264" id="ent0005"><rect fill="#FCF3CF" filter="url(#fsylgm32ng29l)" height="85.318" rx="4.1667" ry="4.1667" style="stroke:#D4AC0D;stroke-width:1.0417;" width="343.8639" x="511.4063" y="810.8812"/><rect fill="#F9E79F" height="40.8" rx="4.1667" ry="4.1667" style="stroke:#F9E79F;stroke-width:1.0417;" width="343.8639" x="511.4063" y="810.8812"/><rect fill="#F9E79F" height="4.1667" style="stroke:#F9E79F;stroke-width:1.0417;" width="343.8639" x="511.4063" y="847.5145"/><rect fill="none" height="85.318" rx="4.1667" ry="4.1667" style="stroke:#D4AC0D;stroke-width:1.0417;" width="343.8639" x="511.4063" y="810.8812"/><ellipse cx="611.0095" cy="831.2812" fill="#EDF0F2" rx="9.375" ry="9.375" style="stroke:#BABDBF;stroke-width:1.0417;"/><path d="M612.3701,835.2073 Q611.9785,835.4087 611.5476,835.5094 Q611.1168,835.6101 610.6413,835.6101 Q608.9516,835.6101 608.062,834.4967 Q607.1724,833.3834 607.1724,831.2797 Q607.1724,829.1704 608.062,828.057 Q608.9516,826.9436 610.6413,826.9436 Q611.1168,826.9436 611.5532,827.0444 Q611.9896,827.1451 612.3701,827.3465 L612.3701,829.1816 Q611.9449,828.79 611.5449,828.6081 Q611.1448,828.4263 610.7196,828.4263 Q609.8132,828.4263 609.3517,829.1452 Q608.8901,829.8642 608.8901,831.2797 Q608.8901,832.6896 609.3517,833.4085 Q609.8132,834.1275 610.7196,834.1275 Q611.1448,834.1275 611.5449,833.9456 Q611.9449,833.7638 612.3701,833.3722 Z " fill="#111111"/><text fill="#343A40" font-family="Verdana" font-size="11.4583" font-style="italic" lengthAdjust="spacing" textLength="54.7796" x="670.2714" y="827.6094">&#171;factory&#187;</text><text fill="#111111" font-family="'Verdana'" font-size="13.5417" font-weight="700" lengthAdjust="spacing" textLength="136.8449" x="629.2387" y="843.6296">CompositeFactory</text><line style="stroke:#D4AC0D;stroke-width:1.0417;" x1="512.4479" x2="854.2285" y1="851.6812" y2="851.6812"/><line style="stroke:#D4AC0D;stroke-width:1.0417;" x1="512.4479" x2="854.2285" y1="860.0145" y2="860.0145"/><g data-visibility-modifier="PUBLIC_METHOD"><ellipse cx="522.8646" cy="872.7065" fill="none" rx="3.125" ry="3.125" style="stroke:#2683B9;stroke-width:1.0417;"/></g><text fill="#111111" font-family="'Verdana'" font-size="11.4583" lengthAdjust="spacing" textLength="318.8639" x="530.1563" y="875.7011">from_spec(spec, regime_detector): CompositeStrategy</text><g data-visibility-modifier="PUBLIC_METHOD"><ellipse cx="522.8646" cy="886.6322" fill="none" rx="3.125" ry="3.125" style="stroke:#2683B9;stroke-width:1.0417;"/></g><text fill="#111111" font-family="'Verdana'" font-size="11.4583" lengthAdjust="spacing" textLength="318.6289" x="530.1563" y="889.6267">from_path(path, regime_detector): CompositeStrategy</text></g><!--class RegimeFactory--><g class="entity" data-qualified-name="RegimeFactory" data-source-line="268" id="ent0006"><rect fill="#FCF3CF" filter="url(#fsylgm32ng29l)" height="99.2437" rx="4.1667" ry="4.1667" style="stroke:#D4AC0D;stroke-width:1.0417;" width="227.9434" x="569.3646" y="974.3187"/><rect fill="#F9E79F" height="40.8" rx="4.1667" ry="4.1667" style="stroke:#F9E79F;stroke-width:1.0417;" width="227.9434" x="569.3646" y="974.3187"/><rect fill="#F9E79F" height="4.1667" style="stroke:#F9E79F;stroke-width:1.0417;" width="227.9434" x="569.3646" y="1010.952"/><rect fill="none" height="99.2437" rx="4.1667" ry="4.1667" style="stroke:#D4AC0D;stroke-width:1.0417;" width="227.9434" x="569.3646" y="974.3187"/><ellipse cx="622.5127" cy="994.7187" fill="#EDF0F2" rx="9.375" ry="9.375" style="stroke:#BABDBF;stroke-width:1.0417;"/><path d="M623.8733,998.6448 Q623.4817,998.8462 623.0509,998.9469 Q622.62,999.0476 622.1445,999.0476 Q620.4548,999.0476 619.5652,997.9342 Q618.6756,996.8209 618.6756,994.7172 Q618.6756,992.6079 619.5652,991.4945 Q620.4548,990.3811 622.1445,990.3811 Q622.62,990.3811 623.0564,990.4819 Q623.4928,990.5826 623.8733,990.784 L623.8733,992.6191 Q623.4481,992.2275 623.0481,992.0456 Q622.648,991.8638 622.2228,991.8638 Q621.3164,991.8638 620.8549,992.5827 Q620.3933,993.3017 620.3933,994.7172 Q620.3933,996.1271 620.8549,996.846 Q621.3164,997.565 622.2228,997.565 Q622.648,997.565 623.0481,997.3831 Q623.4481,997.2013 623.8733,996.8097 Z " fill="#111111"/><text fill="#343A40" font-family="Verdana" font-size="11.4583" font-style="italic" lengthAdjust="spacing" textLength="54.7796" x="670.2694" y="991.0469">&#171;factory&#187;</text><text fill="#111111" font-family="'Verdana'" font-size="13.5417" font-weight="700" lengthAdjust="spacing" textLength="113.8346" x="640.7419" y="1007.0671">RegimeFactory</text><line style="stroke:#D4AC0D;stroke-width:1.0417;" x1="570.4063" x2="796.2663" y1="1015.1187" y2="1015.1187"/><g data-visibility-modifier="PRIVATE_FIELD"><rect fill="none" height="6.25" style="stroke:#2683B9;stroke-width:1.0417;" width="6.25" x="577.6979" y="1024.6857"/></g><text fill="#111111" font-family="'Verdana'" font-size="11.4583" lengthAdjust="spacing" textLength="130.7917" x="588.1146" y="1030.8052">_registry: dict[str, str]</text><line style="stroke:#D4AC0D;stroke-width:1.0417;" x1="570.4063" x2="796.2663" y1="1037.3777" y2="1037.3777"/><g data-visibility-modifier="PUBLIC_METHOD"><ellipse cx="580.8229" cy="1050.0697" fill="none" rx="3.125" ry="3.125" style="stroke:#2683B9;stroke-width:1.0417;"/></g><text fill="#111111" font-family="'Verdana'" font-size="11.4583" lengthAdjust="spacing" textLength="165.066" x="588.1146" y="1053.0642">register(name, dotted_path)</text><g data-visibility-modifier="PUBLIC_METHOD"><ellipse cx="580.8229" cy="1063.9954" fill="none" rx="3.125" ry="3.125" style="stroke:#2683B9;stroke-width:1.0417;"/></g><text fill="#111111" font-family="'Verdana'" font-size="11.4583" lengthAdjust="spacing" textLength="202.9434" x="588.1146" y="1066.9899">from_spec(spec): IRegimeDetector</text></g><!--class BrokerFactory--><g class="entity" data-qualified-name="BrokerFactory" data-source-line="273" id="ent0007"><rect fill="#FCF3CF" filter="url(#fsylgm32ng29l)" height="71.3923" rx="4.1667" ry="4.1667" style="stroke:#D4AC0D;stroke-width:1.0417;" width="230.4164" x="347.2917" y="1137.1104"/><rect fill="#F9E79F" height="40.8" rx="4.1667" ry="4.1667" style="stroke:#F9E79F;stroke-width:1.0417;" width="230.4164" x="347.2917" y="1137.1104"/><rect fill="#F9E79F" height="4.1667" style="stroke:#F9E79F;stroke-width:1.0417;" width="230.4164" x="347.2917" y="1173.7437"/><rect fill="none" height="71.3923" rx="4.1667" ry="4.1667" style="stroke:#D4AC0D;stroke-width:1.0417;" width="230.4164" x="347.2917" y="1137.1104"/><ellipse cx="404.6022" cy="1157.5104" fill="#EDF0F2" rx="9.375" ry="9.375" style="stroke:#BABDBF;stroke-width:1.0417;"/><path d="M405.9627,1161.4365 Q405.5711,1161.6379 405.1403,1161.7386 Q404.7095,1161.8393 404.2339,1161.8393 Q402.5443,1161.8393 401.6547,1160.7259 Q400.7651,1159.6125 400.7651,1157.5089 Q400.7651,1155.3996 401.6547,1154.2862 Q402.5443,1153.1728 404.2339,1153.1728 Q404.7095,1153.1728 405.1459,1153.2735 Q405.5823,1153.3742 405.9627,1153.5756 L405.9627,1155.4108 Q405.5375,1155.0191 405.1375,1154.8373 Q404.7374,1154.6555 404.3122,1154.6555 Q403.4059,1154.6555 402.9443,1155.3744 Q402.4827,1156.0933 402.4827,1157.5089 Q402.4827,1158.9188 402.9443,1159.6377 Q403.4059,1160.3566 404.3122,1160.3566 Q404.7374,1160.3566 405.1375,1160.1748 Q405.5375,1159.993 405.9627,1159.6013 Z " fill="#111111"/><text fill="#343A40" font-family="Verdana" font-size="11.4583" font-style="italic" lengthAdjust="spacing" textLength="54.7796" x="449.433" y="1153.8386">&#171;factory&#187;</text><text fill="#111111" font-family="'Verdana'" font-size="13.5417" font-weight="700" lengthAdjust="spacing" textLength="107.9829" x="422.8313" y="1169.8588">BrokerFactory</text><line style="stroke:#D4AC0D;stroke-width:1.0417;" x1="348.3333" x2="576.6664" y1="1177.9104" y2="1177.9104"/><line style="stroke:#D4AC0D;stroke-width:1.0417;" x1="348.3333" x2="576.6664" y1="1186.2437" y2="1186.2437"/><g data-visibility-modifier="PUBLIC_METHOD"><ellipse cx="358.75" cy="1198.9357" fill="none" rx="3.125" ry="3.125" style="stroke:#2683B9;stroke-width:1.0417;"/></g><text fill="#111111" font-family="'Verdana'" font-size="11.4583" lengthAdjust="spacing" textLength="205.4164" x="366.0417" y="1201.9302">create(mode, cfg): (IBroker, client)</text></g><!--class NewsFactory--><g class="entity" data-qualified-name="NewsFactory" data-source-line="276" id="ent0008"><rect fill="#FCF3CF" filter="url(#fsylgm32ng29l)" height="99.2437" rx="4.1667" ry="4.1667" style="stroke:#D4AC0D;stroke-width:1.0417;" width="215.8808" x="354.5625" y="1272.0375"/><rect fill="#F9E79F" height="40.8" rx="4.1667" ry="4.1667" style="stroke:#F9E79F;stroke-width:1.0417;" width="215.8808" x="354.5625" y="1272.0375"/><rect fill="#F9E79F" height="4.1667" style="stroke:#F9E79F;stroke-width:1.0417;" width="215.8808" x="354.5625" y="1308.6708"/><rect fill="none" height="99.2437" rx="4.1667" ry="4.1667" style="stroke:#D4AC0D;stroke-width:1.0417;" width="215.8808" x="354.5625" y="1272.0375"/><ellipse cx="409.3032" cy="1292.4375" fill="#EDF0F2" rx="9.375" ry="9.375" style="stroke:#BABDBF;stroke-width:1.0417;"/><path d="M410.6637,1296.3635 Q410.2721,1296.565 409.8413,1296.6657 Q409.4105,1296.7664 408.9349,1296.7664 Q407.2452,1296.7664 406.3557,1295.653 Q405.4661,1294.5396 405.4661,1292.4359 Q405.4661,1290.3267 406.3557,1289.2133 Q407.2452,1288.0999 408.9349,1288.0999 Q409.4105,1288.0999 409.8469,1288.2006 Q410.2833,1288.3013 410.6637,1288.5027 L410.6637,1290.3378 Q410.2385,1289.9462 409.8385,1289.7644 Q409.4384,1289.5825 409.0132,1289.5825 Q408.1069,1289.5825 407.6453,1290.3015 Q407.1837,1291.0204 407.1837,1292.4359 Q407.1837,1293.8458 407.6453,1294.5648 Q408.1069,1295.2837 409.0132,1295.2837 Q409.4384,1295.2837 409.8385,1295.1019 Q410.2385,1294.9201 410.6637,1294.5284 Z " fill="#111111"/><text fill="#343A40" font-family="Verdana" font-size="11.4583" font-style="italic" lengthAdjust="spacing" textLength="54.7796" x="449.4361" y="1288.7657">&#171;factory&#187;</text><text fill="#111111" font-family="'Verdana'" font-size="13.5417" font-weight="700" lengthAdjust="spacing" textLength="98.587" x="427.5323" y="1304.7859">NewsFactory</text><line style="stroke:#D4AC0D;stroke-width:1.0417;" x1="355.6042" x2="569.4017" y1="1312.8374" y2="1312.8374"/><g data-visibility-modifier="PRIVATE_FIELD"><rect fill="none" height="6.25" style="stroke:#2683B9;stroke-width:1.0417;" width="6.25" x="362.8958" y="1322.4044"/></g><text fill="#111111" font-family="'Verdana'" font-size="11.4583" lengthAdjust="spacing" textLength="170.1574" x="373.3125" y="1328.524">_providers: dict[str, Callable]</text><line style="stroke:#D4AC0D;stroke-width:1.0417;" x1="355.6042" x2="569.4017" y1="1335.0965" y2="1335.0965"/><g data-visibility-modifier="PUBLIC_METHOD"><ellipse cx="366.0208" cy="1347.7885" fill="none" rx="3.125" ry="3.125" style="stroke:#2683B9;stroke-width:1.0417;"/></g><text fill="#111111" font-family="'Verdana'" font-size="11.4583" lengthAdjust="spacing" textLength="190.8808" x="373.3125" y="1350.783">register_provider(name, creator)</text><g data-visibility-modifier="PUBLIC_METHOD"><ellipse cx="366.0208" cy="1361.7141" fill="none" rx="3.125" ry="3.125" style="stroke:#2683B9;stroke-width:1.0417;"/></g><text fill="#111111" font-family="'Verdana'" font-size="11.4583" lengthAdjust="spacing" textLength="175.4333" x="373.3125" y="1364.7087">create(cfg): NewsComponents</text></g><!--class NewsComponents--><g class="entity" data-qualified-name="NewsComponents" data-source-line="281" id="ent0009"><rect fill="#F2F3F4" filter="url(#fsylgm32ng29l)" height="99.2437" rx="4.1667" ry="4.1667" style="stroke:#7F8C8D;stroke-width:1.0417;" width="261.3897" x="331.8021" y="1434.8291"/><rect fill="#D5D8DC" height="40.8" rx="4.1667" ry="4.1667" style="stroke:#D5D8DC;stroke-width:1.0417;" width="261.3897" x="331.8021" y="1434.8291"/><rect fill="#D5D8DC" height="4.1667" style="stroke:#D5D8DC;stroke-width:1.0417;" width="261.3897" x="331.8021" y="1471.4624"/><rect fill="none" height="99.2437" rx="4.1667" ry="4.1667" style="stroke:#7F8C8D;stroke-width:1.0417;" width="261.3897" x="331.8021" y="1434.8291"/><ellipse cx="390.3732" cy="1455.2291" fill="#EDF0F2" rx="9.375" ry="9.375" style="stroke:#BABDBF;stroke-width:1.0417;"/><path d="M391.7338,1459.1552 Q391.3421,1459.3566 390.9113,1459.4573 Q390.4805,1459.558 390.005,1459.558 Q388.3153,1459.558 387.4257,1458.4447 Q386.5361,1457.3313 386.5361,1455.2276 Q386.5361,1453.1183 387.4257,1452.0049 Q388.3153,1450.8916 390.005,1450.8916 Q390.4805,1450.8916 390.9169,1450.9923 Q391.3533,1451.093 391.7338,1451.2944 L391.7338,1453.1295 Q391.3086,1452.7379 390.9085,1452.556 Q390.5085,1452.3742 390.0833,1452.3742 Q389.1769,1452.3742 388.7153,1453.0931 Q388.2538,1453.8121 388.2538,1455.2276 Q388.2538,1456.6375 388.7153,1457.3565 Q389.1769,1458.0754 390.0833,1458.0754 Q390.5085,1458.0754 390.9085,1457.8936 Q391.3086,1457.7117 391.7338,1457.3201 Z " fill="#111111"/><text fill="#343A40" font-family="Verdana" font-size="11.4583" font-style="italic" lengthAdjust="spacing" textLength="32.8252" x="460.4072" y="1451.5574">&#171;util&#187;</text><text fill="#111111" font-family="'Verdana'" font-size="13.5417" font-weight="700" lengthAdjust="spacing" textLength="136.4349" x="408.6024" y="1467.5776">NewsComponents</text><line style="stroke:#7F8C8D;stroke-width:1.0417;" x1="332.8438" x2="592.1501" y1="1475.6291" y2="1475.6291"/><g data-visibility-modifier="PUBLIC_FIELD"><ellipse cx="343.2604" cy="1488.3211" fill="none" rx="3.125" ry="3.125" style="stroke:#2683B9;stroke-width:1.0417;"/></g><text fill="#111111" font-family="'Verdana'" font-size="11.4583" lengthAdjust="spacing" textLength="159.0907" x="350.5521" y="1491.3157">news_source: INewsSource</text><g data-visibility-modifier="PUBLIC_FIELD"><ellipse cx="343.2604" cy="1502.2468" fill="none" rx="3.125" ry="3.125" style="stroke:#2683B9;stroke-width:1.0417;"/></g><text fill="#111111" font-family="'Verdana'" font-size="11.4583" lengthAdjust="spacing" textLength="236.3897" x="350.5521" y="1505.2413">sentiment_analyzer: ISentimentAnalyzer</text><g data-visibility-modifier="PUBLIC_FIELD"><ellipse cx="343.2604" cy="1516.1725" fill="none" rx="3.125" ry="3.125" style="stroke:#2683B9;stroke-width:1.0417;"/></g><text fill="#111111" font-family="'Verdana'" font-size="11.4583" lengthAdjust="spacing" textLength="196.5373" x="350.5521" y="1519.167">margin_adjuster: IMarginAdjuster</text><line style="stroke:#7F8C8D;stroke-width:1.0417;" x1="332.8438" x2="592.1501" y1="1525.7395" y2="1525.7395"/></g><!--class ConfigValidator--><g class="entity" data-qualified-name="ConfigValidator" data-source-line="287" id="ent0010"><rect fill="#F2F3F4" filter="url(#fsylgm32ng29l)" height="85.318" rx="4.1667" ry="4.1667" style="stroke:#7F8C8D;stroke-width:1.0417;" width="279.4779" x="543.5938" y="442.2146"/><rect fill="#D5D8DC" height="40.8" rx="4.1667" ry="4.1667" style="stroke:#D5D8DC;stroke-width:1.0417;" width="279.4779" x="543.5938" y="442.2146"/><rect fill="#D5D8DC" height="4.1667" style="stroke:#D5D8DC;stroke-width:1.0417;" width="279.4779" x="543.5938" y="478.8479"/><rect fill="none" height="85.318" rx="4.1667" ry="4.1667" style="stroke:#7F8C8D;stroke-width:1.0417;" width="279.4779" x="543.5938" y="442.2146"/><ellipse cx="620.4693" cy="462.6145" fill="#EDF0F2" rx="9.375" ry="9.375" style="stroke:#BABDBF;stroke-width:1.0417;"/><path d="M621.8299,466.5406 Q621.4382,466.742 621.0074,466.8428 Q620.5766,466.9435 620.1011,466.9435 Q618.4114,466.9435 617.5218,465.8301 Q616.6322,464.7167 616.6322,462.613 Q616.6322,460.5037 617.5218,459.3904 Q618.4114,458.277 620.1011,458.277 Q620.5766,458.277 621.013,458.3777 Q621.4494,458.4784 621.8299,458.6798 L621.8299,460.5149 Q621.4047,460.1233 621.0046,459.9415 Q620.6046,459.7596 620.1794,459.7596 Q619.273,459.7596 618.8114,460.4786 Q618.3499,461.1975 618.3499,462.613 Q618.3499,464.0229 618.8114,464.7419 Q619.273,465.4608 620.1794,465.4608 Q620.6046,465.4608 621.0046,465.279 Q621.4047,465.0971 621.8299,464.7055 Z " fill="#111111"/><text fill="#343A40" font-family="Verdana" font-size="11.4583" font-style="italic" lengthAdjust="spacing" textLength="32.8252" x="681.243" y="458.9428">&#171;util&#187;</text><text fill="#111111" font-family="'Verdana'" font-size="13.5417" font-weight="700" lengthAdjust="spacing" textLength="117.9143" x="638.6985" y="474.963">ConfigValidator</text><line style="stroke:#7F8C8D;stroke-width:1.0417;" x1="544.6354" x2="822.03" y1="483.0145" y2="483.0145"/><line style="stroke:#7F8C8D;stroke-width:1.0417;" x1="544.6354" x2="822.03" y1="491.3479" y2="491.3479"/><g data-visibility-modifier="PUBLIC_METHOD"><ellipse cx="555.0521" cy="504.0399" fill="none" rx="3.125" ry="3.125" style="stroke:#2683B9;stroke-width:1.0417;"/></g><text fill="#111111" font-family="'Verdana'" font-size="11.4583" lengthAdjust="spacing" textLength="254.4779" x="562.3438" y="507.0344">validate(config_path, real_money): List[str]</text><g data-visibility-modifier="PRIVATE_METHOD"><rect fill="none" height="6.25" style="stroke:#2683B9;stroke-width:1.0417;" width="6.25" x="551.9271" y="514.8405"/></g><text fill="#111111" font-family="'Verdana'" font-size="11.4583" lengthAdjust="spacing" textLength="203.8834" x="562.3438" y="520.9601">_real_money_checks(cfg): List[str]</text></g><!--class bootstrap--><g class="entity" data-qualified-name="bootstrap" data-source-line="291" id="ent0011"><rect fill="#F2F3F4" filter="url(#fsylgm32ng29l)" height="71.3923" rx="4.1667" ry="4.1667" style="stroke:#7F8C8D;stroke-width:1.0417;" width="132.6457" x="1075.3438" y="449.1729"/><rect fill="#D5D8DC" height="40.8" rx="4.1667" ry="4.1667" style="stroke:#D5D8DC;stroke-width:1.0417;" width="132.6457" x="1075.3438" y="449.1729"/><rect fill="#D5D8DC" height="4.1667" style="stroke:#D5D8DC;stroke-width:1.0417;" width="132.6457" x="1075.3438" y="485.8062"/><rect fill="none" height="71.3923" rx="4.1667" ry="4.1667" style="stroke:#7F8C8D;stroke-width:1.0417;" width="132.6457" x="1075.3438" y="449.1729"/><ellipse cx="1102.2954" cy="469.5729" fill="#EDF0F2" rx="9.375" ry="9.375" style="stroke:#BABDBF;stroke-width:1.0417;"/><path d="M1103.6559,473.499 Q1103.2643,473.7004 1102.8335,473.8011 Q1102.4027,473.9018 1101.9271,473.9018 Q1100.2375,473.9018 1099.3479,472.7884 Q1098.4583,471.675 1098.4583,469.5714 Q1098.4583,467.4621 1099.3479,466.3487 Q1100.2375,465.2353 1101.9271,465.2353 Q1102.4027,465.2353 1102.8391,465.336 Q1103.2755,465.4367 1103.6559,465.6381 L1103.6559,467.4733 Q1103.2307,467.0816 1102.8307,466.8998 Q1102.4307,466.718 1102.0055,466.718 Q1101.0991,466.718 1100.6375,467.4369 Q1100.1759,468.1558 1100.1759,469.5714 Q1100.1759,470.9813 1100.6375,471.7002 Q1101.0991,472.4191 1102.0055,472.4191 Q1102.4307,472.4191 1102.8307,472.2373 Q1103.2307,472.0555 1103.6559,471.6638 Z " fill="#111111"/><text fill="#343A40" font-family="Verdana" font-size="11.4583" font-style="italic" lengthAdjust="spacing" textLength="32.8252" x="1138.2023" y="465.9011">&#171;util&#187;</text><text fill="#111111" font-family="'Verdana'" font-size="13.5417" font-weight="700" lengthAdjust="spacing" textLength="73.6791" x="1117.7754" y="481.9213">bootstrap</text><line style="stroke:#7F8C8D;stroke-width:1.0417;" x1="1076.3854" x2="1206.9478" y1="489.9729" y2="489.9729"/><line style="stroke:#7F8C8D;stroke-width:1.0417;" x1="1076.3854" x2="1206.9478" y1="498.3062" y2="498.3062"/><g data-visibility-modifier="PUBLIC_METHOD"><ellipse cx="1086.8021" cy="510.9982" fill="none" rx="3.125" ry="3.125" style="stroke:#2683B9;stroke-width:1.0417;"/></g><text fill="#111111" font-family="'Verdana'" font-size="11.4583" lengthAdjust="spacing" textLength="107.6457" x="1094.0938" y="513.9927">register_defaults()</text></g><g class="entity" data-qualified-name="GMN32" data-source-line="319" id="ent0033"><path d="M71.5,640.3083 L71.5,698.0944 A4.1667,4.1667 0 0 0 75.6667,702.261 L315.9972,702.261 A4.1667,4.1667 0 0 0 320.1638,698.0944 L320.1638,646.5583 L309.7472,636.1416 L208.1875,636.1416 L231.1562,527.725 L199.8542,636.1416 L75.6667,636.1416 A4.1667,4.1667 0 0 0 71.5,640.3083" fill="none" filter="url(#fsylgm32ng29l)" style="stroke:#033C73;stroke-width:1.0417;"/><path d="M309.7472,636.1416 L309.7472,644.475 A2.0833,2.0833 0 0 0 311.8305,646.5583 L320.1638,646.5583 L309.7472,636.1416" fill="none" style="stroke:#033C73;stroke-width:1.0417;"/><text fill="#111111" font-family="'Verdana'" font-size="11.4583" lengthAdjust="spacing" textLength="70.8649" x="77.75" y="652.8699">Services are</text><text fill="#111111" font-family="'Verdana'" font-size="11.4583" font-weight="700" lengthAdjust="spacing" textLength="116.4017" x="152.6432" y="652.8699">thin orchestrators</text><text fill="#111111" font-family="'Verdana'" font-size="11.4583" lengthAdjust="spacing" textLength="5.2032" x="269.0449" y="652.8699">:</text><text fill="#111111" font-family="'Verdana'" font-size="11.4583" lengthAdjust="spacing" textLength="172.994" x="77.75" y="666.7955">factories build concrete impls,</text><text fill="#111111" font-family="'Verdana'" font-size="11.4583" lengthAdjust="spacing" textLength="180.9667" x="77.75" y="680.7212">service wires them, then hands</text><text fill="#111111" font-family="'Verdana'" font-size="11.4583" lengthAdjust="spacing" textLength="226.7888" x="77.75" y="694.6469">control to BacktestEngine / LiveEngine.</text></g><!--link bootstrap to StrategyFactory--><g class="link" data-entity-1="ent0011" data-entity-2="ent0004" data-link-type="dependency" data-source-line="295" id="lnk12"><path codeLine="295" d="M1075.0208,512.4125 C1002.7708,541.1416 890.9648,585.6027 803.7252,620.2902" fill="none" id="bootstrap-to-StrategyFactory" style="stroke:#34495E;stroke-width:1.5625;stroke-dasharray:7.2917,7.2917;"/><polygon fill="#34495E" points="798.8854,622.2146,809.1365,622.6225,803.7252,620.2902,806.0576,614.8789,798.8854,622.2146" style="stroke:#34495E;stroke-width:1.5625;stroke-linejoin:miter;stroke-miterlimit:10;"/><text fill="#111111" font-family="'Verdana'" font-size="11.4583" lengthAdjust="spacing" textLength="110.8739" x="954.5938" y="571.349">registers strategies</text></g><!--link bootstrap to RegimeFactory--><g class="link" data-entity-1="ent0011" data-entity-2="ent0006" data-link-type="dependency" data-source-line="296" id="lnk13"><path codeLine="296" d="M1126.6563,520.8083 C1092.1458,597.5896 1000.3125,783.2666 873.9583,896.1937 C841.6667,925.0583 806.7181,949.5407 772.1764,971.3219" fill="none" id="bootstrap-to-RegimeFactory" style="stroke:#34495E;stroke-width:1.5625;stroke-dasharray:7.2917,7.2917;"/><polygon fill="#34495E" points="767.7708,974.1,777.9233,972.6239,772.1764,971.3219,773.4784,965.575,767.7708,974.1" style="stroke:#34495E;stroke-width:1.5625;stroke-linejoin:miter;stroke-miterlimit:10;"/><text fill="#111111" font-family="'Verdana'" font-size="11.4583" lengthAdjust="spacing" textLength="107.8023" x="989.8125" y="776.5678">registers detectors</text></g><!--link bootstrap to NewsFactory--><g class="link" data-entity-1="ent0011" data-entity-2="ent0008" data-link-type="dependency" data-source-line="297" id="lnk14"><path codeLine="297" d="M1188.3021,520.9021 C1226.75,554.1 1275,607.7875 1275,668.1625 C1275,668.1625 1275,668.1625 1275,1173.8396 C1275,1244.5791 797.2107,1293.0467 576.0023,1311.7446" fill="none" id="bootstrap-to-NewsFactory" style="stroke:#34495E;stroke-width:1.5625;stroke-dasharray:7.2917,7.2917;"/><polygon fill="#34495E" points="570.8125,1312.1833,580.5051,1315.5456,576.0023,1311.7446,579.8032,1307.2418,570.8125,1312.1833" style="stroke:#34495E;stroke-width:1.5625;stroke-linejoin:miter;stroke-miterlimit:10;"/><text fill="#111111" font-family="'Verdana'" font-size="11.4583" lengthAdjust="spacing" textLength="107.931" x="1276.0417" y="940.0053">registers providers</text></g><!--link BacktestService to StrategyFactory--><g class="link" data-entity-1="ent0001" data-entity-2="ent0004" data-link-type="dependency" data-source-line="299" id="lnk15"><path codeLine="299" d="M557.6979,202.3708 C532.2292,218.9958 509.4063,239.7354 493.75,265.5062 C432.8542,365.7354 466.1458,426.0896 525,527.5375 C542.0625,556.9437 563.5163,580.0726 589.0059,601.9476" fill="none" id="BacktestService-to-StrategyFactory" style="stroke:#34495E;stroke-width:1.5625;"/><polygon fill="#34495E" points="592.9583,605.3396,588.5575,596.0722,589.0059,601.9476,583.1305,602.396,592.9583,605.3396" style="stroke:#34495E;stroke-width:1.5625;stroke-linejoin:miter;stroke-miterlimit:10;"/></g><!--link BacktestService to CompositeFactory--><g class="link" data-entity-1="ent0001" data-entity-2="ent0005" data-link-type="dependency" data-source-line="300" id="lnk16"><path codeLine="300" d="M915.2188,202.3708 C940.6875,218.9958 963.5104,239.7354 979.1667,265.5062 C1005.2813,308.4958 989.9063,329.5375 979.1667,378.6729 C942.2083,547.8291 919.3229,593.3187 816.6667,732.7562 C795.1771,761.9437 769.6595,786.0538 743.8366,807.2726" fill="none" id="BacktestService-to-CompositeFactory" style="stroke:#34495E;stroke-width:1.5625;"/><polygon fill="#34495E" points="739.8125,810.5791,749.7011,807.8465,743.8366,807.2726,744.4106,801.408,739.8125,810.5791" style="stroke:#34495E;stroke-width:1.5625;stroke-linejoin:miter;stroke-miterlimit:10;"/></g><!--link SweepService to StrategyFactory--><g class="link" data-entity-1="ent0002" data-entity-2="ent0004" data-link-type="dependency" data-source-line="301" id="lnk17"><path codeLine="301" d="M800.7188,379.1208 C817.2708,397.3812 832.875,418.9958 841.6667,442.2146 C855.0938,477.6833 857.2083,492.9437 841.6667,527.5375 C828.1771,557.5479 808.7094,580.3587 783.9699,601.765" fill="none" id="SweepService-to-StrategyFactory" style="stroke:#34495E;stroke-width:1.5625;"/><polygon fill="#34495E" points="780.0313,605.1729,789.8471,602.1895,783.9699,601.765,784.3944,595.8877,780.0313,605.1729" style="stroke:#34495E;stroke-width:1.5625;stroke-linejoin:miter;stroke-miterlimit:10;"/></g><!--link LiveService to StrategyFactory--><g class="link" data-entity-1="ent0003" data-entity-2="ent0004" data-link-type="dependency" data-source-line="302" id="lnk18"><path codeLine="302" d="M371.1146,527.9541 C398.4167,537.5375 426.8854,548.0687 453.125,558.7875 C490.9167,574.2146 526.6671,590.4754 562.9484,607.8504" fill="none" id="LiveService-to-StrategyFactory" style="stroke:#34495E;stroke-width:1.5625;"/><polygon fill="#34495E" points="567.6458,610.1,560.9901,602.2927,562.9484,607.8504,557.3907,609.8087,567.6458,610.1" style="stroke:#34495E;stroke-width:1.5625;stroke-linejoin:miter;stroke-miterlimit:10;"/></g><!--link LiveService to CompositeFactory--><g class="link" data-entity-1="ent0003" data-entity-2="ent0005" data-link-type="dependency" data-source-line="303" id="lnk19"><path codeLine="303" d="M351.4896,527.9229 C369.1667,536.8708 386.6979,547.1729 402.0833,558.7875 C483.1042,619.9021 479.2188,660.0271 550,732.7562 C576.3646,759.8396 603.8067,784.7792 629.4942,807.0813" fill="none" id="LiveService-to-CompositeFactory" style="stroke:#34495E;stroke-width:1.5625;"/><polygon fill="#34495E" points="633.4271,810.4958,629.0795,801.2033,629.4942,807.0813,623.6163,807.4959,633.4271,810.4958" style="stroke:#34495E;stroke-width:1.5625;stroke-linejoin:miter;stroke-miterlimit:10;"/></g><!--link LiveService to BrokerFactory--><g class="link" data-entity-1="ent0003" data-entity-2="ent0007" data-link-type="dependency" data-source-line="304" id="lnk20"><path codeLine="304" d="M296.2813,527.975 C333.1042,561.4541 375,611.9021 375,668.1625 C375,668.1625 375,668.1625 375,1024.9854 C375,1067.7041 399.265,1104.8824 423.4837,1132.6636" fill="none" id="LiveService-to-BrokerFactory" style="stroke:#34495E;stroke-width:1.5625;"/><polygon fill="#34495E" points="426.9063,1136.5896,423.8865,1126.7848,423.4837,1132.6636,417.605,1132.2609,426.9063,1136.5896" style="stroke:#34495E;stroke-width:1.5625;stroke-linejoin:miter;stroke-miterlimit:10;"/></g><!--link LiveService to NewsFactory--><g class="link" data-entity-1="ent0003" data-entity-2="ent0008" data-link-type="dependency" data-source-line="305" id="lnk21"><path codeLine="305" d="M130.8125,527.9229 C74.0208,557.3708 16.6667,603.1937 16.6667,668.1625 C16.6667,668.1625 16.6667,668.1625 16.6667,1173.8396 C16.6667,1244.6833 217.183,1286.2309 349.1414,1306.0955" fill="none" id="LiveService-to-NewsFactory" style="stroke:#34495E;stroke-width:1.5625;"/><polygon fill="#34495E" points="354.2917,1306.8708,345.6414,1301.355,349.1414,1306.0955,344.4009,1309.5955,354.2917,1306.8708" style="stroke:#34495E;stroke-width:1.5625;stroke-linejoin:miter;stroke-miterlimit:10;"/></g><!--link CompositeFactory to StrategyFactory--><g class="link" data-entity-1="ent0005" data-entity-2="ent0004" data-link-type="dependency" data-source-line="306" id="lnk22"><path codeLine="306" d="M695.0521,810.5791 C697.0833,787.5791 697.7617,763.8032 696.6263,738.1678" fill="none" id="CompositeFactory-to-StrategyFactory" style="stroke:#34495E;stroke-width:1.5625;"/><polygon fill="#34495E" points="696.3958,732.9646,692.6481,742.5147,696.6263,738.1678,700.9732,742.146,696.3958,732.9646" style="stroke:#34495E;stroke-width:1.5625;stroke-linejoin:miter;stroke-miterlimit:10;"/></g><!--link StrategyFactory to CompositeFactory--><!--link CompositeFactory to RegimeFactory--><g class="link" data-entity-1="ent0005" data-entity-2="ent0006" data-link-type="dependency" data-source-line="307" id="lnk23"><path codeLine="307" d="M671.3125,896.6208 C669.3021,920.0896 668.7737,944.2473 670.43,968.7473" fill="none" id="CompositeFactory-to-RegimeFactory" style="stroke:#34495E;stroke-width:1.5625;"/><polygon fill="#34495E" points="670.7813,973.9437,674.3061,964.309,670.43,968.7473,665.9917,964.8711,670.7813,973.9437" style="stroke:#34495E;stroke-width:1.5625;stroke-linejoin:miter;stroke-miterlimit:10;"/></g><!--link CompositeFactory to RegimeFactory--><!--link NewsFactory to NewsComponents--><g class="link" data-entity-1="ent0008" data-entity-2="ent0009" data-link-type="dependency" data-source-line="308" id="lnk24"><path codeLine="308" d="M462.5,1371.7875 C462.5,1391.6416 462.5,1409.2875 462.5,1429.1312" fill="none" id="NewsFactory-to-NewsComponents" style="stroke:#34495E;stroke-width:1.5625;"/><polygon fill="#34495E" points="462.5,1434.3396,466.6667,1424.9646,462.5,1429.1312,458.3333,1424.9646,462.5,1434.3396" style="stroke:#34495E;stroke-width:1.5625;stroke-linejoin:miter;stroke-miterlimit:10;"/></g><!--link ConfigValidator to StrategyFactory--><g class="link" data-entity-1="ent0010" data-entity-2="ent0004" data-link-type="dependency" data-source-line="309" id="lnk25"><path codeLine="309" d="M683.3333,527.725 C683.3333,550.7458 683.3333,574.5479 683.3333,600.2354" fill="none" id="ConfigValidator-to-StrategyFactory" style="stroke:#34495E;stroke-width:1.5625;stroke-dasharray:7.2917,7.2917;"/><polygon fill="#34495E" points="683.3333,605.4437,687.5,596.0687,683.3333,600.2354,679.1667,596.0687,683.3333,605.4437" style="stroke:#34495E;stroke-width:1.5625;stroke-linejoin:miter;stroke-miterlimit:10;"/></g><!--link BacktestService to SweepService--><!--link SweepService to LiveService--><!--link RegimeFactory to BrokerFactory--><!--link BrokerFactory to NewsFactory--><?plantuml-src hLVRRkCs47tNLx0eq2gExLqtIND1O20hn-W2sHQ8Yxu42u6XnZPhYXH8sbvbiK0_eb-uNz8XTR4as-aMg1-4Q7WuS-PmXffyPvUG0c6WrmAe7AYr5Ln2S6jiBc0S4AALigJyVIPJ9MsaXDBa-v7_aI-8iTmA-1VCGgjrzWlG1FHHZDdoL509n_tSlYc95I5l3N-1cz7LkDUBb0RozQ-_oM-QBS5OJIrNaZpG70E6Cz0Rpi2G7yYKCgiq1tFIww4xT30E0hFYCgEQfkIpux6aYTfokI1Mhm4D2SpfMbZ7Q8ORo6Y4HYQeCJlJMSlaM99d9HAqtccjjcKcP-VdrnVtbV7t9MSh2SQGqV0Y-DAWuJtTtfg2ztZiURsZRELqb4dfRNevYNwUkXMbKTZIEZc_YzvEq5h8lR_hVFBsR7eetDnhanyD5qtFelyUxlh-ylfWkBNbucYidwPdq_DkhClfLNJrIgp9nUHg4c6im8VmRYrMGtd-fAlegLxBsE192mXzpS0YZoLDeKyyKzCd9a_n7FjaE1oUtDGE7y5WGLGUjjmkOxO9Aunbonq0FcLAsnYz9s12xUtElLqMJXqcqrpQk5Wh8Su-Y9_NN2J8y0Kvbkvd_YLISiuNc6cHw6mBaBsUfKCSJ39UQ9vq4ttWnZuzKhc2f4ZbuuwdLLd9jSe7TN96sI8D55inDXbb41OXc9AE0FemRQG0vjerPffRq9nMgLOBKMclyttW6tWjtP1vVU92vaJdCHhxn0dXSmLfUOgFM6r08pV0QDJaadbQ6ofuWZh50iF4jMQ6pi7c8PilQfSdkrgRbR3YWib9jvq6gDa2LTNv3Kauiq_u9pAnsYjRh84EYuD9LO8tigT_KYmR9P2B3-KnIDZccRkTJfa6Z5pkxFLMMweN1jVVLvGSIA3xc6ue5_GPgnsNdUN9nwzKZLIQAODI7ylXTAvLYaSAB7GF51Hffn0dOC7Xq6ljendSRtF9XCM1VCksYjIZn_ulgYRAMaXsghQpSOeLmIObhvh3EwrMe8-gKXu07Xe6mV90J-7xOW--2uw5TbBx-XMsvdWscLORB4Tjckb4LFXJQ-LKGylaF0dKia6eeE82UdabyZ0j7ZipQLt7fn8NOwFMcW6gug0p_-BMTir39HNv2sXNQfNnhhGvP8g5o6LCap_NZZ72FdZBNMdODKzndVrHz1tUv6qsLJ-sknfp576AzFFglYgFtTL4jHJZDC1MffJYOQ_adt6-SGsUTKBMAfVVVXFwLj_1XyFnNilVa6gR8UMjWOD6PrExdfjRgdRexcXMJ1DVrqeGT3zqWy4UkuEORiS7hG_98I_Dc_TRrlSYT06jtjfRRUGUx5rFX-8V1BKq3vfwLZ4Q3TAjnGCd7Vo86mS4lnsMCog8e3cEpcJflcnkPL_hfoLF4f0V7UE6n1sz6wY6446tpfguFNtt1MYWsqAqIx69QnzA-_fhufh74qXbtT1hhKg9chSo8AGUmIaEwhsUHQs8gcTrBFfUxmPXysey9tusS2C3NcRebwUPC7qtdPTYRJb-58dx1wRldf8igKoCcy9n0DTAu4HIZslt4cyT86yyf-9b681CYACS_0C0?></g></svg>