<svg xmlns="http://www.w3.org/2000/svg" xmlns:xlink="http://www.w3.org/1999/xlink" contentStyleType="text/css" data-diagram-type="CLASS" height="972.9167px" preserveAspectRatio="none" style="width:1134px;height:972px;" version="1.1" viewBox="0 0 1134 972" width="1134.375px" zoomAndPan="magnify"><?plantuml 1.2026.5?><defs><filter height="300%" id="fi4qnndads1g4" width="300%" x="-1" y="-1"><feGaussianBlur result="blurOut" stdDeviation="2.0833"/><feColorMatrix in="blurOut" result="blurOut2" type="matrix" values="0 0 0 0 0 0 0 0 0 0 0 0 0 0 0 0 0 0 .4 0"/><feOffset dx="4.1667" dy="4.1667" in="blurOut2" result="blurOut3"/><feBlend in="SourceGraphic" in2="blurOut3" mode="normal"/></filter></defs><g><g class="title" data-source-line="884"><rect fill="none" height="35.2875" rx="4.1667" ry="4.1667" style="stroke:#BABDBF;stroke-width:1.0417;" width="507.782" x="312.5048" y="20.8333"/><text fill="#111111" font-family="'Verdana'" font-size="18.75" font-weight="700" lengthAdjust="spacing" textLength="495.282" x="318.7548" y="45.934">Backtest &#8212; Scoring &amp; Cross-Validation Pipeline</text></g><!--class BatchBacktest--><g class="entity" data-qualified-name="BatchBacktest" data-source-line="905" id="ent0001"><rect fill="#F5B7B1" filter="url(#fi4qnndads1g4)" height="111.9034" rx="4.1667" ry="4.1667" style="stroke:#C0392B;stroke-width:1.0417;" width="230.9814" x="653.2292" y="74.8708"/><rect fill="#F1948A" height="39.534" rx="4.1667" ry="4.1667" style="stroke:#F1948A;stroke-width:1.0417;" width="230.9814" x="653.2292" y="74.8708"/><rect fill="#F1948A" height="4.1667" style="stroke:#F1948A;stroke-width:1.0417;" width="230.9814" x="653.2292" y="110.2381"/><rect fill="none" height="111.9034" rx="4.1667" ry="4.1667" style="stroke:#C0392B;stroke-width:1.0417;" width="230.9814" x="653.2292" y="74.8708"/><ellipse cx="714.542" cy="94.6378" fill="#EDF0F2" rx="9.375" ry="9.375" style="stroke:#BABDBF;stroke-width:1.0417;"/><path d="M715.9026,98.5639 Q715.511,98.7653 715.0802,98.866 Q714.6494,98.9667 714.1738,98.9667 Q712.4841,98.9667 711.5945,97.8533 Q710.705,96.74 710.705,94.6363 Q710.705,92.527 711.5945,91.4136 Q712.4841,90.3002 714.1738,90.3002 Q714.6494,90.3002 715.0858,90.401 Q715.5222,90.5017 715.9026,90.7031 L715.9026,92.5382 Q715.4774,92.1466 715.0774,91.9647 Q714.6773,91.7829 714.2521,91.7829 Q713.3457,91.7829 712.8842,92.5018 Q712.4226,93.2208 712.4226,94.6363 Q712.4226,96.0462 712.8842,96.7651 Q713.3457,97.4841 714.2521,97.4841 Q714.6773,97.4841 715.0774,97.3022 Q715.4774,97.1204 715.9026,96.7288 Z " fill="#111111"/><text fill="#343A40" font-family="Verdana" font-size="11.4583" font-style="italic" lengthAdjust="spacing" textLength="46.5271" x="759.7793" y="91.599">&#171;batch&#187;</text><text fill="#111111" font-family="'Verdana'" font-size="12.5" font-weight="700" lengthAdjust="spacing" textLength="100.5432" x="732.7712" y="106.572">BatchBacktest</text><line style="stroke:#C0392B;stroke-width:1.0417;" x1="654.2708" x2="883.1689" y1="114.4048" y2="114.4048"/><g data-visibility-modifier="PRIVATE_FIELD"><rect fill="none" height="6.25" style="stroke:#2683B9;stroke-width:1.0417;" width="6.25" x="661.5625" y="123.9718"/></g><text fill="#111111" font-family="'Verdana'" font-size="11.4583" lengthAdjust="spacing" textLength="129.5497" x="671.9792" y="130.0913">config: BacktestConfig</text><g data-visibility-modifier="PRIVATE_FIELD"><rect fill="none" height="6.25" style="stroke:#2683B9;stroke-width:1.0417;" width="6.25" x="661.5625" y="137.8975"/></g><text fill="#111111" font-family="'Verdana'" font-size="11.4583" lengthAdjust="spacing" textLength="196.0114" x="671.9792" y="144.017">strategy_factory: StrategyFactory</text><g data-visibility-modifier="PRIVATE_FIELD"><rect fill="none" height="6.25" style="stroke:#2683B9;stroke-width:1.0417;" width="6.25" x="661.5625" y="151.8232"/></g><text fill="#111111" font-family="'Verdana'" font-size="11.4583" lengthAdjust="spacing" textLength="82.0938" x="671.9792" y="157.9427">scorer: Scorer</text><line style="stroke:#C0392B;stroke-width:1.0417;" x1="654.2708" x2="883.1689" y1="164.5152" y2="164.5152"/><g data-visibility-modifier="PUBLIC_METHOD"><ellipse cx="664.6875" cy="177.2072" fill="none" rx="3.125" ry="3.125" style="stroke:#2683B9;stroke-width:1.0417;"/></g><text fill="#111111" font-family="'Verdana'" font-size="11.4583" lengthAdjust="spacing" textLength="205.9814" x="671.9792" y="180.2017">run(search_space, cv): BatchResult</text></g><!--class BatchResult--><g class="entity" data-qualified-name="BatchResult" data-source-line="911" id="ent0002"><rect fill="#FEF9E7" filter="url(#fi4qnndads1g4)" height="111.9034" rx="4.1667" ry="4.1667" style="stroke:#F39C12;stroke-width:1.0417;" width="256.1976" x="17.7083" y="835.475"/><rect fill="#F9E79F" height="39.534" rx="4.1667" ry="4.1667" style="stroke:#F9E79F;stroke-width:1.0417;" width="256.1976" x="17.7083" y="835.475"/><rect fill="#F9E79F" height="4.1667" style="stroke:#F9E79F;stroke-width:1.0417;" width="256.1976" x="17.7083" y="870.8423"/><rect fill="none" height="111.9034" rx="4.1667" ry="4.1667" style="stroke:#F39C12;stroke-width:1.0417;" width="256.1976" x="17.7083" y="835.475"/><ellipse cx="99.8049" cy="855.242" fill="#EDF0F2" rx="9.375" ry="9.375" style="stroke:#BABDBF;stroke-width:1.0417;"/><path d="M101.1655,859.1681 Q100.7739,859.3695 100.3431,859.4702 Q99.9123,859.5709 99.4367,859.5709 Q97.747,859.5709 96.8575,858.4575 Q95.9679,857.3441 95.9679,855.2404 Q95.9679,853.1312 96.8575,852.0178 Q97.747,850.9044 99.4367,850.9044 Q99.9123,850.9044 100.3487,851.0051 Q100.7851,851.1058 101.1655,851.3072 L101.1655,853.1424 Q100.7403,852.7507 100.3403,852.5689 Q99.9402,852.3871 99.515,852.3871 Q98.6087,852.3871 98.1471,853.106 Q97.6855,853.8249 97.6855,855.2404 Q97.6855,856.6504 98.1471,857.3693 Q98.6087,858.0882 99.515,858.0882 Q99.9402,858.0882 100.3403,857.9064 Q100.7403,857.7246 101.1655,857.3329 Z " fill="#111111"/><text fill="#343A40" font-family="Verdana" font-size="11.4583" font-style="italic" lengthAdjust="spacing" textLength="68.1234" x="126.0684" y="852.2032">&#171;dataclass&#187;</text><text fill="#111111" font-family="'Verdana'" font-size="12.5" font-weight="700" lengthAdjust="spacing" textLength="84.1919" x="118.0341" y="867.1761">BatchResult</text><line style="stroke:#F39C12;stroke-width:1.0417;" x1="18.75" x2="272.8643" y1="875.009" y2="875.009"/><g data-visibility-modifier="PUBLIC_FIELD"><ellipse cx="29.1667" cy="887.701" fill="none" rx="3.125" ry="3.125" style="stroke:#2683B9;stroke-width:1.0417;"/></g><text fill="#111111" font-family="'Verdana'" font-size="11.4583" lengthAdjust="spacing" textLength="231.1976" x="36.4583" y="890.6955">results / scores / params_list / rankings</text><g data-visibility-modifier="PUBLIC_FIELD"><ellipse cx="29.1667" cy="901.6267" fill="none" rx="3.125" ry="3.125" style="stroke:#2683B9;stroke-width:1.0417;"/></g><text fill="#111111" font-family="'Verdana'" font-size="11.4583" lengthAdjust="spacing" textLength="163.3316" x="36.4583" y="904.6212">cv_method / cv_fold_details</text><g data-visibility-modifier="PUBLIC_FIELD"><ellipse cx="29.1667" cy="915.5523" fill="none" rx="3.125" ry="3.125" style="stroke:#2683B9;stroke-width:1.0417;"/></g><text fill="#111111" font-family="'Verdana'" font-size="11.4583" lengthAdjust="spacing" textLength="123.5184" x="36.4583" y="918.5469">selection_bias_report</text><line style="stroke:#F39C12;stroke-width:1.0417;" x1="18.75" x2="272.8643" y1="925.1193" y2="925.1193"/><g data-visibility-modifier="PUBLIC_METHOD"><ellipse cx="29.1667" cy="937.8114" fill="none" rx="3.125" ry="3.125" style="stroke:#2683B9;stroke-width:1.0417;"/></g><text fill="#111111" font-family="'Verdana'" font-size="11.4583" lengthAdjust="spacing" textLength="131.0771" x="36.4583" y="940.8059">top_k() / best_result()</text></g><!--class Scorer--><g class="entity" data-qualified-name="Scorer" data-source-line="917" id="ent0003"><rect fill="#F5B7B1" filter="url(#fi4qnndads1g4)" height="111.9034" rx="4.1667" ry="4.1667" style="stroke:#C0392B;stroke-width:1.0417;" width="200.825" x="300.6042" y="249.2666"/><rect fill="#F1948A" height="39.534" rx="4.1667" ry="4.1667" style="stroke:#F1948A;stroke-width:1.0417;" width="200.825" x="300.6042" y="249.2666"/><rect fill="#F1948A" height="4.1667" style="stroke:#F1948A;stroke-width:1.0417;" width="200.825" x="300.6042" y="284.634"/><rect fill="none" height="111.9034" rx="4.1667" ry="4.1667" style="stroke:#C0392B;stroke-width:1.0417;" width="200.825" x="300.6042" y="249.2666"/><ellipse cx="374.3382" cy="269.0336" fill="#EDF0F2" rx="9.375" ry="9.375" style="stroke:#BABDBF;stroke-width:1.0417;"/><path d="M375.6988,272.9597 Q375.3071,273.1611 374.8763,273.2619 Q374.4455,273.3626 373.97,273.3626 Q372.2803,273.3626 371.3907,272.2492 Q370.5011,271.1358 370.5011,269.0321 Q370.5011,266.9228 371.3907,265.8095 Q372.2803,264.6961 373.97,264.6961 Q374.4455,264.6961 374.8819,264.7968 Q375.3183,264.8975 375.6988,265.0989 L375.6988,266.934 Q375.2736,266.5424 374.8735,266.3606 Q374.4735,266.1787 374.0483,266.1787 Q373.1419,266.1787 372.6803,266.8977 Q372.2188,267.6166 372.2188,269.0321 Q372.2188,270.442 372.6803,271.161 Q373.1419,271.8799 374.0483,271.8799 Q374.4735,271.8799 374.8735,271.6981 Q375.2736,271.5162 375.6988,271.1246 Z " fill="#111111"/><text fill="#343A40" font-family="Verdana" font-size="11.4583" font-style="italic" lengthAdjust="spacing" textLength="46.5271" x="392.076" y="265.9949">&#171;batch&#187;</text><text fill="#111111" font-family="'Verdana'" font-size="12.5" font-weight="700" lengthAdjust="spacing" textLength="45.5444" x="392.5674" y="280.9678">Scorer</text><line style="stroke:#C0392B;stroke-width:1.0417;" x1="301.6458" x2="500.3875" y1="288.8006" y2="288.8006"/><g data-visibility-modifier="PRIVATE_FIELD"><rect fill="none" height="6.25" style="stroke:#2683B9;stroke-width:1.0417;" width="6.25" x="308.9375" y="298.3676"/></g><text fill="#111111" font-family="'Verdana'" font-size="11.4583" lengthAdjust="spacing" textLength="136.9909" x="319.3542" y="304.4872">weights: ScorerWeights</text><g data-visibility-modifier="PRIVATE_FIELD"><rect fill="none" height="6.25" style="stroke:#2683B9;stroke-width:1.0417;" width="6.25" x="308.9375" y="312.2933"/></g><text fill="#111111" font-family="'Verdana'" font-size="11.4583" lengthAdjust="spacing" textLength="146.0882" x="319.3542" y="318.4129">min_trades / min_sharpe</text><line style="stroke:#C0392B;stroke-width:1.0417;" x1="301.6458" x2="500.3875" y1="324.9853" y2="324.9853"/><g data-visibility-modifier="PUBLIC_METHOD"><ellipse cx="312.0625" cy="337.6773" fill="none" rx="3.125" ry="3.125" style="stroke:#2683B9;stroke-width:1.0417;"/></g><text fill="#111111" font-family="'Verdana'" font-size="11.4583" lengthAdjust="spacing" textLength="108.3674" x="319.3542" y="340.6719">score(result): float</text><g data-visibility-modifier="PUBLIC_METHOD"><ellipse cx="312.0625" cy="351.603" fill="none" rx="3.125" ry="3.125" style="stroke:#2683B9;stroke-width:1.0417;"/></g><text fill="#111111" font-family="'Verdana'" font-size="11.4583" lengthAdjust="spacing" textLength="175.825" x="319.3542" y="354.5976">score_breakdown(result): Dict</text></g><!--class ScorerWeights--><g class="entity" data-qualified-name="ScorerWeights" data-source-line="923" id="ent0004"><rect fill="#FEF9E7" filter="url(#fi4qnndads1g4)" height="84.052" rx="4.1667" ry="4.1667" style="stroke:#F39C12;stroke-width:1.0417;" width="230.9367" x="107.4271" y="423.6729"/><rect fill="#F9E79F" height="39.534" rx="4.1667" ry="4.1667" style="stroke:#F9E79F;stroke-width:1.0417;" width="230.9367" x="107.4271" y="423.6729"/><rect fill="#F9E79F" height="4.1667" style="stroke:#F9E79F;stroke-width:1.0417;" width="230.9367" x="107.4271" y="459.0402"/><rect fill="none" height="84.052" rx="4.1667" ry="4.1667" style="stroke:#F39C12;stroke-width:1.0417;" width="230.9367" x="107.4271" y="423.6729"/><ellipse cx="167.4999" cy="443.4399" fill="#EDF0F2" rx="9.375" ry="9.375" style="stroke:#BABDBF;stroke-width:1.0417;"/><path d="M168.8605,447.366 Q168.4689,447.5674 168.038,447.6681 Q167.6072,447.7688 167.1317,447.7688 Q165.442,447.7688 164.5524,446.6554 Q163.6628,445.542 163.6628,443.4384 Q163.6628,441.3291 164.5524,440.2157 Q165.442,439.1023 167.1317,439.1023 Q167.6072,439.1023 168.0436,439.203 Q168.48,439.3037 168.8605,439.5052 L168.8605,441.3403 Q168.4353,440.9486 168.0352,440.7668 Q167.6352,440.585 167.21,440.585 Q166.3036,440.585 165.8421,441.3039 Q165.3805,442.0229 165.3805,443.4384 Q165.3805,444.8483 165.8421,445.5672 Q166.3036,446.2862 167.21,446.2862 Q167.6352,446.2862 168.0352,446.1043 Q168.4353,445.9225 168.8605,445.5309 Z " fill="#111111"/><text fill="#343A40" font-family="Verdana" font-size="11.4583" font-style="italic" lengthAdjust="spacing" textLength="68.1234" x="203.1567" y="440.4011">&#171;dataclass&#187;</text><text fill="#111111" font-family="'Verdana'" font-size="12.5" font-weight="700" lengthAdjust="spacing" textLength="102.9785" x="185.7291" y="455.374">ScorerWeights</text><line style="stroke:#F39C12;stroke-width:1.0417;" x1="108.4688" x2="337.3221" y1="463.2069" y2="463.2069"/><g data-visibility-modifier="PUBLIC_FIELD"><ellipse cx="118.8854" cy="475.8989" fill="none" rx="3.125" ry="3.125" style="stroke:#2683B9;stroke-width:1.0417;"/></g><text fill="#111111" font-family="'Verdana'" font-size="11.4583" lengthAdjust="spacing" textLength="205.9367" x="126.1771" y="478.8934">sharpe / max_drawdown / turnover</text><g data-visibility-modifier="PUBLIC_FIELD"><ellipse cx="118.8854" cy="489.8246" fill="none" rx="3.125" ry="3.125" style="stroke:#2683B9;stroke-width:1.0417;"/></g><text fill="#111111" font-family="'Verdana'" font-size="11.4583" lengthAdjust="spacing" textLength="144.9804" x="126.1771" y="492.8191">costs / win_rate / calmar</text><line style="stroke:#F39C12;stroke-width:1.0417;" x1="108.4688" x2="337.3221" y1="499.3916" y2="499.3916"/></g><!--class SearchSpace--><g class="entity" data-qualified-name="SearchSpace" data-source-line="927" id="ent0005"><rect fill="#F5B7B1" filter="url(#fi4qnndads1g4)" height="84.052" rx="4.1667" ry="4.1667" style="stroke:#C0392B;stroke-width:1.0417;" width="138.5539" x="537.9896" y="263.1937"/><rect fill="#F1948A" height="39.534" rx="4.1667" ry="4.1667" style="stroke:#F1948A;stroke-width:1.0417;" width="138.5539" x="537.9896" y="263.1937"/><rect fill="#F1948A" height="4.1667" style="stroke:#F1948A;stroke-width:1.0417;" width="138.5539" x="537.9896" y="298.5611"/><rect fill="none" height="84.052" rx="4.1667" ry="4.1667" style="stroke:#C0392B;stroke-width:1.0417;" width="138.5539" x="537.9896" y="263.1937"/><ellipse cx="560.4219" cy="282.9607" fill="#EDF0F2" rx="9.375" ry="9.375" style="stroke:#BABDBF;stroke-width:1.0417;"/><path d="M561.7825,286.8868 Q561.3909,287.0882 560.9601,287.1889 Q560.5293,287.2896 560.0537,287.2896 Q558.364,287.2896 557.4744,286.1763 Q556.5849,285.0629 556.5849,282.9592 Q556.5849,280.8499 557.4744,279.7365 Q558.364,278.6232 560.0537,278.6232 Q560.5293,278.6232 560.9657,278.7239 Q561.4021,278.8246 561.7825,279.026 L561.7825,280.8611 Q561.3573,280.4695 560.9573,280.2876 Q560.5572,280.1058 560.132,280.1058 Q559.2256,280.1058 558.7641,280.8247 Q558.3025,281.5437 558.3025,282.9592 Q558.3025,284.3691 558.7641,285.0881 Q559.2256,285.807 560.132,285.807 Q560.5572,285.807 560.9573,285.6252 Q561.3573,285.4433 561.7825,285.0517 Z " fill="#111111"/><text fill="#343A40" font-family="Verdana" font-size="11.4583" font-style="italic" lengthAdjust="spacing" textLength="46.5271" x="596.4492" y="279.9219">&#171;batch&#187;</text><text fill="#111111" font-family="'Verdana'" font-size="12.5" font-weight="700" lengthAdjust="spacing" textLength="89.6301" x="574.8976" y="294.8949">SearchSpace</text><line style="stroke:#C0392B;stroke-width:1.0417;" x1="539.0313" x2="675.5018" y1="302.7277" y2="302.7277"/><line style="stroke:#C0392B;stroke-width:1.0417;" x1="539.0313" x2="675.5018" y1="311.0611" y2="311.0611"/><g data-visibility-modifier="PUBLIC_METHOD"><ellipse cx="549.4479" cy="323.7531" fill="none" rx="3.125" ry="3.125" style="stroke:#2683B9;stroke-width:1.0417;"/></g><text fill="#111111" font-family="'Verdana'" font-size="11.4583" lengthAdjust="spacing" textLength="113.5539" x="556.7396" y="326.7476">add(param, values)</text><g data-visibility-modifier="PUBLIC_METHOD"><ellipse cx="549.4479" cy="337.6787" fill="none" rx="3.125" ry="3.125" style="stroke:#2683B9;stroke-width:1.0417;"/></g><text fill="#111111" font-family="'Verdana'" font-size="11.4583" lengthAdjust="spacing" textLength="107.4722" x="556.7396" y="340.6733">add_constraint(fn)</text></g><!--class ParameterGrid--><g class="entity" data-qualified-name="ParameterGrid" data-source-line="931" id="ent0006"><rect fill="#F5B7B1" filter="url(#fi4qnndads1g4)" height="70.1263" rx="4.1667" ry="4.1667" style="stroke:#C0392B;stroke-width:1.0417;" width="132.3405" x="618.1771" y="430.6312"/><rect fill="#F1948A" height="39.534" rx="4.1667" ry="4.1667" style="stroke:#F1948A;stroke-width:1.0417;" width="132.3405" x="618.1771" y="430.6312"/><rect fill="#F1948A" height="4.1667" style="stroke:#F1948A;stroke-width:1.0417;" width="132.3405" x="618.1771" y="465.9986"/><rect fill="none" height="70.1263" rx="4.1667" ry="4.1667" style="stroke:#C0392B;stroke-width:1.0417;" width="132.3405" x="618.1771" y="430.6312"/><ellipse cx="631.7188" cy="450.3982" fill="#EDF0F2" rx="9.375" ry="9.375" style="stroke:#BABDBF;stroke-width:1.0417;"/><path d="M633.0793,454.3243 Q632.6877,454.5257 632.2569,454.6264 Q631.8261,454.7271 631.3505,454.7271 Q629.6608,454.7271 628.7713,453.6138 Q627.8817,452.5004 627.8817,450.3967 Q627.8817,448.2874 628.7713,447.174 Q629.6608,446.0607 631.3505,446.0607 Q631.8261,446.0607 632.2625,446.1614 Q632.6989,446.2621 633.0793,446.4635 L633.0793,448.2986 Q632.6541,447.907 632.2541,447.7251 Q631.854,447.5433 631.4288,447.5433 Q630.5225,447.5433 630.0609,448.2622 Q629.5993,448.9812 629.5993,450.3967 Q629.5993,451.8066 630.0609,452.5256 Q630.5225,453.2445 631.4288,453.2445 Q631.854,453.2445 632.2541,453.0627 Q632.6541,452.8808 633.0793,452.4892 Z " fill="#111111"/><text fill="#343A40" font-family="Verdana" font-size="11.4583" font-style="italic" lengthAdjust="spacing" textLength="46.5271" x="672.5421" y="447.3594">&#171;batch&#187;</text><text fill="#111111" font-family="'Verdana'" font-size="12.5" font-weight="700" lengthAdjust="spacing" textLength="103.1738" x="644.2188" y="462.3324">ParameterGrid</text><line style="stroke:#C0392B;stroke-width:1.0417;" x1="619.2188" x2="749.4759" y1="470.1652" y2="470.1652"/><line style="stroke:#C0392B;stroke-width:1.0417;" x1="619.2188" x2="749.4759" y1="478.4986" y2="478.4986"/><g data-visibility-modifier="PUBLIC_METHOD"><ellipse cx="629.6354" cy="491.1906" fill="none" rx="3.125" ry="3.125" style="stroke:#2683B9;stroke-width:1.0417;"/></g><text fill="#111111" font-family="'Verdana'" font-size="11.4583" lengthAdjust="spacing" textLength="96.1706" x="636.9271" y="494.1851">from_ranges(...)</text></g><!--class Selector--><g class="entity" data-qualified-name="Selector" data-source-line="934" id="ent0007"><rect fill="#F5B7B1" filter="url(#fi4qnndads1g4)" height="70.1263" rx="4.1667" ry="4.1667" style="stroke:#C0392B;stroke-width:1.0417;" width="267.1412" x="328.9063" y="702.85"/><rect fill="#F1948A" height="39.534" rx="4.1667" ry="4.1667" style="stroke:#F1948A;stroke-width:1.0417;" width="267.1412" x="328.9063" y="702.85"/><rect fill="#F1948A" height="4.1667" style="stroke:#F1948A;stroke-width:1.0417;" width="267.1412" x="328.9063" y="738.2173"/><rect fill="none" height="70.1263" rx="4.1667" ry="4.1667" style="stroke:#C0392B;stroke-width:1.0417;" width="267.1412" x="328.9063" y="702.85"/><ellipse cx="429.7712" cy="722.617" fill="#EDF0F2" rx="9.375" ry="9.375" style="stroke:#BABDBF;stroke-width:1.0417;"/><path d="M431.1317,726.5431 Q430.7401,726.7445 430.3093,726.8452 Q429.8785,726.9459 429.4029,726.9459 Q427.7133,726.9459 426.8237,725.8325 Q425.9341,724.7191 425.9341,722.6154 Q425.9341,720.5062 426.8237,719.3928 Q427.7133,718.2794 429.4029,718.2794 Q429.8785,718.2794 430.3149,718.3801 Q430.7513,718.4808 431.1317,718.6822 L431.1317,720.5174 Q430.7065,720.1257 430.3065,719.9439 Q429.9065,719.7621 429.4813,719.7621 Q428.5749,719.7621 428.1133,720.481 Q427.6517,721.1999 427.6517,722.6154 Q427.6517,724.0254 428.1133,724.7443 Q428.5749,725.4632 429.4813,725.4632 Q429.9065,725.4632 430.3065,725.2814 Q430.7065,725.0996 431.1317,724.7079 Z " fill="#111111"/><text fill="#343A40" font-family="Verdana" font-size="11.4583" font-style="italic" lengthAdjust="spacing" textLength="46.5271" x="453.5362" y="719.5782">&#171;batch&#187;</text><text fill="#111111" font-family="'Verdana'" font-size="12.5" font-weight="700" lengthAdjust="spacing" textLength="57.5989" x="448.0003" y="734.5511">Selector</text><line style="stroke:#C0392B;stroke-width:1.0417;" x1="329.9479" x2="595.0058" y1="742.384" y2="742.384"/><line style="stroke:#C0392B;stroke-width:1.0417;" x1="329.9479" x2="595.0058" y1="750.7173" y2="750.7173"/><g data-visibility-modifier="PUBLIC_METHOD"><ellipse cx="340.3646" cy="763.4093" fill="none" rx="3.125" ry="3.125" style="stroke:#2683B9;stroke-width:1.0417;"/></g><text fill="#111111" font-family="'Verdana'" font-size="11.4583" lengthAdjust="spacing" textLength="242.1412" x="347.6563" y="766.4038">filter(results, criteria): List[RankedResult]</text></g><!--class BacktestRunner--><g class="entity" data-qualified-name="BacktestRunner" data-source-line="937" id="ent0008"><rect fill="#F5B7B1" filter="url(#fi4qnndads1g4)" height="70.1263" rx="4.1667" ry="4.1667" style="stroke:#C0392B;stroke-width:1.0417;" width="314.7257" x="526.9896" y="570.225"/><rect fill="#F1948A" height="39.534" rx="4.1667" ry="4.1667" style="stroke:#F1948A;stroke-width:1.0417;" width="314.7257" x="526.9896" y="570.225"/><rect fill="#F1948A" height="4.1667" style="stroke:#F1948A;stroke-width:1.0417;" width="314.7257" x="526.9896" y="605.5923"/><rect fill="none" height="70.1263" rx="4.1667" ry="4.1667" style="stroke:#C0392B;stroke-width:1.0417;" width="314.7257" x="526.9896" y="570.225"/><ellipse cx="624.5838" cy="589.992" fill="#EDF0F2" rx="9.375" ry="9.375" style="stroke:#BABDBF;stroke-width:1.0417;"/><path d="M625.9444,593.9181 Q625.5527,594.1195 625.1219,594.2202 Q624.6911,594.3209 624.2155,594.3209 Q622.5259,594.3209 621.6363,593.2075 Q620.7467,592.0941 620.7467,589.9904 Q620.7467,587.8812 621.6363,586.7678 Q622.5259,585.6544 624.2155,585.6544 Q624.6911,585.6544 625.1275,585.7551 Q625.5639,585.8558 625.9444,586.0572 L625.9444,587.8924 Q625.5191,587.5007 625.1191,587.3189 Q624.7191,587.1371 624.2939,587.1371 Q623.3875,587.1371 622.9259,587.856 Q622.4643,588.5749 622.4643,589.9904 Q622.4643,591.4004 622.9259,592.1193 Q623.3875,592.8382 624.2939,592.8382 Q624.7191,592.8382 625.1191,592.6564 Q625.5191,592.4746 625.9444,592.0829 Z " fill="#111111"/><text fill="#343A40" font-family="Verdana" font-size="11.4583" font-style="italic" lengthAdjust="spacing" textLength="46.5271" x="675.4118" y="586.9532">&#171;batch&#187;</text><text fill="#111111" font-family="'Verdana'" font-size="12.5" font-weight="700" lengthAdjust="spacing" textLength="111.7249" x="642.8129" y="601.9261">BacktestRunner</text><line style="stroke:#C0392B;stroke-width:1.0417;" x1="528.0313" x2="840.6737" y1="609.759" y2="609.759"/><line style="stroke:#C0392B;stroke-width:1.0417;" x1="528.0313" x2="840.6737" y1="618.0923" y2="618.0923"/><g data-visibility-modifier="PUBLIC_METHOD"><ellipse cx="538.4479" cy="630.7843" fill="none" rx="3.125" ry="3.125" style="stroke:#2683B9;stroke-width:1.0417;"/></g><text fill="#111111" font-family="'Verdana'" font-size="11.4583" lengthAdjust="spacing" textLength="289.7257" x="545.7396" y="633.7788">run_once(factory, params, name): BacktestResult</text></g><!--class PurgedKFold--><g class="entity" data-qualified-name="PurgedKFold" data-source-line="941" id="ent0009"><rect fill="#F5B7B1" filter="url(#fi4qnndads1g4)" height="56.2007" rx="4.1667" ry="4.1667" style="stroke:#C0392B;stroke-width:1.0417;" width="118.5893" x="861.5104" y="277.1208"/><rect fill="#F1948A" height="39.534" rx="4.1667" ry="4.1667" style="stroke:#F1948A;stroke-width:1.0417;" width="118.5893" x="861.5104" y="277.1208"/><rect fill="#F1948A" height="4.1667" style="stroke:#F1948A;stroke-width:1.0417;" width="118.5893" x="861.5104" y="312.4881"/><rect fill="none" height="56.2007" rx="4.1667" ry="4.1667" style="stroke:#C0392B;stroke-width:1.0417;" width="118.5893" x="861.5104" y="277.1208"/><ellipse cx="875.0521" cy="296.8878" fill="#EDF0F2" rx="9.375" ry="9.375" style="stroke:#BABDBF;stroke-width:1.0417;"/><path d="M876.4127,300.8139 Q876.021,301.0153 875.5902,301.116 Q875.1594,301.2167 874.6838,301.2167 Q872.9942,301.2167 872.1046,300.1033 Q871.215,298.99 871.215,296.8863 Q871.215,294.777 872.1046,293.6636 Q872.9942,292.5502 874.6838,292.5502 Q875.1594,292.5502 875.5958,292.651 Q876.0322,292.7517 876.4127,292.9531 L876.4127,294.7882 Q875.9874,294.3966 875.5874,294.2147 Q875.1874,294.0329 874.7622,294.0329 Q873.8558,294.0329 873.3942,294.7518 Q872.9326,295.4708 872.9326,296.8863 Q872.9326,298.2962 873.3942,299.0151 Q873.8558,299.7341 874.7622,299.7341 Q875.1874,299.7341 875.5874,299.5522 Q875.9874,299.3704 876.4127,298.9788 Z " fill="#111111"/><text fill="#343A40" font-family="Verdana" font-size="11.4583" font-style="italic" lengthAdjust="spacing" textLength="46.5271" x="908.9998" y="293.849">&#171;batch&#187;</text><text fill="#111111" font-family="'Verdana'" font-size="12.5" font-weight="700" lengthAdjust="spacing" textLength="89.4226" x="887.5521" y="308.822">PurgedKFold</text><line style="stroke:#C0392B;stroke-width:1.0417;" x1="862.5521" x2="979.058" y1="316.6548" y2="316.6548"/><line style="stroke:#C0392B;stroke-width:1.0417;" x1="862.5521" x2="979.058" y1="324.9881" y2="324.9881"/></g><!--class WalkForward--><g class="entity" data-qualified-name="WalkForward" data-source-line="942" id="ent0010"><rect fill="#F5B7B1" filter="url(#fi4qnndads1g4)" height="56.2007" rx="4.1667" ry="4.1667" style="stroke:#C0392B;stroke-width:1.0417;" width="122.7519" x="931.3021" y="437.6"/><rect fill="#F1948A" height="39.534" rx="4.1667" ry="4.1667" style="stroke:#F1948A;stroke-width:1.0417;" width="122.7519" x="931.3021" y="437.6"/><rect fill="#F1948A" height="4.1667" style="stroke:#F1948A;stroke-width:1.0417;" width="122.7519" x="931.3021" y="472.9673"/><rect fill="none" height="56.2007" rx="4.1667" ry="4.1667" style="stroke:#C0392B;stroke-width:1.0417;" width="122.7519" x="931.3021" y="437.6"/><ellipse cx="944.8438" cy="457.367" fill="#EDF0F2" rx="9.375" ry="9.375" style="stroke:#BABDBF;stroke-width:1.0417;"/><path d="M946.2043,461.2931 Q945.8127,461.4945 945.3819,461.5952 Q944.9511,461.6959 944.4755,461.6959 Q942.7858,461.6959 941.8963,460.5825 Q941.0067,459.4691 941.0067,457.3654 Q941.0067,455.2562 941.8963,454.1428 Q942.7858,453.0294 944.4755,453.0294 Q944.9511,453.0294 945.3875,453.1301 Q945.8239,453.2308 946.2043,453.4322 L946.2043,455.2674 Q945.7791,454.8757 945.3791,454.6939 Q944.979,454.5121 944.5538,454.5121 Q943.6475,454.5121 943.1859,455.231 Q942.7243,455.9499 942.7243,457.3654 Q942.7243,458.7754 943.1859,459.4943 Q943.6475,460.2132 944.5538,460.2132 Q944.979,460.2132 945.3791,460.0314 Q945.7791,459.8496 946.2043,459.4579 Z " fill="#111111"/><text fill="#343A40" font-family="Verdana" font-size="11.4583" font-style="italic" lengthAdjust="spacing" textLength="46.5271" x="980.8728" y="454.3282">&#171;batch&#187;</text><text fill="#111111" font-family="'Verdana'" font-size="12.5" font-weight="700" lengthAdjust="spacing" textLength="93.5852" x="957.3438" y="469.3011">WalkForward</text><line style="stroke:#C0392B;stroke-width:1.0417;" x1="932.3438" x2="1053.0123" y1="477.134" y2="477.134"/><line style="stroke:#C0392B;stroke-width:1.0417;" x1="932.3438" x2="1053.0123" y1="485.4673" y2="485.4673"/></g><!--class CPCV--><g class="entity" data-qualified-name="CPCV" data-source-line="943" id="ent0011"><rect fill="#F5B7B1" filter="url(#fi4qnndads1g4)" height="56.2007" rx="4.1667" ry="4.1667" style="stroke:#C0392B;stroke-width:1.0417;" width="71.5271" x="1015.25" y="577.1833"/><rect fill="#F1948A" height="39.534" rx="4.1667" ry="4.1667" style="stroke:#F1948A;stroke-width:1.0417;" width="71.5271" x="1015.25" y="577.1833"/><rect fill="#F1948A" height="4.1667" style="stroke:#F1948A;stroke-width:1.0417;" width="71.5271" x="1015.25" y="612.5506"/><rect fill="none" height="56.2007" rx="4.1667" ry="4.1667" style="stroke:#C0392B;stroke-width:1.0417;" width="71.5271" x="1015.25" y="577.1833"/><ellipse cx="1028.7917" cy="596.9503" fill="#EDF0F2" rx="9.375" ry="9.375" style="stroke:#BABDBF;stroke-width:1.0417;"/><path d="M1030.1522,600.8764 Q1029.7606,601.0778 1029.3298,601.1785 Q1028.899,601.2792 1028.4234,601.2792 Q1026.7338,601.2792 1025.8442,600.1658 Q1024.9546,599.0525 1024.9546,596.9488 Q1024.9546,594.8395 1025.8442,593.7261 Q1026.7338,592.6127 1028.4234,592.6127 Q1028.899,592.6127 1029.3354,592.7135 Q1029.7718,592.8142 1030.1522,593.0156 L1030.1522,594.8507 Q1029.727,594.4591 1029.327,594.2772 Q1028.927,594.0954 1028.5017,594.0954 Q1027.5954,594.0954 1027.1338,594.8143 Q1026.6722,595.5333 1026.6722,596.9488 Q1026.6722,598.3587 1027.1338,599.0776 Q1027.5954,599.7966 1028.5017,599.7966 Q1028.927,599.7966 1029.327,599.6147 Q1029.727,599.4329 1030.1522,599.0413 Z " fill="#111111"/><text fill="#343A40" font-family="Verdana" font-size="11.4583" font-style="italic" lengthAdjust="spacing" textLength="46.5271" x="1039.2083" y="593.9115">&#171;batch&#187;</text><text fill="#111111" font-family="'Verdana'" font-size="12.5" font-weight="700" lengthAdjust="spacing" textLength="36.7981" x="1044.0728" y="608.8845">CPCV</text><line style="stroke:#C0392B;stroke-width:1.0417;" x1="1016.2917" x2="1085.7354" y1="616.7173" y2="616.7173"/><line style="stroke:#C0392B;stroke-width:1.0417;" x1="1016.2917" x2="1085.7354" y1="625.0506" y2="625.0506"/></g><g class="entity" data-qualified-name="GMN27" data-source-line="963" id="ent0028"><path d="M374.9167,443.7666 L374.9167,487.627 A4.1667,4.1667 0 0 0 379.0833,491.7937 L577.1221,491.7937 A4.1667,4.1667 0 0 0 581.2887,487.627 L581.2887,450.0166 L570.8721,439.6 L469.8958,439.6 L427.9792,361.6625 L461.5625,439.6 L379.0833,439.6 A4.1667,4.1667 0 0 0 374.9167,443.7666" fill="none" filter="url(#fi4qnndads1g4)" style="stroke:#033C73;stroke-width:1.0417;"/><path d="M570.8721,439.6 L570.8721,447.9333 A2.0833,2.0833 0 0 0 572.9554,450.0166 L581.2887,450.0166 L570.8721,439.6" fill="none" style="stroke:#033C73;stroke-width:1.0417;"/><text fill="#111111" font-family="'Verdana'" font-size="11.4583" lengthAdjust="spacing" textLength="184.4971" x="381.1667" y="456.3282">AFML-aware: deflated Sharpe +</text><text fill="#111111" font-family="'Verdana'" font-size="11.4583" lengthAdjust="spacing" textLength="147.1344" x="381.1667" y="470.2539">selection-bias warning on</text><text fill="#111111" font-family="'Verdana'" font-size="11.4583" lengthAdjust="spacing" textLength="171.3043" x="381.1667" y="484.1795">multi-trial parameter sweeps.</text></g><!--link BatchBacktest to Scorer--><g class="link" data-entity-1="ent0001" data-entity-2="ent0003" data-link-type="dependency" data-source-line="945" id="lnk12"><path codeLine="945" d="M652.8854,186.1416 C604.3646,208.8812 553.1952,232.8583 506.4139,254.7854" fill="none" id="BatchBacktest-to-Scorer" style="stroke:#34495E;stroke-width:1.4583;"/><polygon fill="#34495E" points="501.6979,256.9958,511.9551,256.7898,506.4139,254.7854,508.4183,249.2442,501.6979,256.9958" style="stroke:#34495E;stroke-width:1.4583;stroke-linejoin:miter;stroke-miterlimit:10;"/></g><!--link BatchBacktest to SearchSpace--><g class="link" data-entity-1="ent0001" data-entity-2="ent0005" data-link-type="dependency" data-source-line="946" id="lnk13"><path codeLine="946" d="M717.1979,186.8604 C694.125,211.4854 670.9359,236.2262 649.6026,258.997" fill="none" id="BatchBacktest-to-SearchSpace" style="stroke:#34495E;stroke-width:1.4583;"/><polygon fill="#34495E" points="646.0417,262.7979,655.492,258.8051,649.6026,258.997,649.4106,253.1076,646.0417,262.7979" style="stroke:#34495E;stroke-width:1.4583;stroke-linejoin:miter;stroke-miterlimit:10;"/></g><!--link BatchBacktest to ParameterGrid--><g class="link" data-entity-1="ent0001" data-entity-2="ent0006" data-link-type="dependency" data-source-line="947" id="lnk14"><path codeLine="947" d="M754.6979,187.1833 C737.1667,256.3187 708.9881,367.4576 694.3839,425.0721" fill="none" id="BatchBacktest-to-ParameterGrid" style="stroke:#34495E;stroke-width:1.4583;stroke-dasharray:7.2917,7.2917;"/><polygon fill="#34495E" points="693.1042,430.1208,699.4466,422.057,694.3839,425.0721,691.3688,420.0094,693.1042,430.1208" style="stroke:#34495E;stroke-width:1.4583;stroke-linejoin:miter;stroke-miterlimit:10;"/></g><!--link BatchBacktest to BatchResult--><g class="link" data-entity-1="ent0001" data-entity-2="ent0002" data-link-type="dependency" data-source-line="948" id="lnk15"><path codeLine="948" d="M652.7813,134.7041 C449.9479,146.4958 52.0521,202.9854 52.0521,464.6625 C52.0521,464.6625 52.0521,464.6625 52.0521,606.3291 C52.0521,689.1625 86.156,774.3709 113.5935,830.3605" fill="none" id="BatchBacktest-to-BatchResult" style="stroke:#34495E;stroke-width:1.4583;"/><polygon fill="#34495E" points="115.8854,835.0375,115.5015,824.7854,113.5935,830.3605,108.0184,828.4525,115.8854,835.0375" style="stroke:#34495E;stroke-width:1.4583;stroke-linejoin:miter;stroke-miterlimit:10;"/></g><!--link BatchBacktest to PurgedKFold--><g class="link" data-entity-1="ent0001" data-entity-2="ent0009" data-link-type="dependency" data-source-line="949" id="lnk16"><path codeLine="949" d="M817.2604,186.8604 C843.6875,216.7979 871.7934,248.6427 893.0642,272.7469" fill="none" id="BatchBacktest-to-PurgedKFold" style="stroke:#34495E;stroke-width:1.4583;stroke-dasharray:7.2917,7.2917;"/><polygon fill="#34495E" points="896.5104,276.6521,893.4315,266.8657,893.0642,272.7469,887.1831,272.3796,896.5104,276.6521" style="stroke:#34495E;stroke-width:1.4583;stroke-linejoin:miter;stroke-miterlimit:10;"/></g><!--link BatchBacktest to WalkForward--><g class="link" data-entity-1="ent0001" data-entity-2="ent0010" data-link-type="dependency" data-source-line="950" id="lnk17"><path codeLine="950" d="M884.6979,162.9125 C927.9896,180.7458 972.7083,208.0791 997.8854,249.2666 C1033.8854,308.1521 1016.8078,389.0547 1003.6099,432.4297" fill="none" id="BatchBacktest-to-WalkForward" style="stroke:#34495E;stroke-width:1.4583;stroke-dasharray:7.2917,7.2917;"/><polygon fill="#34495E" points="1002.0938,437.4125,1008.809,429.6564,1003.6099,432.4297,1000.8366,427.2306,1002.0938,437.4125" style="stroke:#34495E;stroke-width:1.4583;stroke-linejoin:miter;stroke-miterlimit:10;"/></g><!--link BatchBacktest to CPCV--><g class="link" data-entity-1="ent0001" data-entity-2="ent0011" data-link-type="dependency" data-source-line="951" id="lnk18"><path codeLine="951" d="M884.5521,156.8916 C937.9583,174.2041 997.7292,202.7979 1035.3854,249.2666 C1114.0417,346.3187 1079.4661,506.934 1060.987,571.9236" fill="none" id="BatchBacktest-to-CPCV" style="stroke:#34495E;stroke-width:1.4583;stroke-dasharray:7.2917,7.2917;"/><polygon fill="#34495E" points="1059.5625,576.9333,1066.1344,569.0553,1060.987,571.9236,1058.1188,566.7762,1059.5625,576.9333" style="stroke:#34495E;stroke-width:1.4583;stroke-linejoin:miter;stroke-miterlimit:10;"/></g><!--link BatchBacktest to BacktestRunner--><g class="link" data-entity-1="ent0001" data-entity-2="ent0008" data-link-type="dependency" data-source-line="952" id="lnk19"><path codeLine="952" d="M780.4896,187.2146 C793.9167,262.4854 809.1458,400.0583 768.7188,507.725 C759.8021,531.475 745.7857,549.5408 728.8899,566.3533" fill="none" id="BatchBacktest-to-BacktestRunner" style="stroke:#34495E;stroke-width:1.4583;"/><polygon fill="#34495E" points="725.1979,570.0271,734.7824,566.3679,728.8899,566.3533,728.9044,560.4608,725.1979,570.0271" style="stroke:#34495E;stroke-width:1.4583;stroke-linejoin:miter;stroke-miterlimit:10;"/></g><!--link Scorer to ScorerWeights--><g class="link" data-entity-1="ent0003" data-entity-2="ent0004" data-link-type="dependency" data-source-line="953" id="lnk20"><path codeLine="953" d="M338.7188,361.6625 C315.9375,381.9125 294.4859,400.9932 273.3296,419.8057" fill="none" id="Scorer-to-ScorerWeights" style="stroke:#34495E;stroke-width:1.4583;"/><polygon fill="#34495E" points="269.4375,423.2666,279.2121,420.1506,273.3296,419.8057,273.6746,413.9232,269.4375,423.2666" style="stroke:#34495E;stroke-width:1.4583;stroke-linejoin:miter;stroke-miterlimit:10;"/></g><!--link Selector to BatchResult--><g class="link" data-entity-1="ent0007" data-entity-2="ent0002" data-link-type="dependency" data-source-line="954" id="lnk21"><path codeLine="954" d="M390.6146,773.3187 C352.4792,791.5583 309.3862,812.1656 266.1675,832.8323" fill="none" id="Selector-to-BatchResult" style="stroke:#34495E;stroke-width:1.4583;stroke-dasharray:7.2917,7.2917;"/><polygon fill="#34495E" points="261.4688,835.0791,271.724,834.7938,266.1675,832.8323,268.129,827.2758,261.4688,835.0791" style="stroke:#34495E;stroke-width:1.4583;stroke-linejoin:miter;stroke-miterlimit:10;"/></g><!--link PurgedKFold to WalkForward--><!--link WalkForward to CPCV--><!--link SearchSpace to ParameterGrid--><!--link ParameterGrid to BacktestRunner--><!--link BacktestRunner to Selector--><?plantuml-src XLNRRjiu47tNLx1Oe6idaLCdALeRXe7O6ss1Te4WNhGFHI7GujWYJ976a8etBGhq8_g5_P8TKh8bNuBgIPePpfmvSqPyuN8eW6M0fGAkOrCw9JL48-kU58mZnj0On-hd6qkCTbEZ3B8_-k5Xtod6IQVWDp5BDENw7N01-6oCtSX2SGtFvnbTri2gaYChlyAm_tPyTZRXsSg1TUpNZvzibXcKUibUiYaQQ-EFN4d1dJIQtSir-1RFpYWNdHv7aLr9lUR82_RDWyYvC1j_sc49P12muALo7iwC3h1-duoPujOsfgizauV8vaO9ijuYcatTnlNDpU3rtTRuRowpbGPhMRzt4trlmGYPHgCvTra-7WTKlZrFeHPrhkJrvCt48vaO94vhw_JLzU1gGjQAwUDJ_S7DszjJnOWU7bwVBNYN3ExU71PChWVJqFrp1UdC8A62KKXEQQcdtQpsUumpenToEMHR_pHyUuzro1qidz85pvp1fo6RrPQaCeGWcZhWC4mVa2pdMEgE1OvPdjerp-22PO_TOGNY0InDbP2rW5KsTip6EGQFPPSiLF4lWJwRAacDN3BacYXTMX-SFQO5kDm8ijFxWfIG2d1Sgk2se23pOapdajiKOMtGUOSpwtJLwTAfENMVLZKxtHt6gh53rZOWbxcpsxu_LP_UKqYT4aqYmFKVf6rSGy3WOpjL1M9aeGntEtiwH-0hsWBTHFmbCtS0fAvqYgwgaA_A_qi5yerFHf-kH6qUg-5anWP2QTTIFqjF5bS5nwPC6DtCJ-wWwNCkH2SCu88zSbM2xTRMb4JarIArwonqmzsz3mO7-3TASPXjWQOW37e9jjFhzLgCXr4PF3eW5QMgsR4aAvJqBJaHzO7qyFc1r02YajENbiOgNJ-KMX_DqOirDJg3JgtnYrfX5qmJycwp5ZlbRbihSGdYVK8oQtBMlazShHA36ux7lkdzz6FB6EtlPXoFjvjqmj5Cvi3RwuttkJvnkhr_9qutxPpmjXewuVKjdIpO9ZwgzwZfSBipkt7xN6sKVr9mp4YuJf96cU9FT5Eod4HclITgZo3-d4iXG7-9zz6sHz6E2PZRKcyxzwdS5t4xxg330wMr8xSzHf4spbzJpfc2cKNpsxnD_laGSy89Gt_vATfDmMRLHf_x6tBx_uhz_ujHeFRNfT7aAuWj6JjQ1LN9rwEbYnrWRNiHQC5yrUX_?></g></svg>