<svg xmlns="http://www.w3.org/2000/svg" xmlns:xlink="http://www.w3.org/1999/xlink" contentStyleType="text/css" data-diagram-type="CLASS" height="1782.2917px" preserveAspectRatio="none" style="width:960px;height:1782px;" version="1.1" viewBox="0 0 960 1782" width="960.4167px" zoomAndPan="magnify"><?plantuml 1.2026.5?><defs><filter height="300%" id="fkrru47x09hpx" width="300%" x="-1" y="-1"><feGaussianBlur result="blurOut" stdDeviation="2.0833"/><feColorMatrix in="blurOut" result="blurOut2" type="matrix" values="0 0 0 0 0 0 0 0 0 0 0 0 0 0 0 0 0 0 .4 0"/><feOffset dx="4.1667" dy="4.1667" in="blurOut2" result="blurOut3"/><feBlend in="SourceGraphic" in2="blurOut3" mode="normal"/></filter><linearGradient id="gkrru47x09hpx0" x1="50%" x2="50%" y1="0%" y2="100%"><stop offset="0%" stop-color="#2FA4E7"/><stop offset="100%" stop-color="#2683B9"/></linearGradient></defs><g><g class="title" data-source-line="507"><rect fill="none" height="35.2875" rx="4.1667" ry="4.1667" style="stroke:#BABDBF;stroke-width:1.0417;" width="568.2892" x="195.0905" y="20.8333"/><text fill="#111111" font-family="'Verdana'" font-size="18.75" font-weight="700" lengthAdjust="spacing" textLength="555.7892" x="201.3405" y="45.934">Strategy Hierarchy &#8212; Concrete, Composite &amp; Regime</text></g><!--class IStrategy--><g class="entity" data-qualified-name="IStrategy" data-source-line="539" id="ent0001"><rect fill="#D6EAF8" filter="url(#fkrru47x09hpx)" height="84.052" rx="4.1667" ry="4.1667" style="stroke:#2980B9;stroke-width:1.0417;" width="226.8804" x="508.6042" y="74.8708"/><rect fill="#AED6F1" height="39.534" rx="4.1667" ry="4.1667" style="stroke:#AED6F1;stroke-width:1.0417;" width="226.8804" x="508.6042" y="74.8708"/><rect fill="#AED6F1" height="4.1667" style="stroke:#AED6F1;stroke-width:1.0417;" width="226.8804" x="508.6042" y="110.2381"/><rect fill="none" height="84.052" rx="4.1667" ry="4.1667" style="stroke:#2980B9;stroke-width:1.0417;" width="226.8804" x="508.6042" y="74.8708"/><ellipse cx="588.5879" cy="94.6378" fill="#D2494E" rx="9.375" ry="9.375" style="stroke:#FFFFFF;stroke-width:1.0417;"/><path d="M586.4253,91.906 L586.4253,90.4513 L591.3991,90.4513 L591.3991,91.906 L589.7374,91.906 L589.7374,97.3498 L591.3991,97.3498 L591.3991,98.8045 L586.4253,98.8045 L586.4253,97.3498 L588.0869,97.3498 L588.0869,91.906 Z " fill="#111111"/><text fill="#343A40" font-family="Verdana" font-size="11.4583" font-style="italic" lengthAdjust="spacing" textLength="41.6204" x="615.5571" y="91.599">&#171;iface&#187;</text><text fill="#111111" font-family="'Verdana'" font-size="12.5" font-style="italic" lengthAdjust="spacing" textLength="59.1003" x="606.8171" y="106.572">IStrategy</text><line style="stroke:#2980B9;stroke-width:1.0417;" x1="509.6458" x2="734.4429" y1="114.4048" y2="114.4048"/><line style="stroke:#2980B9;stroke-width:1.0417;" x1="509.6458" x2="734.4429" y1="122.7381" y2="122.7381"/><g data-visibility-modifier="PUBLIC_METHOD"><ellipse cx="520.0625" cy="135.4301" fill="none" rx="3.125" ry="3.125" style="stroke:#2683B9;stroke-width:1.0417;"/></g><text fill="#111111" font-family="'Verdana'" font-size="11.4583" lengthAdjust="spacing" textLength="143.5089" x="527.3542" y="138.4247">generate_signal(symbol)</text><g data-visibility-modifier="PUBLIC_METHOD"><ellipse cx="520.0625" cy="149.3558" fill="none" rx="3.125" ry="3.125" style="stroke:#2683B9;stroke-width:1.0417;"/></g><text fill="#111111" font-family="'Verdana'" font-size="11.4583" lengthAdjust="spacing" textLength="201.8804" x="527.3542" y="152.3504">on_bar(bar, ctx): StrategyDecision</text></g><!--class IRegimeDetector--><g class="entity" data-qualified-name="IRegimeDetector" data-source-line="543" id="ent0002"><rect fill="#D6EAF8" filter="url(#fkrru47x09hpx)" height="70.1263" rx="4.1667" ry="4.1667" style="stroke:#2980B9;stroke-width:1.0417;" width="198.4192" x="578.0417" y="1289.0583"/><rect fill="#AED6F1" height="39.534" rx="4.1667" ry="4.1667" style="stroke:#AED6F1;stroke-width:1.0417;" width="198.4192" x="578.0417" y="1289.0583"/><rect fill="#AED6F1" height="4.1667" style="stroke:#AED6F1;stroke-width:1.0417;" width="198.4192" x="578.0417" y="1324.4256"/><rect fill="none" height="70.1263" rx="4.1667" ry="4.1667" style="stroke:#2980B9;stroke-width:1.0417;" width="198.4192" x="578.0417" y="1289.0583"/><ellipse cx="620.3665" cy="1308.8253" fill="#D2494E" rx="9.375" ry="9.375" style="stroke:#FFFFFF;stroke-width:1.0417;"/><path d="M618.2038,1306.0935 L618.2038,1304.6388 L623.1777,1304.6388 L623.1777,1306.0935 L621.516,1306.0935 L621.516,1311.5373 L623.1777,1311.5373 L623.1777,1312.992 L618.2038,1312.992 L618.2038,1311.5373 L619.8655,1311.5373 L619.8655,1306.0935 Z " fill="#111111"/><text fill="#343A40" font-family="Verdana" font-size="11.4583" font-style="italic" lengthAdjust="spacing" textLength="41.6204" x="670.764" y="1305.7865">&#171;iface&#187;</text><text fill="#111111" font-family="'Verdana'" font-size="12.5" font-style="italic" lengthAdjust="spacing" textLength="105.957" x="638.5957" y="1320.7595">IRegimeDetector</text><line style="stroke:#2980B9;stroke-width:1.0417;" x1="579.0833" x2="775.4192" y1="1328.5923" y2="1328.5923"/><line style="stroke:#2980B9;stroke-width:1.0417;" x1="579.0833" x2="775.4192" y1="1336.9256" y2="1336.9256"/><g data-visibility-modifier="PUBLIC_METHOD"><ellipse cx="589.5" cy="1349.6176" fill="none" rx="3.125" ry="3.125" style="stroke:#2683B9;stroke-width:1.0417;"/></g><text fill="#111111" font-family="'Verdana'" font-size="11.4583" lengthAdjust="spacing" textLength="173.4192" x="596.7917" y="1352.6122">detect(bar, ctx): RegimeState</text></g><!--class BinaryBaseStrategy--><g class="entity" data-qualified-name="BinaryBaseStrategy" data-source-line="547" id="ent0003"><rect fill="#E8DAEF" filter="url(#fkrru47x09hpx)" height="111.9034" rx="4.1667" ry="4.1667" style="stroke:#8E44AD;stroke-width:1.0417;" width="251.5706" x="130.6354" y="221.4229"/><rect fill="#D2B4DE" height="39.534" rx="4.1667" ry="4.1667" style="stroke:#D2B4DE;stroke-width:1.0417;" width="251.5706" x="130.6354" y="221.4229"/><rect fill="#D2B4DE" height="4.1667" style="stroke:#D2B4DE;stroke-width:1.0417;" width="251.5706" x="130.6354" y="256.7902"/><rect fill="none" height="111.9034" rx="4.1667" ry="4.1667" style="stroke:#8E44AD;stroke-width:1.0417;" width="251.5706" x="130.6354" y="221.4229"/><ellipse cx="183.0168" cy="241.1899" fill="#8FB961" rx="9.375" ry="9.375" style="stroke:#FFFFFF;stroke-width:1.0417;"/><path d="M182.8174,237.9932 L182.0397,241.4117 L183.6007,241.4117 Z M181.8103,236.4826 L183.8301,236.4826 L186.0848,244.8357 L184.4343,244.8357 L183.9196,242.7712 L181.7096,242.7712 L181.2061,244.8357 L179.5556,244.8357 Z " fill="#111111"/><text fill="#343A40" font-family="Verdana" font-size="11.4583" font-style="italic" lengthAdjust="spacing" textLength="41.5868" x="249.9502" y="238.1511">&#171;base&#187;</text><text fill="#111111" font-family="'Verdana'" font-size="12.5" font-style="italic" font-weight="700" lengthAdjust="spacing" textLength="138.9954" x="201.246" y="253.124">BinaryBaseStrategy</text><line style="stroke:#8E44AD;stroke-width:1.0417;" x1="131.6771" x2="381.1644" y1="260.9569" y2="260.9569"/><g data-visibility-modifier="PROTECTED_FIELD"><polygon fill="none" points="142.0938,268.4406,146.2604,272.6072,142.0938,276.7739,137.9271,272.6072" style="stroke:#2683B9;stroke-width:1.0417;stroke-linejoin:miter;stroke-miterlimit:10;"/></g><text fill="#111111" font-family="'Verdana'" font-size="11.4583" lengthAdjust="spacing" textLength="143.1956" x="149.3854" y="276.6434">bar_store / buf / params</text><line style="stroke:#8E44AD;stroke-width:1.0417;" x1="131.6771" x2="381.1644" y1="283.2159" y2="283.2159"/><g data-visibility-modifier="PUBLIC_METHOD"><ellipse cx="142.0938" cy="295.9079" fill="none" rx="3.125" ry="3.125" style="stroke:#2683B9;stroke-width:1.0417;"/></g><text fill="#111111" font-family="'Verdana'" font-size="11.4583" lengthAdjust="spacing" textLength="226.5706" x="149.3854" y="298.9024">generate_signal(symbol): Optional[str]</text><g data-visibility-modifier="PUBLIC_METHOD"><ellipse cx="142.0938" cy="309.8336" fill="none" rx="3.125" ry="3.125" style="stroke:#2683B9;stroke-width:1.0417;"/></g><text fill="#111111" font-family="'Verdana'" font-size="11.4583" lengthAdjust="spacing" textLength="201.8804" x="149.3854" y="312.8281">on_bar(bar, ctx): StrategyDecision</text><g data-visibility-modifier="PROTECTED_METHOD"><polygon fill="none" points="142.0938,318.5509,146.2604,322.7176,142.0938,326.8843,137.9271,322.7176" style="stroke:#2683B9;stroke-width:1.0417;stroke-linejoin:miter;stroke-miterlimit:10;"/></g><text fill="#111111" font-family="'Verdana'" font-size="11.4583" font-style="italic" lengthAdjust="spacing" textLength="208.197" x="149.3854" y="326.7538">_live_signal(o,h,l,c,v): Optional[str]</text></g><!--class RSIThreshold--><g class="entity" data-qualified-name="RSIThreshold" data-source-line="554" id="ent0004"><rect fill="#F4ECF7" filter="url(#fkrru47x09hpx)" height="70.1263" rx="4.1667" ry="4.1667" style="stroke:#8E44AD;stroke-width:1.0417;" width="210.7605" x="17.7083" y="402.7875"/><rect fill="#E8DAEF" height="39.534" rx="4.1667" ry="4.1667" style="stroke:#E8DAEF;stroke-width:1.0417;" width="210.7605" x="17.7083" y="402.7875"/><rect fill="#E8DAEF" height="4.1667" style="stroke:#E8DAEF;stroke-width:1.0417;" width="210.7605" x="17.7083" y="438.1548"/><rect fill="none" height="70.1263" rx="4.1667" ry="4.1667" style="stroke:#8E44AD;stroke-width:1.0417;" width="210.7605" x="17.7083" y="402.7875"/><ellipse cx="71.5139" cy="422.5545" fill="#EDF0F2" rx="9.375" ry="9.375" style="stroke:#BABDBF;stroke-width:1.0417;"/><path d="M72.8745,426.4806 Q72.4828,426.682 72.052,426.7827 Q71.6212,426.8834 71.1456,426.8834 Q69.456,426.8834 68.5664,425.77 Q67.6768,424.6566 67.6768,422.5529 Q67.6768,420.4437 68.5664,419.3303 Q69.456,418.2169 71.1456,418.2169 Q71.6212,418.2169 72.0576,418.3176 Q72.494,418.4183 72.8745,418.6197 L72.8745,420.4549 Q72.4492,420.0632 72.0492,419.8814 Q71.6492,419.6996 71.224,419.6996 Q70.3176,419.6996 69.856,420.4185 Q69.3944,421.1374 69.3944,422.5529 Q69.3944,423.9629 69.856,424.6818 Q70.3176,425.4007 71.224,425.4007 Q71.6492,425.4007 72.0492,425.2189 Q72.4492,425.0371 72.8745,424.6454 Z " fill="#111111"/><text fill="#343A40" font-family="Verdana" font-size="11.4583" font-style="italic" lengthAdjust="spacing" textLength="41.5421" x="116.6405" y="419.5157">&#171;strat&#187;</text><text fill="#111111" font-family="'Verdana'" font-size="12.5" font-weight="700" lengthAdjust="spacing" textLength="95.3369" x="89.743" y="434.4886">RSIThreshold</text><line style="stroke:#8E44AD;stroke-width:1.0417;" x1="18.75" x2="227.4272" y1="442.3215" y2="442.3215"/><text fill="#111111" font-family="'Verdana'" font-size="11.4583" lengthAdjust="spacing" textLength="198.2605" x="23.9583" y="458.008">rsi_period / overbought / oversold</text><line style="stroke:#8E44AD;stroke-width:1.0417;" x1="18.75" x2="227.4272" y1="464.5805" y2="464.5805"/></g><!--class DonchianATRVolTarget--><g class="entity" data-qualified-name="DonchianATRVolTarget" data-source-line="557" id="ent0005"><rect fill="#F4ECF7" filter="url(#fkrru47x09hpx)" height="84.052" rx="4.1667" ry="4.1667" style="stroke:#8E44AD;stroke-width:1.0417;" width="191.038" x="265.0729" y="395.8291"/><rect fill="#E8DAEF" height="39.534" rx="4.1667" ry="4.1667" style="stroke:#E8DAEF;stroke-width:1.0417;" width="191.038" x="265.0729" y="395.8291"/><rect fill="#E8DAEF" height="4.1667" style="stroke:#E8DAEF;stroke-width:1.0417;" width="191.038" x="265.0729" y="431.1965"/><rect fill="none" height="84.052" rx="4.1667" ry="4.1667" style="stroke:#8E44AD;stroke-width:1.0417;" width="191.038" x="265.0729" y="395.8291"/><ellipse cx="278.6146" cy="415.5961" fill="#EDF0F2" rx="9.375" ry="9.375" style="stroke:#BABDBF;stroke-width:1.0417;"/><path d="M279.9752,419.5222 Q279.5835,419.7236 279.1527,419.8244 Q278.7219,419.9251 278.2463,419.9251 Q276.5567,419.9251 275.6671,418.8117 Q274.7775,417.6983 274.7775,415.5946 Q274.7775,413.4853 275.6671,412.372 Q276.5567,411.2586 278.2463,411.2586 Q278.7219,411.2586 279.1583,411.3593 Q279.5947,411.46 279.9752,411.6614 L279.9752,413.4965 Q279.5499,413.1049 279.1499,412.9231 Q278.7499,412.7412 278.3247,412.7412 Q277.4183,412.7412 276.9567,413.4602 Q276.4951,414.1791 276.4951,415.5946 Q276.4951,417.0045 276.9567,417.7235 Q277.4183,418.4424 278.3247,418.4424 Q278.7499,418.4424 279.1499,418.2606 Q279.5499,418.0787 279.9752,417.6871 Z " fill="#111111"/><text fill="#343A40" font-family="Verdana" font-size="11.4583" font-style="italic" lengthAdjust="spacing" textLength="41.5421" x="351.2792" y="412.5574">&#171;strat&#187;</text><text fill="#111111" font-family="'Verdana'" font-size="12.5" font-weight="700" lengthAdjust="spacing" textLength="161.8713" x="291.1146" y="427.5303">DonchianATRVolTarget</text><line style="stroke:#8E44AD;stroke-width:1.0417;" x1="266.1146" x2="455.0693" y1="435.3631" y2="435.3631"/><text fill="#111111" font-family="'Verdana'" font-size="11.4583" lengthAdjust="spacing" textLength="178.3259" x="271.3229" y="451.0497">dc_period / atr_mult / risk_pct</text><line style="stroke:#8E44AD;stroke-width:1.0417;" x1="266.1146" x2="455.0693" y1="457.6222" y2="457.6222"/><text fill="#111111" font-family="'Verdana'" font-size="11.4583" lengthAdjust="spacing" textLength="157.871" x="271.3229" y="473.3087">filter_type (ema|adx|none)</text></g><!--class EMA_MACD_ATR--><g class="entity" data-qualified-name="EMA_MACD_ATR" data-source-line="561" id="ent0006"><rect fill="#F4ECF7" filter="url(#fkrru47x09hpx)" height="70.1263" rx="4.1667" ry="4.1667" style="stroke:#8E44AD;stroke-width:1.0417;" width="218.5318" x="311.7396" y="542.3812"/><rect fill="#E8DAEF" height="39.534" rx="4.1667" ry="4.1667" style="stroke:#E8DAEF;stroke-width:1.0417;" width="218.5318" x="311.7396" y="542.3812"/><rect fill="#E8DAEF" height="4.1667" style="stroke:#E8DAEF;stroke-width:1.0417;" width="218.5318" x="311.7396" y="577.7486"/><rect fill="none" height="70.1263" rx="4.1667" ry="4.1667" style="stroke:#8E44AD;stroke-width:1.0417;" width="218.5318" x="311.7396" y="542.3812"/><ellipse cx="358.6794" cy="562.1482" fill="#EDF0F2" rx="9.375" ry="9.375" style="stroke:#BABDBF;stroke-width:1.0417;"/><path d="M360.04,566.0743 Q359.6484,566.2757 359.2176,566.3764 Q358.7868,566.4771 358.3112,566.4771 Q356.6215,566.4771 355.7319,565.3638 Q354.8424,564.2504 354.8424,562.1467 Q354.8424,560.0374 355.7319,558.924 Q356.6215,557.8107 358.3112,557.8107 Q358.7868,557.8107 359.2232,557.9114 Q359.6596,558.0121 360.04,558.2135 L360.04,560.0486 Q359.6148,559.657 359.2148,559.4751 Q358.8147,559.2933 358.3895,559.2933 Q357.4831,559.2933 357.0216,560.0122 Q356.56,560.7312 356.56,562.1467 Q356.56,563.5566 357.0216,564.2756 Q357.4831,564.9945 358.3895,564.9945 Q358.8147,564.9945 359.2148,564.8127 Q359.6148,564.6308 360.04,564.2392 Z " fill="#111111"/><text fill="#343A40" font-family="Verdana" font-size="11.4583" font-style="italic" lengthAdjust="spacing" textLength="41.5421" x="414.5574" y="559.1094">&#171;strat&#187;</text><text fill="#111111" font-family="'Verdana'" font-size="12.5" font-weight="700" lengthAdjust="spacing" textLength="116.8396" x="376.9086" y="574.0824">EMA_MACD_ATR</text><line style="stroke:#8E44AD;stroke-width:1.0417;" x1="312.7813" x2="529.2297" y1="581.9152" y2="581.9152"/><text fill="#111111" font-family="'Verdana'" font-size="11.4583" lengthAdjust="spacing" textLength="206.0318" x="317.9896" y="597.6018">ema_fast/slow / macd_* / atr_mult</text><line style="stroke:#8E44AD;stroke-width:1.0417;" x1="312.7813" x2="529.2297" y1="604.1742" y2="604.1742"/></g><!--class EMACrossMACDTrend--><g class="entity" data-qualified-name="EMACrossMACDTrend" data-source-line="564" id="ent0007"><rect fill="#F4ECF7" filter="url(#fkrru47x09hpx)" height="70.1263" rx="4.1667" ry="4.1667" style="stroke:#8E44AD;stroke-width:1.0417;" width="188.5824" x="415.2604" y="675.0062"/><rect fill="#E8DAEF" height="39.534" rx="4.1667" ry="4.1667" style="stroke:#E8DAEF;stroke-width:1.0417;" width="188.5824" x="415.2604" y="675.0062"/><rect fill="#E8DAEF" height="4.1667" style="stroke:#E8DAEF;stroke-width:1.0417;" width="188.5824" x="415.2604" y="710.3736"/><rect fill="none" height="70.1263" rx="4.1667" ry="4.1667" style="stroke:#8E44AD;stroke-width:1.0417;" width="188.5824" x="415.2604" y="675.0062"/><ellipse cx="432.8524" cy="694.7732" fill="#EDF0F2" rx="9.375" ry="9.375" style="stroke:#BABDBF;stroke-width:1.0417;"/><path d="M434.213,698.6993 Q433.8213,698.9007 433.3905,699.0014 Q432.9597,699.1021 432.4841,699.1021 Q430.7945,699.1021 429.9049,697.9888 Q429.0153,696.8754 429.0153,694.7717 Q429.0153,692.6624 429.9049,691.549 Q430.7945,690.4357 432.4841,690.4357 Q432.9597,690.4357 433.3961,690.5364 Q433.8325,690.6371 434.213,690.8385 L434.213,692.6736 Q433.7877,692.282 433.3877,692.1001 Q432.9877,691.9183 432.5625,691.9183 Q431.6561,691.9183 431.1945,692.6372 Q430.7329,693.3562 430.7329,694.7717 Q430.7329,696.1816 431.1945,696.9006 Q431.6561,697.6195 432.5625,697.6195 Q432.9877,697.6195 433.3877,697.4377 Q433.7877,697.2558 434.213,696.8642 Z " fill="#111111"/><text fill="#343A40" font-family="Verdana" font-size="11.4583" font-style="italic" lengthAdjust="spacing" textLength="41.5421" x="500.6889" y="691.7344">&#171;strat&#187;</text><text fill="#111111" font-family="'Verdana'" font-size="12.5" font-weight="700" lengthAdjust="spacing" textLength="150.415" x="446.2524" y="706.7074">EMACrossMACDTrend</text><line style="stroke:#8E44AD;stroke-width:1.0417;" x1="416.3021" x2="602.8011" y1="714.5402" y2="714.5402"/><text fill="#111111" font-family="'Verdana'" font-size="11.4583" lengthAdjust="spacing" textLength="176.0824" x="421.5104" y="730.2268">fast/slow_ema / adx / rsi filter</text><line style="stroke:#8E44AD;stroke-width:1.0417;" x1="416.3021" x2="602.8011" y1="736.7992" y2="736.7992"/></g><!--class ICTLiquiditySweepFVG--><g class="entity" data-qualified-name="ICTLiquiditySweepFVG" data-source-line="567" id="ent0008"><rect fill="#F4ECF7" filter="url(#fkrru47x09hpx)" height="84.052" rx="4.1667" ry="4.1667" style="stroke:#8E44AD;stroke-width:1.0417;" width="188.8346" x="489.0833" y="807.6312"/><rect fill="#E8DAEF" height="39.534" rx="4.1667" ry="4.1667" style="stroke:#E8DAEF;stroke-width:1.0417;" width="188.8346" x="489.0833" y="807.6312"/><rect fill="#E8DAEF" height="4.1667" style="stroke:#E8DAEF;stroke-width:1.0417;" width="188.8346" x="489.0833" y="842.9986"/><rect fill="none" height="84.052" rx="4.1667" ry="4.1667" style="stroke:#8E44AD;stroke-width:1.0417;" width="188.8346" x="489.0833" y="807.6312"/><ellipse cx="502.625" cy="827.3982" fill="#EDF0F2" rx="9.375" ry="9.375" style="stroke:#BABDBF;stroke-width:1.0417;"/><path d="M503.9856,831.3243 Q503.5939,831.5257 503.1631,831.6264 Q502.7323,831.7271 502.2568,831.7271 Q500.5671,831.7271 499.6775,830.6138 Q498.7879,829.5004 498.7879,827.3967 Q498.7879,825.2874 499.6775,824.174 Q500.5671,823.0607 502.2568,823.0607 Q502.7323,823.0607 503.1687,823.1614 Q503.6051,823.2621 503.9856,823.4635 L503.9856,825.2986 Q503.5604,824.907 503.1603,824.7251 Q502.7603,824.5433 502.3351,824.5433 Q501.4287,824.5433 500.9671,825.2622 Q500.5056,825.9812 500.5056,827.3967 Q500.5056,828.8066 500.9671,829.5256 Q501.4287,830.2445 502.3351,830.2445 Q502.7603,830.2445 503.1603,830.0627 Q503.5604,829.8808 503.9856,829.4892 Z " fill="#111111"/><text fill="#343A40" font-family="Verdana" font-size="11.4583" font-style="italic" lengthAdjust="spacing" textLength="41.5421" x="574.188" y="824.3594">&#171;strat&#187;</text><text fill="#111111" font-family="'Verdana'" font-size="12.5" font-weight="700" lengthAdjust="spacing" textLength="159.668" x="515.125" y="839.3324">ICTLiquiditySweepFVG</text><line style="stroke:#8E44AD;stroke-width:1.0417;" x1="490.125" x2="676.8763" y1="847.1652" y2="847.1652"/><text fill="#111111" font-family="'Verdana'" font-size="11.4583" lengthAdjust="spacing" textLength="155.3421" x="495.3333" y="862.8518">killzone / HTF bias / sweep</text><text fill="#111111" font-family="'Verdana'" font-size="11.4583" lengthAdjust="spacing" textLength="163.561" x="495.3333" y="876.7774">MSS / FVG / OTE / rr_target</text><line style="stroke:#8E44AD;stroke-width:1.0417;" x1="490.125" x2="676.8763" y1="883.3499" y2="883.3499"/></g><!--class FundingRateArbStrategy--><g class="entity" data-qualified-name="FundingRateArbStrategy" data-source-line="571" id="ent0009"><rect fill="#F4ECF7" filter="url(#fkrru47x09hpx)" height="84.052" rx="4.1667" ry="4.1667" style="stroke:#8E44AD;stroke-width:1.0417;" width="214.856" x="537.5313" y="954.1833"/><rect fill="#E8DAEF" height="39.534" rx="4.1667" ry="4.1667" style="stroke:#E8DAEF;stroke-width:1.0417;" width="214.856" x="537.5313" y="954.1833"/><rect fill="#E8DAEF" height="4.1667" style="stroke:#E8DAEF;stroke-width:1.0417;" width="214.856" x="537.5313" y="989.5506"/><rect fill="none" height="84.052" rx="4.1667" ry="4.1667" style="stroke:#8E44AD;stroke-width:1.0417;" width="214.856" x="537.5313" y="954.1833"/><ellipse cx="556.6082" cy="973.9503" fill="#EDF0F2" rx="9.375" ry="9.375" style="stroke:#BABDBF;stroke-width:1.0417;"/><path d="M557.9688,977.8764 Q557.5771,978.0778 557.1463,978.1785 Q556.7155,978.2792 556.2399,978.2792 Q554.5503,978.2792 553.6607,977.1658 Q552.7711,976.0525 552.7711,973.9488 Q552.7711,971.8395 553.6607,970.7261 Q554.5503,969.6127 556.2399,969.6127 Q556.7155,969.6127 557.1519,969.7135 Q557.5883,969.8142 557.9688,970.0156 L557.9688,971.8507 Q557.5436,971.4591 557.1435,971.2772 Q556.7435,971.0954 556.3183,971.0954 Q555.4119,971.0954 554.9503,971.8143 Q554.4887,972.5333 554.4887,973.9488 Q554.4887,975.3587 554.9503,976.0776 Q555.4119,976.7966 556.3183,976.7966 Q556.7435,976.7966 557.1435,976.6147 Q557.5436,976.4329 557.9688,976.0413 Z " fill="#111111"/><text fill="#343A40" font-family="Verdana" font-size="11.4583" font-style="italic" lengthAdjust="spacing" textLength="41.5421" x="636.2616" y="970.9115">&#171;strat&#187;</text><text fill="#111111" font-family="'Verdana'" font-size="12.5" font-weight="700" lengthAdjust="spacing" textLength="173.3887" x="570.3383" y="985.8845">FundingRateArbStrategy</text><line style="stroke:#8E44AD;stroke-width:1.0417;" x1="538.5729" x2="751.3455" y1="993.7173" y2="993.7173"/><text fill="#111111" font-family="'Verdana'" font-size="11.4583" lengthAdjust="spacing" textLength="127.4516" x="543.7813" y="1009.4038">spot vs perp basis arb</text><line style="stroke:#8E44AD;stroke-width:1.0417;" x1="538.5729" x2="751.3455" y1="1015.9763" y2="1015.9763"/><text fill="#111111" font-family="'Verdana'" font-size="11.4583" lengthAdjust="spacing" textLength="202.356" x="543.7813" y="1031.6629">uses BarSyncBuffer (multi-symbol)</text></g><!--class CompositeStrategy--><g class="entity" data-qualified-name="CompositeStrategy" data-source-line="576" id="ent0010"><rect fill="#F4ECF7" filter="url(#fkrru47x09hpx)" height="125.8291" rx="4.1667" ry="4.1667" style="stroke:#8E44AD;stroke-width:1.0417;" width="297.6501" x="528.4271" y="1100.7354"/><rect fill="#E8DAEF" height="39.534" rx="4.1667" ry="4.1667" style="stroke:#E8DAEF;stroke-width:1.0417;" width="297.6501" x="528.4271" y="1100.7354"/><rect fill="#E8DAEF" height="4.1667" style="stroke:#E8DAEF;stroke-width:1.0417;" width="297.6501" x="528.4271" y="1136.1027"/><rect fill="none" height="125.8291" rx="4.1667" ry="4.1667" style="stroke:#8E44AD;stroke-width:1.0417;" width="297.6501" x="528.4271" y="1100.7354"/><ellipse cx="606.4117" cy="1120.5024" fill="#EDF0F2" rx="9.375" ry="9.375" style="stroke:#BABDBF;stroke-width:1.0417;"/><path d="M607.7723,1124.4285 Q607.3806,1124.6299 606.9498,1124.7306 Q606.519,1124.8313 606.0435,1124.8313 Q604.3538,1124.8313 603.4642,1123.7179 Q602.5746,1122.6045 602.5746,1120.5009 Q602.5746,1118.3916 603.4642,1117.2782 Q604.3538,1116.1648 606.0435,1116.1648 Q606.519,1116.1648 606.9554,1116.2655 Q607.3918,1116.3662 607.7723,1116.5677 L607.7723,1118.4028 Q607.3471,1118.0111 606.947,1117.8293 Q606.547,1117.6475 606.1218,1117.6475 Q605.2154,1117.6475 604.7538,1118.3664 Q604.2923,1119.0854 604.2923,1120.5009 Q604.2923,1121.9108 604.7538,1122.6297 Q605.2154,1123.3487 606.1218,1123.3487 Q606.547,1123.3487 606.947,1123.1668 Q607.3471,1122.985 607.7723,1122.5934 Z " fill="#111111"/><text fill="#343A40" font-family="Verdana" font-size="11.4583" font-style="italic" lengthAdjust="spacing" textLength="41.5421" x="670.804" y="1117.4636">&#171;strat&#187;</text><text fill="#111111" font-family="'Verdana'" font-size="12.5" font-weight="700" lengthAdjust="spacing" textLength="133.8684" x="624.6409" y="1132.4365">CompositeStrategy</text><line style="stroke:#8E44AD;stroke-width:1.0417;" x1="529.4688" x2="825.0356" y1="1140.2694" y2="1140.2694"/><g data-visibility-modifier="PRIVATE_FIELD"><rect fill="none" height="6.25" style="stroke:#2683B9;stroke-width:1.0417;" width="6.25" x="536.7604" y="1149.8364"/></g><text fill="#111111" font-family="'Verdana'" font-size="11.4583" lengthAdjust="spacing" textLength="138.0259" x="547.1771" y="1155.9559">slots: List[StrategySlot]</text><g data-visibility-modifier="PRIVATE_FIELD"><rect fill="none" height="6.25" style="stroke:#2683B9;stroke-width:1.0417;" width="6.25" x="536.7604" y="1163.7621"/></g><text fill="#111111" font-family="'Verdana'" font-size="11.4583" lengthAdjust="spacing" textLength="201.3153" x="547.1771" y="1169.8816">regime_detector: IRegimeDetector</text><g data-visibility-modifier="PRIVATE_FIELD"><rect fill="none" height="6.25" style="stroke:#2683B9;stroke-width:1.0417;" width="6.25" x="536.7604" y="1177.6878"/></g><text fill="#111111" font-family="'Verdana'" font-size="11.4583" lengthAdjust="spacing" textLength="199.2676" x="547.1771" y="1183.8073">_slot_exits: Dict[str, ExitManager]</text><line style="stroke:#8E44AD;stroke-width:1.0417;" x1="529.4688" x2="825.0356" y1="1190.3798" y2="1190.3798"/><g data-visibility-modifier="PRIVATE_METHOD"><rect fill="none" height="6.25" style="stroke:#2683B9;stroke-width:1.0417;" width="6.25" x="536.7604" y="1199.9468"/></g><text fill="#111111" font-family="'Verdana'" font-size="11.4583" lengthAdjust="spacing" textLength="272.6501" x="547.1771" y="1206.0663">policy: str  (fixed|regime_gate|regime_weight)</text><g data-visibility-modifier="PUBLIC_METHOD"><ellipse cx="539.8854" cy="1216.9974" fill="none" rx="3.125" ry="3.125" style="stroke:#2683B9;stroke-width:1.0417;"/></g><text fill="#111111" font-family="'Verdana'" font-size="11.4583" lengthAdjust="spacing" textLength="201.8804" x="547.1771" y="1219.992">on_bar(bar, ctx): StrategyDecision</text></g><!--class ADXRegimeDetector--><g class="entity" data-qualified-name="ADXRegimeDetector" data-source-line="584" id="ent0011"><rect fill="#EBDEF0" filter="url(#fkrru47x09hpx)" height="70.1263" rx="4.1667" ry="4.1667" style="stroke:#76448A;stroke-width:1.0417;" width="205.6859" x="370.25" y="1421.6937"/><rect fill="#D7BDE2" height="39.534" rx="4.1667" ry="4.1667" style="stroke:#D7BDE2;stroke-width:1.0417;" width="205.6859" x="370.25" y="1421.6937"/><rect fill="#D7BDE2" height="4.1667" style="stroke:#D7BDE2;stroke-width:1.0417;" width="205.6859" x="370.25" y="1457.0611"/><rect fill="none" height="70.1263" rx="4.1667" ry="4.1667" style="stroke:#76448A;stroke-width:1.0417;" width="205.6859" x="370.25" y="1421.6937"/><ellipse cx="398.9828" cy="1441.4607" fill="#EDF0F2" rx="9.375" ry="9.375" style="stroke:#BABDBF;stroke-width:1.0417;"/><path d="M400.3434,1445.3868 Q399.9517,1445.5882 399.5209,1445.6889 Q399.0901,1445.7896 398.6145,1445.7896 Q396.9249,1445.7896 396.0353,1444.6763 Q395.1457,1443.5629 395.1457,1441.4592 Q395.1457,1439.3499 396.0353,1438.2365 Q396.9249,1437.1232 398.6145,1437.1232 Q399.0901,1437.1232 399.5265,1437.2239 Q399.9629,1437.3246 400.3434,1437.526 L400.3434,1439.3611 Q399.9181,1438.9695 399.5181,1438.7876 Q399.1181,1438.6058 398.6929,1438.6058 Q397.7865,1438.6058 397.3249,1439.3247 Q396.8633,1440.0437 396.8633,1441.4592 Q396.8633,1442.8691 397.3249,1443.5881 Q397.7865,1444.307 398.6929,1444.307 Q399.1181,1444.307 399.5181,1444.1252 Q399.9181,1443.9433 400.3434,1443.5517 Z " fill="#111111"/><text fill="#343A40" font-family="Verdana" font-size="11.4583" font-style="italic" lengthAdjust="spacing" textLength="54.7292" x="458.8746" y="1438.4219">&#171;regime&#187;</text><text fill="#111111" font-family="'Verdana'" font-size="12.5" font-weight="700" lengthAdjust="spacing" textLength="142.7612" x="414.8586" y="1453.3949">ADXRegimeDetector</text><line style="stroke:#76448A;stroke-width:1.0417;" x1="371.2917" x2="574.8943" y1="1461.2277" y2="1461.2277"/><text fill="#111111" font-family="'Verdana'" font-size="11.4583" lengthAdjust="spacing" textLength="193.1859" x="376.5" y="1476.9143">period / trend_threshold / di_gap</text><line style="stroke:#76448A;stroke-width:1.0417;" x1="371.2917" x2="574.8943" y1="1483.4867" y2="1483.4867"/></g><!--class ATRPercentileRegime--><g class="entity" data-qualified-name="ATRPercentileRegime" data-source-line="587" id="ent0012"><rect fill="#EBDEF0" filter="url(#fkrru47x09hpx)" height="70.1263" rx="4.1667" ry="4.1667" style="stroke:#76448A;stroke-width:1.0417;" width="225.4974" x="424.9271" y="1554.3187"/><rect fill="#D7BDE2" height="39.534" rx="4.1667" ry="4.1667" style="stroke:#D7BDE2;stroke-width:1.0417;" width="225.4974" x="424.9271" y="1554.3187"/><rect fill="#D7BDE2" height="4.1667" style="stroke:#D7BDE2;stroke-width:1.0417;" width="225.4974" x="424.9271" y="1589.6861"/><rect fill="none" height="70.1263" rx="4.1667" ry="4.1667" style="stroke:#76448A;stroke-width:1.0417;" width="225.4974" x="424.9271" y="1554.3187"/><ellipse cx="458.6886" cy="1574.0857" fill="#EDF0F2" rx="9.375" ry="9.375" style="stroke:#BABDBF;stroke-width:1.0417;"/><path d="M460.0492,1578.0118 Q459.6576,1578.2132 459.2268,1578.3139 Q458.7959,1578.4146 458.3204,1578.4146 Q456.6307,1578.4146 455.7411,1577.3013 Q454.8516,1576.1879 454.8516,1574.0842 Q454.8516,1571.9749 455.7411,1570.8615 Q456.6307,1569.7482 458.3204,1569.7482 Q458.7959,1569.7482 459.2324,1569.8489 Q459.6688,1569.9496 460.0492,1570.151 L460.0492,1571.9861 Q459.624,1571.5945 459.224,1571.4126 Q458.8239,1571.2308 458.3987,1571.2308 Q457.4923,1571.2308 457.0308,1571.9497 Q456.5692,1572.6687 456.5692,1574.0842 Q456.5692,1575.4941 457.0308,1576.2131 Q457.4923,1576.932 458.3987,1576.932 Q458.8239,1576.932 459.224,1576.7502 Q459.624,1576.5683 460.0492,1576.1767 Z " fill="#111111"/><text fill="#343A40" font-family="Verdana" font-size="11.4583" font-style="italic" lengthAdjust="spacing" textLength="54.7292" x="524.0162" y="1571.0469">&#171;regime&#187;</text><text fill="#111111" font-family="'Verdana'" font-size="12.5" font-weight="700" lengthAdjust="spacing" textLength="151.3977" x="475.6819" y="1586.0199">ATRPercentileRegime</text><line style="stroke:#76448A;stroke-width:1.0417;" x1="425.9688" x2="649.3829" y1="1593.8527" y2="1593.8527"/><text fill="#111111" font-family="'Verdana'" font-size="11.4583" lengthAdjust="spacing" textLength="212.9974" x="431.1771" y="1609.5393">atr_period / window / hi_pct / lo_pct</text><line style="stroke:#76448A;stroke-width:1.0417;" x1="425.9688" x2="649.3829" y1="1616.1117" y2="1616.1117"/></g><!--class CompositeRegimeDetector--><g class="entity" data-qualified-name="CompositeRegimeDetector" data-source-line="590" id="ent0013"><rect fill="#EBDEF0" filter="url(#fkrru47x09hpx)" height="70.1263" rx="4.1667" ry="4.1667" style="stroke:#76448A;stroke-width:1.0417;" width="216.1601" x="615.0104" y="1686.9437"/><rect fill="#D7BDE2" height="39.534" rx="4.1667" ry="4.1667" style="stroke:#D7BDE2;stroke-width:1.0417;" width="216.1601" x="615.0104" y="1686.9437"/><rect fill="#D7BDE2" height="4.1667" style="stroke:#D7BDE2;stroke-width:1.0417;" width="216.1601" x="615.0104" y="1722.3111"/><rect fill="none" height="70.1263" rx="4.1667" ry="4.1667" style="stroke:#76448A;stroke-width:1.0417;" width="216.1601" x="615.0104" y="1686.9437"/><ellipse cx="628.5521" cy="1706.7107" fill="#EDF0F2" rx="9.375" ry="9.375" style="stroke:#BABDBF;stroke-width:1.0417;"/><path d="M629.9127,1710.6368 Q629.521,1710.8382 629.0902,1710.9389 Q628.6594,1711.0396 628.1838,1711.0396 Q626.4942,1711.0396 625.6046,1709.9263 Q624.715,1708.8129 624.715,1706.7092 Q624.715,1704.5999 625.6046,1703.4865 Q626.4942,1702.3732 628.1838,1702.3732 Q628.6594,1702.3732 629.0958,1702.4739 Q629.5322,1702.5746 629.9127,1702.776 L629.9127,1704.6111 Q629.4874,1704.2195 629.0874,1704.0376 Q628.6874,1703.8558 628.2622,1703.8558 Q627.3558,1703.8558 626.8942,1704.5747 Q626.4326,1705.2937 626.4326,1706.7092 Q626.4326,1708.1191 626.8942,1708.8381 Q627.3558,1709.557 628.2622,1709.557 Q628.6874,1709.557 629.0874,1709.3752 Q629.4874,1709.1933 629.9127,1708.8017 Z " fill="#111111"/><text fill="#343A40" font-family="Verdana" font-size="11.4583" font-style="italic" lengthAdjust="spacing" textLength="54.7292" x="707.1842" y="1703.6719">&#171;regime&#187;</text><text fill="#111111" font-family="'Verdana'" font-size="12.5" font-weight="700" lengthAdjust="spacing" textLength="186.9934" x="641.0521" y="1718.6449">CompositeRegimeDetector</text><line style="stroke:#76448A;stroke-width:1.0417;" x1="616.0521" x2="830.1288" y1="1726.4777" y2="1726.4777"/><g data-visibility-modifier="PRIVATE_FIELD"><rect fill="none" height="6.25" style="stroke:#2683B9;stroke-width:1.0417;" width="6.25" x="623.3438" y="1736.0447"/></g><text fill="#111111" font-family="'Verdana'" font-size="11.4583" lengthAdjust="spacing" textLength="190.4444" x="633.7604" y="1742.1643">detectors: List[IRegimeDetector]</text><line style="stroke:#76448A;stroke-width:1.0417;" x1="616.0521" x2="830.1288" y1="1748.7367" y2="1748.7367"/></g><!--class StrategySlot--><g class="entity" data-qualified-name="StrategySlot" data-source-line="608" id="ent0026"><rect fill="none" filter="url(#fkrru47x09hpx)" height="45.8333" rx="4.1667" ry="4.1667" style="stroke:#2FA4E7;stroke-width:1.0417;" width="116.6056" x="817.9063" y="1301.2146"/><rect fill="url(#gkrru47x09hpx0)" height="29.1667" rx="4.1667" ry="4.1667" style="stroke:url(#gkrru47x09hpx0);stroke-width:1.0417;" width="116.6056" x="817.9063" y="1301.2146"/><rect fill="url(#gkrru47x09hpx0)" height="4.1667" style="stroke:url(#gkrru47x09hpx0);stroke-width:1.0417;" width="116.6056" x="817.9063" y="1326.2146"/><rect fill="none" height="45.8333" rx="4.1667" ry="4.1667" style="stroke:#2FA4E7;stroke-width:1.0417;" width="116.6056" x="817.9063" y="1301.2146"/><ellipse cx="831.4479" cy="1315.7979" fill="#EDF0F2" rx="9.375" ry="9.375" style="stroke:#BABDBF;stroke-width:1.0417;"/><path d="M832.8085,1319.724 Q832.4168,1319.9254 831.986,1320.0261 Q831.5552,1320.1268 831.0797,1320.1268 Q829.39,1320.1268 828.5004,1319.0134 Q827.6108,1317.9 827.6108,1315.7964 Q827.6108,1313.6871 828.5004,1312.5737 Q829.39,1311.4603 831.0797,1311.4603 Q831.5552,1311.4603 831.9916,1311.561 Q832.428,1311.6617 832.8085,1311.8632 L832.8085,1313.6983 Q832.3833,1313.3066 831.9832,1313.1248 Q831.5832,1312.943 831.158,1312.943 Q830.2516,1312.943 829.79,1313.6619 Q829.3285,1314.3809 829.3285,1315.7964 Q829.3285,1317.2063 829.79,1317.9252 Q830.2516,1318.6442 831.158,1318.6442 Q831.5832,1318.6442 831.9832,1318.4623 Q832.3833,1318.2805 832.8085,1317.8889 Z " fill="#111111"/><text fill="#111111" font-family="'Verdana'" font-size="12.5" font-weight="700" lengthAdjust="spacing" textLength="87.439" x="843.9479" y="1320.7692">StrategySlot</text><line style="stroke:#2FA4E7;stroke-width:1.0417;" x1="818.9479" x2="933.4702" y1="1330.3812" y2="1330.3812"/><line style="stroke:#2FA4E7;stroke-width:1.0417;" x1="818.9479" x2="933.4702" y1="1338.7146" y2="1338.7146"/></g><!--reverse link IStrategy to BinaryBaseStrategy--><g class="link" data-entity-1="ent0001" data-entity-2="ent0003" data-link-type="extension" data-source-line="594" id="lnk14"><path codeLine="594" d="M509.2529,166.8023 C465.2425,185.8648 429.6354,201.2979 382.4271,221.7458" fill="none" id="IStrategy-backto-BinaryBaseStrategy" style="stroke:#34495E;stroke-width:1.4583;stroke-dasharray:7.2917,7.2917;"/><polygon fill="none" points="526.4583,159.35,506.7688,161.0671,511.737,172.5374,526.4583,159.35" style="stroke:#34495E;stroke-width:1.4583;stroke-linejoin:miter;stroke-miterlimit:10;"/></g><!--reverse link BinaryBaseStrategy to RSIThreshold--><g class="link" data-entity-1="ent0003" data-entity-2="ent0004" data-link-type="extension" data-source-line="595" id="lnk15"><path codeLine="595" d="M197.7137,348.1605 C178.4846,370.9938 168.8854,382.4021 152.0208,402.4437" fill="none" id="BinaryBaseStrategy-backto-RSIThreshold" style="stroke:#34495E;stroke-width:1.4583;"/><polygon fill="none" points="209.7917,333.8187,192.9331,344.1345,202.4943,352.1865,209.7917,333.8187" style="stroke:#34495E;stroke-width:1.4583;stroke-linejoin:miter;stroke-miterlimit:10;"/></g><!--reverse link IStrategy to DonchianATRVolTarget--><g class="link" data-entity-1="ent0001" data-entity-2="ent0005" data-link-type="extension" data-source-line="596" id="lnk16"><path codeLine="596" d="M540.673,170.3028 C516.3917,187.5528 505.125,198.1416 484.5521,221.4229 C437.1146,275.0791 399.0729,349.7146 378.1875,395.5583" fill="none" id="IStrategy-backto-DonchianATRVolTarget" style="stroke:#34495E;stroke-width:1.4583;stroke-dasharray:7.2917,7.2917;"/><polygon fill="none" points="555.9583,159.4437,537.0533,165.2077,544.2927,175.3979,555.9583,159.4437" style="stroke:#34495E;stroke-width:1.4583;stroke-linejoin:miter;stroke-miterlimit:10;"/></g><!--reverse link IStrategy to EMA_MACD_ATR--><g class="link" data-entity-1="ent0001" data-entity-2="ent0006" data-link-type="extension" data-source-line="597" id="lnk17"><path codeLine="597" d="M583.5961,174.7413 C571.6482,193.2622 568.4167,199.9854 558.5104,221.4229 C507.7917,331.1 522.2292,369.0271 474.1354,479.8812 C464.9167,501.1104 452.5417,523.8291 442.0625,541.9021" fill="none" id="IStrategy-backto-EMA_MACD_ATR" style="stroke:#34495E;stroke-width:1.4583;stroke-dasharray:7.2917,7.2917;"/><polygon fill="none" points="593.7604,158.9854,578.3442,171.3533,588.8481,178.1294,593.7604,158.9854" style="stroke:#34495E;stroke-width:1.4583;stroke-linejoin:miter;stroke-miterlimit:10;"/></g><!--reverse link IStrategy to EMACrossMACDTrend--><g class="link" data-entity-1="ent0001" data-entity-2="ent0007" data-link-type="extension" data-source-line="598" id="lnk18"><path codeLine="598" d="M617.6347,177.9998 C610.843,263.7811 592.5729,448.0375 548.0938,612.5062 C542.3438,633.7562 533.3229,656.6729 525.4479,674.8396" fill="none" id="IStrategy-backto-EMACrossMACDTrend" style="stroke:#34495E;stroke-width:1.4583;stroke-dasharray:7.2917,7.2917;"/><polygon fill="none" points="619.1146,159.3083,611.4042,177.5065,623.8652,178.4931,619.1146,159.3083" style="stroke:#34495E;stroke-width:1.4583;stroke-linejoin:miter;stroke-miterlimit:10;"/></g><!--reverse link IStrategy to ICTLiquiditySweepFVG--><g class="link" data-entity-1="ent0001" data-entity-2="ent0008" data-link-type="extension" data-source-line="599" id="lnk19"><path codeLine="599" d="M633.3544,177.485 C644.3648,238.0371 659.5521,336.475 659.5521,436.8083 C659.5521,436.8083 659.5521,436.8083 659.5521,578.4854 C659.5521,662.2771 625.2188,755.4229 602.6979,807.5166" fill="none" id="IStrategy-backto-ICTLiquiditySweepFVG" style="stroke:#34495E;stroke-width:1.4583;stroke-dasharray:7.2917,7.2917;"/><polygon fill="none" points="630,159.0375,627.2052,178.6031,639.5036,176.3669,630,159.0375" style="stroke:#34495E;stroke-width:1.4583;stroke-linejoin:miter;stroke-miterlimit:10;"/></g><!--reverse link IStrategy to FundingRateArbStrategy--><g class="link" data-entity-1="ent0001" data-entity-2="ent0009" data-link-type="extension" data-source-line="600" id="lnk20"><path codeLine="600" d="M655.5895,175.5365 C688.3916,234.8073 733.5104,332.1312 733.5104,436.8083 C733.5104,436.8083 733.5104,436.8083 733.5104,711.1104 C733.5104,793.0791 722.6771,814.1729 696.0104,891.6833 C688.7083,912.9021 678.0208,935.3604 668.3125,953.9125" fill="none" id="IStrategy-backto-FundingRateArbStrategy" style="stroke:#34495E;stroke-width:1.4583;stroke-dasharray:7.2917,7.2917;"/><polygon fill="none" points="646.5104,159.1312,650.1211,178.5628,661.0579,172.5101,646.5104,159.1312" style="stroke:#34495E;stroke-width:1.4583;stroke-linejoin:miter;stroke-miterlimit:10;"/></g><!--reverse link IStrategy to CompositeStrategy--><g class="link" data-entity-1="ent0001" data-entity-2="ent0010" data-link-type="extension" data-source-line="601" id="lnk21"><path codeLine="601" d="M685.7496,172.0587 C704.6663,189.6837 711.4583,198.6312 726.2188,221.4229 C781.8333,307.2979 807.4688,334.4958 807.4688,436.8083 C807.4688,436.8083 807.4688,436.8083 807.4688,850.6937 C807.4688,935.6104 805.5521,960.6729 771.0104,1038.2354 C761.3229,1059.975 747.2188,1081.4646 732.8854,1100.3083" fill="none" id="IStrategy-backto-CompositeStrategy" style="stroke:#34495E;stroke-width:1.4583;stroke-dasharray:7.2917,7.2917;"/><polygon fill="none" points="672.0313,159.2771,681.489,176.6315,690.0101,167.4859,672.0313,159.2771" style="stroke:#34495E;stroke-width:1.4583;stroke-linejoin:miter;stroke-miterlimit:10;"/></g><!--reverse link IRegimeDetector to ADXRegimeDetector--><g class="link" data-entity-1="ent0002" data-entity-2="ent0011" data-link-type="extension" data-source-line="603" id="lnk22"><path codeLine="603" d="M607.5458,1369.7406 C577.775,1388.7718 556.7083,1402.2458 526.9479,1421.2771" fill="none" id="IRegimeDetector-backto-ADXRegimeDetector" style="stroke:#34495E;stroke-width:1.4583;stroke-dasharray:7.2917,7.2917;"/><polygon fill="none" points="623.3438,1359.6416,604.1795,1364.4746,610.9122,1375.0066,623.3438,1359.6416" style="stroke:#34495E;stroke-width:1.4583;stroke-linejoin:miter;stroke-miterlimit:10;"/></g><!--reverse link IRegimeDetector to ATRPercentileRegime--><g class="link" data-entity-1="ent0002" data-entity-2="ent0012" data-link-type="extension" data-source-line="604" id="lnk23"><path codeLine="604" d="M652.6624,1376.5381 C636.2874,1410.4652 618.3125,1446.7146 593.9271,1491.8187 C582.5729,1512.7979 569.1458,1535.9021 558.2604,1554.2458" fill="none" id="IRegimeDetector-backto-ATRPercentileRegime" style="stroke:#34495E;stroke-width:1.4583;stroke-dasharray:7.2917,7.2917;"/><polygon fill="none" points="660.8125,1359.6521,647.0337,1373.8214,658.2911,1379.2548,660.8125,1359.6521" style="stroke:#34495E;stroke-width:1.4583;stroke-linejoin:miter;stroke-miterlimit:10;"/></g><!--reverse link IRegimeDetector to CompositeRegimeDetector--><g class="link" data-entity-1="ent0002" data-entity-2="ent0013" data-link-type="extension" data-source-line="605" id="lnk24"><path codeLine="605" d="M673.4351,1378.3472 C674.7163,1453.2952 694.9167,1611.7354 710.9896,1686.6104" fill="none" id="IRegimeDetector-backto-CompositeRegimeDetector" style="stroke:#34495E;stroke-width:1.4583;stroke-dasharray:7.2917,7.2917;"/><polygon fill="none" points="673.1146,1359.6,667.186,1378.4541,679.6842,1378.2404,673.1146,1359.6" style="stroke:#34495E;stroke-width:1.4583;stroke-linejoin:miter;stroke-miterlimit:10;"/></g><!--link CompositeRegimeDetector to IRegimeDetector--><g class="link" data-entity-1="ent0013" data-entity-2="ent0002" data-link-type="aggregation" data-source-line="606" id="lnk25"><path codeLine="606" d="M727.017,1674.1122 C725.7462,1599.2372 706.54,1439.6404 690.4671,1364.6925" fill="none" id="CompositeRegimeDetector-IRegimeDetector" style="stroke:#34495E;stroke-width:1.4583;"/><polygon fill="none" points="727.2292,1686.6104,731.2892,1680.2906,727.017,1674.1122,722.957,1680.432,727.2292,1686.6104" style="stroke:#34495E;stroke-width:1.4583;stroke-linejoin:miter;stroke-miterlimit:10;"/><polygon fill="#34495E" points="689.375,1359.6,687.2668,1369.6403,690.4671,1364.6925,695.4149,1367.8929,689.375,1359.6" style="stroke:#34495E;stroke-width:1.4583;stroke-linejoin:miter;stroke-miterlimit:10;"/><text fill="#111111" font-family="'Verdana'" font-size="11.4583" lengthAdjust="spacing" textLength="7.2845" x="684.8795" y="1378.945">*</text></g><!--link CompositeStrategy to StrategySlot--><g class="link" data-entity-1="ent0010" data-entity-2="ent0026" data-link-type="aggregation" data-source-line="608" id="lnk27"><path codeLine="608" d="M765.3838,1234.8539 C798.2275,1260.9998 820.4244,1278.68 844.4869,1297.8259" fill="none" id="CompositeStrategy-StrategySlot" style="stroke:#34495E;stroke-width:1.4583;"/><polygon fill="none" points="755.6042,1227.0687,757.8989,1234.2212,765.3838,1234.8539,763.089,1227.7015,755.6042,1227.0687" style="stroke:#34495E;stroke-width:1.4583;stroke-linejoin:miter;stroke-miterlimit:10;"/><polygon fill="#34495E" points="848.5625,1301.0687,843.8207,1291.9711,844.4869,1297.8259,838.6321,1298.4921,848.5625,1301.0687" style="stroke:#34495E;stroke-width:1.4583;stroke-linejoin:miter;stroke-miterlimit:10;"/><text fill="#111111" font-family="'Verdana'" font-size="11.4583" lengthAdjust="spacing" textLength="7.2845" x="833.4253" y="1290.3398">*</text></g><!--link StrategySlot to IStrategy--><g class="link" data-entity-1="ent0026" data-entity-2="ent0001" data-link-type="dependency" data-source-line="609" id="lnk28"><path codeLine="609" d="M876.8125,1300.9646 C878.1771,1248.3291 881.4271,1111.5375 881.4271,997.2458 C881.4271,436.8083 881.4271,436.8083 881.4271,436.8083 C881.4271,332.0375 854.0938,300.7041 785.5938,221.4229 C764.1667,196.6312 739.8169,178.3825 712.3273,161.9867" fill="none" id="StrategySlot-to-IStrategy" style="stroke:#34495E;stroke-width:1.4583;"/><polygon fill="#34495E" points="707.8542,159.3187,713.7714,167.6995,712.3273,161.9867,718.0401,160.5425,707.8542,159.3187" style="stroke:#34495E;stroke-width:1.4583;stroke-linejoin:miter;stroke-miterlimit:10;"/><text fill="#111111" font-family="'Verdana'" font-size="11.4583" lengthAdjust="spacing" textLength="7.2845" x="714.8645" y="178.7093">1</text></g><!--link CompositeStrategy to IRegimeDetector--><g class="link" data-entity-1="ent0010" data-entity-2="ent0002" data-link-type="dependency" data-source-line="610" id="lnk29"><path codeLine="610" d="M677.2604,1226.8396 C677.2604,1247.9854 677.2604,1265.6312 677.2604,1283.7562" fill="none" id="CompositeStrategy-to-IRegimeDetector" style="stroke:#34495E;stroke-width:1.4583;"/><polygon fill="#34495E" points="677.2604,1288.9646,681.4271,1279.5896,677.2604,1283.7562,673.0938,1279.5896,677.2604,1288.9646" style="stroke:#34495E;stroke-width:1.4583;stroke-linejoin:miter;stroke-miterlimit:10;"/><text fill="#111111" font-family="'Verdana'" font-size="11.4583" lengthAdjust="spacing" textLength="22.9055" x="653.2377" y="1278.3348">0..1</text></g><!--link BinaryBaseStrategy to DonchianATRVolTarget--><!--link DonchianATRVolTarget to EMA_MACD_ATR--><!--link EMA_MACD_ATR to EMACrossMACDTrend--><!--link EMACrossMACDTrend to ICTLiquiditySweepFVG--><!--link ICTLiquiditySweepFVG to FundingRateArbStrategy--><!--link FundingRateArbStrategy to CompositeStrategy--><!--link ADXRegimeDetector to ATRPercentileRegime--><!--link ATRPercentileRegime to CompositeRegimeDetector--><?plantuml-src bLR_Rk964FwVfzWcKfjGd8GSJGYAa0msJQIBhWheL2awMOizm2hBhhkxX72NI7s8Fk4zIMUDSOn_f5UaH6PszllcnpTZVZ8BM089GQquKE78bU5CGEDQcms7VeCG9QKXwUSR6KbXXf9BHGxRoOUyeezXXiD_-CoLNCKtG2DGjJvwpPQS2gZ7kJvD0zjINcls5NhjRh_P71j53Smtv8Q1eYfSRCZtl_yXGob21GPQ-BICfMO6oC_a7kPi2SqcmY50lz7GZqp4LD4b-MRZMD18hfcO4wDMW8O8PdJ5ZOreZ1T8kut6a5EjtqpdUoOR9PbA7g7LLKgkqqm-T3fNl_axusJ1maS1MfFsIQVncWiZGRg-PZCQGh-VH3MWuQEjeeXIBE_2TqTTUo8LbZMrdbzrpmPNQDqMktJBzRsBaOt_BKvcA6TX5V-Kwbfwl-kv_gX8t_Kx7TUhf_VE1ntFh-BIjeDrPAEEFnnT_b-oDCGACfKee3QrWUUFpefibnUTJjTz9xLBl7QER0qc32ZREdARwNA_cR_EGO0z2JIR2ygFz6Q9SZcsHr84KwgEyAz5GlDyt2Cx40z2ffaKo96ZsAhPGvM71kCe44M9FO-szHyRXBJ1qgcjV6YsfI439gZQ3B3nkT1pEZX4f40Z4P1JCbtDy7zIMVrELZtoAJOOD-KFoFNb1vF49R2BxPKS1fmzPRYojMZnLjXwAa5ZGjiyxiUtauK2lS0X9FlgKfe5CIWc8mnUFe6QojLyOT8lsaxjQuhYuVvOC2hSoVrdoITKpS4KqABm3OmQ5InnK-2ZOlenY4E37ZF6iLc1sSH0Zc19NsZq_2AaWEECnxzpWpjtw0L8LC372y6CQdEgkLmZy9A6KT3CaUL1XafgRO4c2aGnxmmbG4mB43tRG3LB8yo0ReUJZ-ol5OkOsOpN0F7ey-y5h4V6-LTC0G5k9YCoPLJZexREU7et7kCtU-kKV9hubWNpJwgNaOnmSd37tcFJNJNDYIrFesDy_JnfWXME2QgGQKBL50zM6b2hL8qt8XoiPZDyhHpPOZ1dDqcP4hBDNyFXO4cCxf6FJ9k7dSyORLQepdPJ154wNhtYl5cVMEB-tFG8eX9oD6FF4Bsaz-Q8jdjU0qEPsHbt0iiPm3Epn1uBZLLlY_XekAE2pk67foHBq_N-B6s2lJMNgTHORGGccuvJ4Z4CDCvQWoBy0rG8mZ0EMz0Yc1LV1eZloYZHve9PoUC3budsNuijU3z2PrVbNJSAjKx6ExTINqvEAlPLesg5lJZEtaeembGDUj4dFwGLP_kpLtIecgcYJ_L85BrAUiQQ5Ejg_Kg2g74hDxlQiQQ9ZRhcIiVfauFcGMbY6kM9p7ppyzV8Vo69H_lWxPLQ0PFud9sSjCkal-2XGt2_6nPIJZZTu8zT5AmmsfvKYSPvMB0e0l45KIlrKVbsoD_QKypUZYzu5RHJtkHv_sefLUti_AqQSTMiuVpDik3AkoRlNwMegfLIoL5esxy0?></g></svg>