<svg xmlns="http://www.w3.org/2000/svg" xmlns:xlink="http://www.w3.org/1999/xlink" contentStyleType="text/css" data-diagram-type="CLASS" height="1229.1667px" preserveAspectRatio="none" style="width:760px;height:1229px;" version="1.1" viewBox="0 0 760 1229" width="760.4167px" zoomAndPan="magnify"><?plantuml 1.2026.5?><defs><filter height="300%" id="f1hd9sin7zhbrb" width="300%" x="-1" y="-1"><feGaussianBlur result="blurOut" stdDeviation="2.0833"/><feColorMatrix in="blurOut" result="blurOut2" type="matrix" values="0 0 0 0 0 0 0 0 0 0 0 0 0 0 0 0 0 0 .4 0"/><feOffset dx="4.1667" dy="4.1667" in="blurOut2" result="blurOut3"/><feBlend in="SourceGraphic" in2="blurOut3" mode="normal"/></filter></defs><g><g class="title" data-source-line="1137"><rect fill="none" height="35.2875" rx="4.1667" ry="4.1667" style="stroke:#BABDBF;stroke-width:1.0417;" width="370.2332" x="194.2669" y="20.8333"/><text fill="#111111" font-family="'Verdana'" font-size="18.75" font-weight="700" lengthAdjust="spacing" textLength="357.7332" x="200.5169" y="45.934">News &amp; Sentiment &#8212; Components</text></g><!--class INewsSource--><g class="entity" data-qualified-name="INewsSource" data-source-line="1164" id="ent0001"><rect fill="#FADBD8" filter="url(#f1hd9sin7zhbrb)" height="70.1263" rx="4.1667" ry="4.1667" style="stroke:#E74C3C;stroke-width:1.0417;" width="281.839" x="144.4063" y="277.1208"/><rect fill="#F1948A" height="39.534" rx="4.1667" ry="4.1667" style="stroke:#F1948A;stroke-width:1.0417;" width="281.839" x="144.4063" y="277.1208"/><rect fill="#F1948A" height="4.1667" style="stroke:#F1948A;stroke-width:1.0417;" width="281.839" x="144.4063" y="312.4881"/><rect fill="none" height="70.1263" rx="4.1667" ry="4.1667" style="stroke:#E74C3C;stroke-width:1.0417;" width="281.839" x="144.4063" y="277.1208"/><ellipse cx="240.352" cy="296.8878" fill="#D2494E" rx="9.375" ry="9.375" style="stroke:#FFFFFF;stroke-width:1.0417;"/><path d="M238.1893,294.156 L238.1893,292.7013 L243.1632,292.7013 L243.1632,294.156 L241.5015,294.156 L241.5015,299.5998 L243.1632,299.5998 L243.1632,301.0545 L238.1893,301.0545 L238.1893,299.5998 L239.851,299.5998 L239.851,294.156 Z " fill="#111111"/><text fill="#343A40" font-family="Verdana" font-size="11.4583" font-style="italic" lengthAdjust="spacing" textLength="41.6204" x="278.8385" y="293.849">&#171;iface&#187;</text><text fill="#111111" font-family="'Verdana'" font-size="12.5" font-style="italic" lengthAdjust="spacing" textLength="82.135" x="258.5812" y="308.822">INewsSource</text><line style="stroke:#E74C3C;stroke-width:1.0417;" x1="145.4479" x2="425.2036" y1="316.6548" y2="316.6548"/><line style="stroke:#E74C3C;stroke-width:1.0417;" x1="145.4479" x2="425.2036" y1="324.9881" y2="324.9881"/><g data-visibility-modifier="PUBLIC_METHOD"><ellipse cx="155.8646" cy="337.6801" fill="none" rx="3.125" ry="3.125" style="stroke:#2683B9;stroke-width:1.0417;"/></g><text fill="#111111" font-family="'Verdana'" font-size="11.4583" lengthAdjust="spacing" textLength="256.839" x="163.1563" y="340.6747">fetch_news(symbol, limit): List[NewsArticle]</text></g><!--class ISentimentAnalyzer--><g class="entity" data-qualified-name="ISentimentAnalyzer" data-source-line="1167" id="ent0002"><rect fill="#FADBD8" filter="url(#f1hd9sin7zhbrb)" height="70.1263" rx="4.1667" ry="4.1667" style="stroke:#E74C3C;stroke-width:1.0417;" width="191.8844" x="342.5104" y="549.3396"/><rect fill="#F1948A" height="39.534" rx="4.1667" ry="4.1667" style="stroke:#F1948A;stroke-width:1.0417;" width="191.8844" x="342.5104" y="549.3396"/><rect fill="#F1948A" height="4.1667" style="stroke:#F1948A;stroke-width:1.0417;" width="191.8844" x="342.5104" y="584.7069"/><rect fill="none" height="70.1263" rx="4.1667" ry="4.1667" style="stroke:#E74C3C;stroke-width:1.0417;" width="191.8844" x="342.5104" y="549.3396"/><ellipse cx="373.4398" cy="569.1066" fill="#D2494E" rx="9.375" ry="9.375" style="stroke:#FFFFFF;stroke-width:1.0417;"/><path d="M371.2771,566.3747 L371.2771,564.9201 L376.251,564.9201 L376.251,566.3747 L374.5893,566.3747 L374.5893,571.8186 L376.251,571.8186 L376.251,573.2732 L371.2771,573.2732 L371.2771,571.8186 L372.9388,571.8186 L372.9388,566.3747 Z " fill="#111111"/><text fill="#343A40" font-family="Verdana" font-size="11.4583" font-style="italic" lengthAdjust="spacing" textLength="41.6204" x="431.0327" y="566.0678">&#171;iface&#187;</text><text fill="#111111" font-family="'Verdana'" font-size="12.5" font-style="italic" lengthAdjust="spacing" textLength="124.0784" x="389.8037" y="581.0407">ISentimentAnalyzer</text><line style="stroke:#E74C3C;stroke-width:1.0417;" x1="343.5521" x2="533.3531" y1="588.8736" y2="588.8736"/><line style="stroke:#E74C3C;stroke-width:1.0417;" x1="343.5521" x2="533.3531" y1="597.2069" y2="597.2069"/><g data-visibility-modifier="PUBLIC_METHOD"><ellipse cx="353.9688" cy="609.8989" fill="none" rx="3.125" ry="3.125" style="stroke:#2683B9;stroke-width:1.0417;"/></g><text fill="#111111" font-family="'Verdana'" font-size="11.4583" lengthAdjust="spacing" textLength="166.8844" x="361.2604" y="612.8934">analyze(texts, symbol): float</text></g><!--class IMarginAdjuster--><g class="entity" data-qualified-name="IMarginAdjuster" data-source-line="1170" id="ent0003"><rect fill="#FADBD8" filter="url(#f1hd9sin7zhbrb)" height="70.1263" rx="4.1667" ry="4.1667" style="stroke:#E74C3C;stroke-width:1.0417;" width="344.7983" x="390.0104" y="842.4437"/><rect fill="#F1948A" height="39.534" rx="4.1667" ry="4.1667" style="stroke:#F1948A;stroke-width:1.0417;" width="344.7983" x="390.0104" y="842.4437"/><rect fill="#F1948A" height="4.1667" style="stroke:#F1948A;stroke-width:1.0417;" width="344.7983" x="390.0104" y="877.8111"/><rect fill="none" height="70.1263" rx="4.1667" ry="4.1667" style="stroke:#E74C3C;stroke-width:1.0417;" width="344.7983" x="390.0104" y="842.4437"/><ellipse cx="508.2531" cy="862.2107" fill="#D2494E" rx="9.375" ry="9.375" style="stroke:#FFFFFF;stroke-width:1.0417;"/><path d="M506.0904,859.4789 L506.0904,858.0242 L511.0642,858.0242 L511.0642,859.4789 L509.4026,859.4789 L509.4026,864.9227 L511.0642,864.9227 L511.0642,866.3774 L506.0904,866.3774 L506.0904,864.9227 L507.7521,864.9227 L507.7521,859.4789 Z " fill="#111111"/><text fill="#343A40" font-family="Verdana" font-size="11.4583" font-style="italic" lengthAdjust="spacing" textLength="41.6204" x="555.9223" y="859.1719">&#171;iface&#187;</text><text fill="#111111" font-family="'Verdana'" font-size="12.5" font-style="italic" lengthAdjust="spacing" textLength="100.5005" x="526.4822" y="874.1449">IMarginAdjuster</text><line style="stroke:#E74C3C;stroke-width:1.0417;" x1="391.0521" x2="733.767" y1="881.9777" y2="881.9777"/><line style="stroke:#E74C3C;stroke-width:1.0417;" x1="391.0521" x2="733.767" y1="890.3111" y2="890.3111"/><g data-visibility-modifier="PUBLIC_METHOD"><ellipse cx="401.4688" cy="903.0031" fill="none" rx="3.125" ry="3.125" style="stroke:#2683B9;stroke-width:1.0417;"/></g><text fill="#111111" font-family="'Verdana'" font-size="11.4583" lengthAdjust="spacing" textLength="319.7983" x="408.7604" y="905.9976">compute_margin_multiplier(direction, sentiment): float</text></g><!--class NewsEngine--><g class="entity" data-qualified-name="NewsEngine" data-source-line="1174" id="ent0004"><rect fill="#FDEBD0" filter="url(#f1hd9sin7zhbrb)" height="139.7547" rx="4.1667" ry="4.1667" style="stroke:#E67E22;stroke-width:1.0417;" width="279.3325" x="243.5729" y="74.8708"/><rect fill="#F5CBA7" height="39.534" rx="4.1667" ry="4.1667" style="stroke:#F5CBA7;stroke-width:1.0417;" width="279.3325" x="243.5729" y="74.8708"/><rect fill="#F5CBA7" height="4.1667" style="stroke:#F5CBA7;stroke-width:1.0417;" width="279.3325" x="243.5729" y="110.2381"/><rect fill="none" height="139.7547" rx="4.1667" ry="4.1667" style="stroke:#E67E22;stroke-width:1.0417;" width="279.3325" x="243.5729" y="74.8708"/><ellipse cx="336.2299" cy="94.6378" fill="#EDF0F2" rx="9.375" ry="9.375" style="stroke:#BABDBF;stroke-width:1.0417;"/><path d="M337.5905,98.5639 Q337.1988,98.7653 336.768,98.866 Q336.3372,98.9667 335.8616,98.9667 Q334.172,98.9667 333.2824,97.8533 Q332.3928,96.74 332.3928,94.6363 Q332.3928,92.527 333.2824,91.4136 Q334.172,90.3002 335.8616,90.3002 Q336.3372,90.3002 336.7736,90.401 Q337.21,90.5017 337.5905,90.7031 L337.5905,92.5382 Q337.1652,92.1466 336.7652,91.9647 Q336.3652,91.7829 335.94,91.7829 Q335.0336,91.7829 334.572,92.5018 Q334.1104,93.2208 334.1104,94.6363 Q334.1104,96.0462 334.572,96.7651 Q335.0336,97.4841 335.94,97.4841 Q336.3652,97.4841 336.7652,97.3022 Q337.1652,97.1204 337.5905,96.7288 Z " fill="#111111"/><text fill="#343A40" font-family="Verdana" font-size="11.4583" font-style="italic" lengthAdjust="spacing" textLength="53.1906" x="370.9668" y="91.599">&#171;engine&#187;</text><text fill="#111111" font-family="'Verdana'" font-size="12.5" font-weight="700" lengthAdjust="spacing" textLength="86.2061" x="354.459" y="106.572">NewsEngine</text><line style="stroke:#E67E22;stroke-width:1.0417;" x1="244.6146" x2="521.8637" y1="114.4048" y2="114.4048"/><g data-visibility-modifier="PRIVATE_FIELD"><rect fill="none" height="6.25" style="stroke:#2683B9;stroke-width:1.0417;" width="6.25" x="251.9063" y="123.9718"/></g><text fill="#111111" font-family="'Verdana'" font-size="11.4583" lengthAdjust="spacing" textLength="159.0907" x="262.3229" y="130.0913">news_source: INewsSource</text><g data-visibility-modifier="PRIVATE_FIELD"><rect fill="none" height="6.25" style="stroke:#2683B9;stroke-width:1.0417;" width="6.25" x="251.9063" y="137.8975"/></g><text fill="#111111" font-family="'Verdana'" font-size="11.4583" lengthAdjust="spacing" textLength="236.3897" x="262.3229" y="144.017">sentiment_analyzer: ISentimentAnalyzer</text><g data-visibility-modifier="PRIVATE_FIELD"><rect fill="none" height="6.25" style="stroke:#2683B9;stroke-width:1.0417;" width="6.25" x="251.9063" y="151.8232"/></g><text fill="#111111" font-family="'Verdana'" font-size="11.4583" lengthAdjust="spacing" textLength="166.4591" x="262.3229" y="157.9427">refresh_interval / news_limit</text><g data-visibility-modifier="PRIVATE_FIELD"><rect fill="none" height="6.25" style="stroke:#2683B9;stroke-width:1.0417;" width="6.25" x="251.9063" y="165.7489"/></g><text fill="#111111" font-family="'Verdana'" font-size="11.4583" lengthAdjust="spacing" textLength="128.3076" x="262.3229" y="171.8684">_cache: Dict[str, Dict]</text><line style="stroke:#E67E22;stroke-width:1.0417;" x1="244.6146" x2="521.8637" y1="178.4409" y2="178.4409"/><g data-visibility-modifier="PUBLIC_METHOD"><ellipse cx="255.0313" cy="191.1329" fill="none" rx="3.125" ry="3.125" style="stroke:#2683B9;stroke-width:1.0417;"/></g><text fill="#111111" font-family="'Verdana'" font-size="11.4583" lengthAdjust="spacing" textLength="254.3325" x="262.3229" y="194.1274">get_sentiment(symbol, force_refresh): float</text><g data-visibility-modifier="PUBLIC_METHOD"><ellipse cx="255.0313" cy="205.0585" fill="none" rx="3.125" ry="3.125" style="stroke:#2683B9;stroke-width:1.0417;"/></g><text fill="#111111" font-family="'Verdana'" font-size="11.4583" lengthAdjust="spacing" textLength="159.3424" x="262.3229" y="208.0531">prefetch_symbols(symbols)</text></g><!--class CryptoCompareNewsSource--><g class="entity" data-qualified-name="CryptoCompareNewsSource" data-source-line="1182" id="ent0005"><rect fill="#D5F5E3" filter="url(#f1hd9sin7zhbrb)" height="70.1263" rx="4.1667" ry="4.1667" style="stroke:#27AE60;stroke-width:1.0417;" width="224.8149" x="17.7083" y="409.7562"/><rect fill="#ABEBC6" height="39.534" rx="4.1667" ry="4.1667" style="stroke:#ABEBC6;stroke-width:1.0417;" width="224.8149" x="17.7083" y="409.7562"/><rect fill="#ABEBC6" height="4.1667" style="stroke:#ABEBC6;stroke-width:1.0417;" width="224.8149" x="17.7083" y="445.1236"/><rect fill="none" height="70.1263" rx="4.1667" ry="4.1667" style="stroke:#27AE60;stroke-width:1.0417;" width="224.8149" x="17.7083" y="409.7562"/><ellipse cx="31.25" cy="429.5232" fill="#EDF0F2" rx="9.375" ry="9.375" style="stroke:#BABDBF;stroke-width:1.0417;"/><path d="M32.6106,433.4493 Q32.2189,433.6507 31.7881,433.7514 Q31.3573,433.8521 30.8818,433.8521 Q29.1921,433.8521 28.3025,432.7388 Q27.4129,431.6254 27.4129,429.5217 Q27.4129,427.4124 28.3025,426.299 Q29.1921,425.1857 30.8818,425.1857 Q31.3573,425.1857 31.7937,425.2864 Q32.2301,425.3871 32.6106,425.5885 L32.6106,427.4236 Q32.1854,427.032 31.7853,426.8501 Q31.3853,426.6683 30.9601,426.6683 Q30.0537,426.6683 29.5921,427.3872 Q29.1306,428.1062 29.1306,429.5217 Q29.1306,430.9316 29.5921,431.6506 Q30.0537,432.3695 30.9601,432.3695 Q31.3853,432.3695 31.7853,432.1877 Q32.1854,432.0058 32.6106,431.6142 Z " fill="#111111"/><text fill="#343A40" font-family="Verdana" font-size="11.4583" font-style="italic" lengthAdjust="spacing" textLength="39.3489" x="121.8997" y="426.4844">&#171;impl&#187;</text><text fill="#111111" font-family="'Verdana'" font-size="12.5" font-weight="700" lengthAdjust="spacing" textLength="195.6482" x="43.75" y="441.4574">CryptoCompareNewsSource</text><line style="stroke:#27AE60;stroke-width:1.0417;" x1="18.75" x2="241.4815" y1="449.2902" y2="449.2902"/><line style="stroke:#27AE60;stroke-width:1.0417;" x1="18.75" x2="241.4815" y1="457.6236" y2="457.6236"/><g data-visibility-modifier="PUBLIC_METHOD"><ellipse cx="29.1667" cy="470.3156" fill="none" rx="3.125" ry="3.125" style="stroke:#2683B9;stroke-width:1.0417;"/></g><text fill="#111111" font-family="'Verdana'" font-size="11.4583" lengthAdjust="spacing" textLength="150.1277" x="36.4583" y="473.3101">fetch_news(symbol, limit)</text></g><!--class DDGNewsSource--><g class="entity" data-qualified-name="DDGNewsSource" data-source-line="1185" id="ent0006"><rect fill="#D5F5E3" filter="url(#f1hd9sin7zhbrb)" height="84.052" rx="4.1667" ry="4.1667" style="stroke:#27AE60;stroke-width:1.0417;" width="175.1277" x="131.0938" y="542.3812"/><rect fill="#ABEBC6" height="39.534" rx="4.1667" ry="4.1667" style="stroke:#ABEBC6;stroke-width:1.0417;" width="175.1277" x="131.0938" y="542.3812"/><rect fill="#ABEBC6" height="4.1667" style="stroke:#ABEBC6;stroke-width:1.0417;" width="175.1277" x="131.0938" y="577.7486"/><rect fill="none" height="84.052" rx="4.1667" ry="4.1667" style="stroke:#27AE60;stroke-width:1.0417;" width="175.1277" x="131.0938" y="542.3812"/><ellipse cx="157.3665" cy="562.1482" fill="#EDF0F2" rx="9.375" ry="9.375" style="stroke:#BABDBF;stroke-width:1.0417;"/><path d="M158.7271,566.0743 Q158.3354,566.2757 157.9046,566.3764 Q157.4738,566.4771 156.9983,566.4771 Q155.3086,566.4771 154.419,565.3638 Q153.5294,564.2504 153.5294,562.1467 Q153.5294,560.0374 154.419,558.924 Q155.3086,557.8107 156.9983,557.8107 Q157.4738,557.8107 157.9102,557.9114 Q158.3466,558.0121 158.7271,558.2135 L158.7271,560.0486 Q158.3019,559.657 157.9018,559.4751 Q157.5018,559.2933 157.0766,559.2933 Q156.1702,559.2933 155.7086,560.0122 Q155.2471,560.7312 155.2471,562.1467 Q155.2471,563.5566 155.7086,564.2756 Q156.1702,564.9945 157.0766,564.9945 Q157.5018,564.9945 157.9018,564.8127 Q158.3019,564.6308 158.7271,564.2392 Z " fill="#111111"/><text fill="#343A40" font-family="Verdana" font-size="11.4583" font-style="italic" lengthAdjust="spacing" textLength="39.3489" x="211.8561" y="559.1094">&#171;impl&#187;</text><text fill="#111111" font-family="'Verdana'" font-size="12.5" font-weight="700" lengthAdjust="spacing" textLength="117.6697" x="172.6956" y="574.0824">DDGNewsSource</text><line style="stroke:#27AE60;stroke-width:1.0417;" x1="132.1354" x2="305.1797" y1="581.9152" y2="581.9152"/><g data-visibility-modifier="PRIVATE_FIELD"><rect fill="none" height="6.25" style="stroke:#2683B9;stroke-width:1.0417;" width="6.25" x="139.4271" y="591.4822"/></g><text fill="#111111" font-family="'Verdana'" font-size="11.4583" lengthAdjust="spacing" textLength="70.9936" x="149.8438" y="597.6018">ddgs: DDGS</text><line style="stroke:#27AE60;stroke-width:1.0417;" x1="132.1354" x2="305.1797" y1="604.1742" y2="604.1742"/><g data-visibility-modifier="PUBLIC_METHOD"><ellipse cx="142.5521" cy="616.8662" fill="none" rx="3.125" ry="3.125" style="stroke:#2683B9;stroke-width:1.0417;"/></g><text fill="#111111" font-family="'Verdana'" font-size="11.4583" lengthAdjust="spacing" textLength="150.1277" x="149.8438" y="619.8608">fetch_news(symbol, limit)</text></g><!--class OpenAISentimentAnalyzer--><g class="entity" data-qualified-name="OpenAISentimentAnalyzer" data-source-line="1189" id="ent0007"><rect fill="#D5F5E3" filter="url(#f1hd9sin7zhbrb)" height="84.052" rx="4.1667" ry="4.1667" style="stroke:#27AE60;stroke-width:1.0417;" width="215.7878" x="138.8854" y="688.9333"/><rect fill="#ABEBC6" height="39.534" rx="4.1667" ry="4.1667" style="stroke:#ABEBC6;stroke-width:1.0417;" width="215.7878" x="138.8854" y="688.9333"/><rect fill="#ABEBC6" height="4.1667" style="stroke:#ABEBC6;stroke-width:1.0417;" width="215.7878" x="138.8854" y="724.3006"/><rect fill="none" height="84.052" rx="4.1667" ry="4.1667" style="stroke:#27AE60;stroke-width:1.0417;" width="215.7878" x="138.8854" y="688.9333"/><ellipse cx="152.4271" cy="708.7003" fill="#EDF0F2" rx="9.375" ry="9.375" style="stroke:#BABDBF;stroke-width:1.0417;"/><path d="M153.7877,712.6264 Q153.396,712.8278 152.9652,712.9285 Q152.5344,713.0292 152.0588,713.0292 Q150.3692,713.0292 149.4796,711.9158 Q148.59,710.8025 148.59,708.6988 Q148.59,706.5895 149.4796,705.4761 Q150.3692,704.3627 152.0588,704.3627 Q152.5344,704.3627 152.9708,704.4635 Q153.4072,704.5642 153.7877,704.7656 L153.7877,706.6007 Q153.3624,706.2091 152.9624,706.0272 Q152.5624,705.8454 152.1372,705.8454 Q151.2308,705.8454 150.7692,706.5643 Q150.3076,707.2833 150.3076,708.6988 Q150.3076,710.1087 150.7692,710.8276 Q151.2308,711.5466 152.1372,711.5466 Q152.5624,711.5466 152.9624,711.3647 Q153.3624,711.1829 153.7877,710.7913 Z " fill="#111111"/><text fill="#343A40" font-family="Verdana" font-size="11.4583" font-style="italic" lengthAdjust="spacing" textLength="39.3489" x="238.5632" y="705.6615">&#171;impl&#187;</text><text fill="#111111" font-family="'Verdana'" font-size="12.5" font-weight="700" lengthAdjust="spacing" textLength="186.6211" x="164.9271" y="720.6345">OpenAISentimentAnalyzer</text><line style="stroke:#27AE60;stroke-width:1.0417;" x1="139.9271" x2="353.6315" y1="728.4673" y2="728.4673"/><g data-visibility-modifier="PRIVATE_FIELD"><rect fill="none" height="6.25" style="stroke:#2683B9;stroke-width:1.0417;" width="6.25" x="147.2188" y="738.0343"/></g><text fill="#111111" font-family="'Verdana'" font-size="11.4583" lengthAdjust="spacing" textLength="59.815" x="157.6354" y="744.1538">model: str</text><line style="stroke:#27AE60;stroke-width:1.0417;" x1="139.9271" x2="353.6315" y1="750.7263" y2="750.7263"/><g data-visibility-modifier="PUBLIC_METHOD"><ellipse cx="150.3438" cy="763.4183" fill="none" rx="3.125" ry="3.125" style="stroke:#2683B9;stroke-width:1.0417;"/></g><text fill="#111111" font-family="'Verdana'" font-size="11.4583" lengthAdjust="spacing" textLength="166.8844" x="157.6354" y="766.4129">analyze(texts, symbol): float</text></g><!--class GeminiSentimentAnalyzer--><g class="entity" data-qualified-name="GeminiSentimentAnalyzer" data-source-line="1193" id="ent0008"><rect fill="#D5F5E3" filter="url(#f1hd9sin7zhbrb)" height="84.052" rx="4.1667" ry="4.1667" style="stroke:#27AE60;stroke-width:1.0417;" width="214.415" x="139.5729" y="835.4854"/><rect fill="#ABEBC6" height="39.534" rx="4.1667" ry="4.1667" style="stroke:#ABEBC6;stroke-width:1.0417;" width="214.415" x="139.5729" y="835.4854"/><rect fill="#ABEBC6" height="4.1667" style="stroke:#ABEBC6;stroke-width:1.0417;" width="214.415" x="139.5729" y="870.8527"/><rect fill="none" height="84.052" rx="4.1667" ry="4.1667" style="stroke:#27AE60;stroke-width:1.0417;" width="214.415" x="139.5729" y="835.4854"/><ellipse cx="154.2903" cy="855.2524" fill="#EDF0F2" rx="9.375" ry="9.375" style="stroke:#BABDBF;stroke-width:1.0417;"/><path d="M155.6509,859.1785 Q155.2593,859.3799 154.8285,859.4806 Q154.3977,859.5813 153.9221,859.5813 Q152.2324,859.5813 151.3429,858.4679 Q150.4533,857.3545 150.4533,855.2509 Q150.4533,853.1416 151.3429,852.0282 Q152.2324,850.9148 153.9221,850.9148 Q154.3977,850.9148 154.8341,851.0155 Q155.2705,851.1162 155.6509,851.3177 L155.6509,853.1528 Q155.2257,852.7611 154.8257,852.5793 Q154.4256,852.3975 154.0004,852.3975 Q153.0941,852.3975 152.6325,853.1164 Q152.1709,853.8354 152.1709,855.2509 Q152.1709,856.6608 152.6325,857.3797 Q153.0941,858.0987 154.0004,858.0987 Q154.4256,858.0987 154.8257,857.9168 Q155.2257,857.735 155.6509,857.3434 Z " fill="#111111"/><text fill="#343A40" font-family="Verdana" font-size="11.4583" font-style="italic" lengthAdjust="spacing" textLength="39.3489" x="238.695" y="852.2136">&#171;impl&#187;</text><text fill="#111111" font-family="'Verdana'" font-size="12.5" font-weight="700" lengthAdjust="spacing" textLength="182.6355" x="167.0516" y="867.1865">GeminiSentimentAnalyzer</text><line style="stroke:#27AE60;stroke-width:1.0417;" x1="140.6146" x2="352.9462" y1="875.0194" y2="875.0194"/><g data-visibility-modifier="PRIVATE_FIELD"><rect fill="none" height="6.25" style="stroke:#2683B9;stroke-width:1.0417;" width="6.25" x="147.9063" y="884.5864"/></g><text fill="#111111" font-family="'Verdana'" font-size="11.4583" lengthAdjust="spacing" textLength="189.415" x="158.3229" y="890.7059">model_name: "gemini-2.5-flash"</text><line style="stroke:#27AE60;stroke-width:1.0417;" x1="140.6146" x2="352.9462" y1="897.2784" y2="897.2784"/><g data-visibility-modifier="PUBLIC_METHOD"><ellipse cx="151.0313" cy="909.9704" fill="none" rx="3.125" ry="3.125" style="stroke:#2683B9;stroke-width:1.0417;"/></g><text fill="#111111" font-family="'Verdana'" font-size="11.4583" lengthAdjust="spacing" textLength="166.8844" x="158.3229" y="912.9649">analyze(texts, symbol): float</text></g><!--class SentimentMarginAdjuster--><g class="entity" data-qualified-name="SentimentMarginAdjuster" data-source-line="1197" id="ent0009"><rect fill="#D5F5E3" filter="url(#f1hd9sin7zhbrb)" height="97.9777" rx="4.1667" ry="4.1667" style="stroke:#27AE60;stroke-width:1.0417;" width="344.7983" x="231.6771" y="982.0375"/><rect fill="#ABEBC6" height="39.534" rx="4.1667" ry="4.1667" style="stroke:#ABEBC6;stroke-width:1.0417;" width="344.7983" x="231.6771" y="982.0375"/><rect fill="#ABEBC6" height="4.1667" style="stroke:#ABEBC6;stroke-width:1.0417;" width="344.7983" x="231.6771" y="1017.4048"/><rect fill="none" height="97.9777" rx="4.1667" ry="4.1667" style="stroke:#27AE60;stroke-width:1.0417;" width="344.7983" x="231.6771" y="982.0375"/><ellipse cx="309.9112" cy="1001.8045" fill="#EDF0F2" rx="9.375" ry="9.375" style="stroke:#BABDBF;stroke-width:1.0417;"/><path d="M311.2718,1005.7306 Q310.8801,1005.932 310.4493,1006.0327 Q310.0185,1006.1334 309.5429,1006.1334 Q307.8533,1006.1334 306.9637,1005.02 Q306.0741,1003.9066 306.0741,1001.8029 Q306.0741,999.6937 306.9637,998.5803 Q307.8533,997.4669 309.5429,997.4669 Q310.0185,997.4669 310.4549,997.5676 Q310.8913,997.6683 311.2718,997.8697 L311.2718,999.7049 Q310.8465,999.3132 310.4465,999.1314 Q310.0465,998.9496 309.6213,998.9496 Q308.7149,998.9496 308.2533,999.6685 Q307.7917,1000.3874 307.7917,1001.8029 Q307.7917,1003.2129 308.2533,1003.9318 Q308.7149,1004.6507 309.6213,1004.6507 Q310.0465,1004.6507 310.4465,1004.4689 Q310.8465,1004.2871 311.2718,1003.8954 Z " fill="#111111"/><text fill="#343A40" font-family="Verdana" font-size="11.4583" font-style="italic" lengthAdjust="spacing" textLength="39.3489" x="398.7247" y="998.7657">&#171;impl&#187;</text><text fill="#111111" font-family="'Verdana'" font-size="12.5" font-weight="700" lengthAdjust="spacing" textLength="180.5176" x="328.1404" y="1013.7386">SentimentMarginAdjuster</text><line style="stroke:#27AE60;stroke-width:1.0417;" x1="232.7188" x2="575.4337" y1="1021.5715" y2="1021.5715"/><g data-visibility-modifier="PRIVATE_FIELD"><rect fill="none" height="6.25" style="stroke:#2683B9;stroke-width:1.0417;" width="6.25" x="240.0104" y="1031.1385"/></g><text fill="#111111" font-family="'Verdana'" font-size="11.4583" lengthAdjust="spacing" textLength="175.4166" x="250.4271" y="1037.258">high/low_sentiment_threshold</text><g data-visibility-modifier="PRIVATE_FIELD"><rect fill="none" height="6.25" style="stroke:#2683B9;stroke-width:1.0417;" width="6.25" x="240.0104" y="1045.0642"/></g><text fill="#111111" font-family="'Verdana'" font-size="11.4583" lengthAdjust="spacing" textLength="139.3295" x="250.4271" y="1051.1837">margin_boost_max: 0.5</text><line style="stroke:#27AE60;stroke-width:1.0417;" x1="232.7188" x2="575.4337" y1="1057.7562" y2="1057.7562"/><g data-visibility-modifier="PUBLIC_METHOD"><ellipse cx="243.1354" cy="1070.4482" fill="none" rx="3.125" ry="3.125" style="stroke:#2683B9;stroke-width:1.0417;"/></g><text fill="#111111" font-family="'Verdana'" font-size="11.4583" lengthAdjust="spacing" textLength="319.7983" x="250.4271" y="1073.4427">compute_margin_multiplier(direction, sentiment): float</text></g><g class="entity" data-qualified-name="GMN23" data-source-line="1219" id="ent0024"><path d="M252.2188,1146.6833 L252.2188,1204.4694 A4.1667,4.1667 0 0 0 256.3854,1208.636 L551.7584,1208.636 A4.1667,4.1667 0 0 0 555.9251,1204.4694 L555.9251,1152.9333 L545.5084,1142.5166 L408.2396,1142.5166 L404.0729,1080.2979 L399.9063,1142.5166 L256.3854,1142.5166 A4.1667,4.1667 0 0 0 252.2188,1146.6833" fill="none" filter="url(#f1hd9sin7zhbrb)" style="stroke:#033C73;stroke-width:1.0417;"/><path d="M545.5084,1142.5166 L545.5084,1150.85 A2.0833,2.0833 0 0 0 547.5918,1152.9333 L555.9251,1152.9333 L545.5084,1142.5166" fill="none" style="stroke:#033C73;stroke-width:1.0417;"/><text fill="#111111" font-family="'Verdana'" font-size="11.4583" lengthAdjust="spacing" textLength="269.1366" x="258.4688" y="1159.2449">LONG + bullish (&gt;0.75) &#8594; margin &#215;(1+boost)</text><text fill="#111111" font-family="'Verdana'" font-size="11.4583" lengthAdjust="spacing" textLength="281.8314" x="258.4688" y="1173.1705">SHORT + bearish (&lt;0.25) &#8594; margin &#215;(1+boost)</text><text fill="#111111" font-family="'Verdana'" font-size="11.4583" lengthAdjust="spacing" textLength="181.5374" x="258.4688" y="1187.0962">otherwise &#8594; &#215;1.0 (no change).</text><text fill="#111111" font-family="'Verdana'" font-size="11.4583" lengthAdjust="spacing" textLength="74.261" x="258.4688" y="1201.0219">Sizing boost,</text><text fill="#111111" font-family="'Verdana'" font-size="11.4583" font-weight="700" lengthAdjust="spacing" textLength="21.2494" x="336.758" y="1201.0219">not</text><text fill="#111111" font-family="'Verdana'" font-size="11.4583" lengthAdjust="spacing" textLength="77.7969" x="362.0357" y="1201.0219">signal gating.</text></g><!--reverse link INewsSource to CryptoCompareNewsSource--><g class="link" data-entity-1="ent0001" data-entity-2="ent0005" data-link-type="extension" data-source-line="1203" id="lnk10"><path codeLine="1203" d="M230.1934,359.5973 C207.558,378.6389 193.8333,390.1729 171.1563,409.2458" fill="none" id="INewsSource-backto-CryptoCompareNewsSource" style="stroke:#34495E;stroke-width:1.4583;stroke-dasharray:7.2917,7.2917;"/><polygon fill="none" points="244.5417,347.5271,226.17,354.8145,234.2168,364.38,244.5417,347.5271" style="stroke:#34495E;stroke-width:1.4583;stroke-linejoin:miter;stroke-miterlimit:10;"/></g><!--reverse link INewsSource to DDGNewsSource--><g class="link" data-entity-1="ent0001" data-entity-2="ent0006" data-link-type="extension" data-source-line="1204" id="lnk11"><path codeLine="1204" d="M280.7252,366.2097 C277.4127,400.2409 272.5417,434.9958 260.3229,479.8812 C254.5729,500.9958 245.7813,523.6312 237.75,542.3291" fill="none" id="INewsSource-backto-DDGNewsSource" style="stroke:#34495E;stroke-width:1.4583;stroke-dasharray:7.2917,7.2917;"/><polygon fill="none" points="282.5417,347.5479,274.5046,365.6042,286.9458,366.8152,282.5417,347.5479" style="stroke:#34495E;stroke-width:1.4583;stroke-linejoin:miter;stroke-miterlimit:10;"/></g><!--reverse link ISentimentAnalyzer to OpenAISentimentAnalyzer--><g class="link" data-entity-1="ent0002" data-entity-2="ent0007" data-link-type="extension" data-source-line="1205" id="lnk12"><path codeLine="1205" d="M378.0566,630.9671 C350.7129,651.5712 330.6875,666.6729 301.7813,688.4541" fill="none" id="ISentimentAnalyzer-backto-OpenAISentimentAnalyzer" style="stroke:#34495E;stroke-width:1.4583;stroke-dasharray:7.2917,7.2917;"/><polygon fill="none" points="393.0313,619.6833,374.2954,625.9755,381.8179,635.9586,393.0313,619.6833" style="stroke:#34495E;stroke-width:1.4583;stroke-linejoin:miter;stroke-miterlimit:10;"/></g><!--reverse link ISentimentAnalyzer to GeminiSentimentAnalyzer--><g class="link" data-entity-1="ent0002" data-entity-2="ent0008" data-link-type="extension" data-source-line="1206" id="lnk13"><path codeLine="1206" d="M428.4118,638.1964 C420.0368,677.9047 406.0208,725.4854 372.8229,772.9854 C356.1979,796.7666 332.6771,818.1 310.4583,835.1208" fill="none" id="ISentimentAnalyzer-backto-GeminiSentimentAnalyzer" style="stroke:#34495E;stroke-width:1.4583;stroke-dasharray:7.2917,7.2917;"/><polygon fill="none" points="432.2813,619.85,422.2963,636.9065,434.5272,639.4862,432.2813,619.85" style="stroke:#34495E;stroke-width:1.4583;stroke-linejoin:miter;stroke-miterlimit:10;"/></g><!--reverse link IMarginAdjuster to SentimentMarginAdjuster--><g class="link" data-entity-1="ent0003" data-entity-2="ent0009" data-link-type="extension" data-source-line="1207" id="lnk14"><path codeLine="1207" d="M512.9288,925.872 C491.6684,946.2053 477.9583,959.3187 454.5625,981.6937" fill="none" id="IMarginAdjuster-backto-SentimentMarginAdjuster" style="stroke:#34495E;stroke-width:1.4583;stroke-dasharray:7.2917,7.2917;"/><polygon fill="none" points="526.4792,912.9125,508.6089,921.3552,517.2486,930.3888,526.4792,912.9125" style="stroke:#34495E;stroke-width:1.4583;stroke-linejoin:miter;stroke-miterlimit:10;"/></g><!--link NewsEngine to INewsSource--><g class="link" data-entity-1="ent0004" data-entity-2="ent0001" data-link-type="dependency" data-source-line="1208" id="lnk15"><path codeLine="1208" d="M342.2813,214.9541 C329.6042,236.3708 318.8314,254.5563 308.2064,272.4938" fill="none" id="NewsEngine-to-INewsSource" style="stroke:#34495E;stroke-width:1.4583;"/><polygon fill="#34495E" points="305.5521,276.975,313.9149,271.0323,308.2064,272.4938,306.745,266.7853,305.5521,276.975" style="stroke:#34495E;stroke-width:1.4583;stroke-linejoin:miter;stroke-miterlimit:10;"/></g><!--link NewsEngine to ISentimentAnalyzer--><g class="link" data-entity-1="ent0004" data-entity-2="ent0002" data-link-type="dependency" data-source-line="1209" id="lnk16"><path codeLine="1209" d="M422.4896,215.0062 C431.6146,234.4854 440.0313,256.1104 444.6979,277.1208 C466.1771,373.6729 453.9308,486.4407 445.2016,543.7011" fill="none" id="NewsEngine-to-ISentimentAnalyzer" style="stroke:#34495E;stroke-width:1.4583;"/><polygon fill="#34495E" points="444.4167,548.85,449.9486,540.21,445.2016,543.7011,441.7105,538.9541,444.4167,548.85" style="stroke:#34495E;stroke-width:1.4583;stroke-linejoin:miter;stroke-miterlimit:10;"/></g><!--link INewsSource to ISentimentAnalyzer--><!--link ISentimentAnalyzer to IMarginAdjuster--><!--link CryptoCompareNewsSource to DDGNewsSource--><!--link DDGNewsSource to OpenAISentimentAnalyzer--><!--link OpenAISentimentAnalyzer to GeminiSentimentAnalyzer--><!--link GeminiSentimentAnalyzer to SentimentMarginAdjuster--><?plantuml-src fLRTRk965BxtKvnkfHP8x021a4K8oVmaMscxaShUHP4riGTxcl4CcXcM9TkLUjK7g2hj0-sRx9FqZ2741cORgRv0vintllFpdMFx1vFHd49CrP9J8dovD9m9wWsqMNCwz02Kb0QsroUuaiAC9PSAVcmL5tn6Z666q__0f4ek5syeIQXoOlIAvPm8wkOPd6qJsuGSQFP8-wtBOQFnZguq_0GpAWpByGU-_VaFZ6M-a0B_wKO3NH4yz3pzmCI2A9B39nip8ubSCP62KKkAXeJEoP8R6ts63j1geJ7cHEjdKxjYiXd1lUG9MaEbv6gRzNcdyxexVJA-prZy8AZMq0ewtkTI6WNJO415YgqV3ekqHYH-i2qJoPRiQZ8TJPhsH2hiuTOwlUXDspQRJMSFlRhZKTWx5etb2-wADUbUTQVd-x7QlN1wqNJ72aVJqVZYQAmvYTs5XPFHvFAWi5vdV3x-Jc6jrvtB4C-V5M26S1PZV8y9GvMD2R_OiPZ9fSBxQXudSshYB19uNjFh7EKx1SvoPkfzUCkqkRMUeJ8ivlGEIKkSknaB1U7hHnpeFMgoiTSC_MZqAMpeaNVE9J5Lhb-9GjN3vFUbDeT4CSxlqj0eBr1HZdF95fnHLKkOeh5XKY3zKpgb25xHUR0rJ8knWhtvyctXaIuwqo-toPxj6ADj9Qf_f6gBL7IkgCwYeg8FXCCP5CH59oqWYacSOOG9YysjDkgqkBkpnQNKHBj8Emtc4fE8jhoxYX2-G5iXsGRvf9gkOxcRQiTglJ3IxZnHj2hyyx2xTT_nJ2RNBcy_ILBTjuZPoxXk5bI4noUcn9hBXF8-O7zUCZuRvckQCy5Un1m9agC6hzB2nMy7NN-E7DchbqVRnJaSs5AqZANP6PUhPrqZaraXDmz7Vpl7zr9gWqFziG_DeFl_1hsouNy4WMiA3e4LcRrZ6bcKGq0dtY6BTx3f5kpegbVQMzyVLjPp_-WmqizuuCC7QfzTk96ShF6j3XckgBOdbKRujnbB4YhkZbCTARBYiPUsQm7BFjMkLrUjZ7FrtRLGPL-N1gwLAVkw9F64DFOjRupCGSwTE82tD--kuGJkbvmpdK5js0nwtJfy--jls8mtVFrIQvqKIr17_EpDpM_lhGCbgd0OD8FsznmaVhIf5TEqW7pzqWgQK1CIueo8bDO3oyaUxITDuN8AZGOctsY0PYcM32anU1XuL2HWg_B-1G00?></g></svg>