<svg xmlns="http://www.w3.org/2000/svg" xmlns:xlink="http://www.w3.org/1999/xlink" contentStyleType="text/css" data-diagram-type="DESCRIPTION" height="1376.0417px" preserveAspectRatio="none" style="width:1207px;height:1376px;" version="1.1" viewBox="0 0 1207 1376" width="1207.2917px" zoomAndPan="magnify"><?plantuml 1.2026.5?><defs><filter height="300%" id="ftgvasjjysvem" width="300%" x="-1" y="-1"><feGaussianBlur result="blurOut" stdDeviation="2.0833"/><feColorMatrix in="blurOut" result="blurOut2" type="matrix" values="0 0 0 0 0 0 0 0 0 0 0 0 0 0 0 0 0 0 .4 0"/><feOffset dx="4.1667" dy="4.1667" in="blurOut2" result="blurOut3"/><feBlend in="SourceGraphic" in2="blurOut3" mode="normal"/></filter></defs><g><g class="title" data-source-line="1507"><rect fill="none" height="37.8194" rx="4.1667" ry="4.1667" style="stroke:#BABDBF;stroke-width:1.0417;" width="418.9433" x="393.1325" y="20.8333"/><text fill="#111111" font-family="'Verdana'" font-size="20.8333" font-weight="700" lengthAdjust="spacing" textLength="406.4433" x="399.3825" y="48.0286">Component &#8212; System Architecture</text></g><!--cluster External Sources--><g class="cluster" data-qualified-name="External Sources" data-source-line="1524" id="ent0001"><polygon fill="#EBF5FB" filter="url(#ftgvasjjysvem)" points="27.0833,86.7778,37.5,76.3611,909.375,76.3611,909.375,177.7778,898.9583,188.1944,27.0833,188.1944,27.0833,86.7778" style="stroke:#2FA4E7;stroke-width:1.0417;stroke-linejoin:miter;stroke-miterlimit:10;"/><line style="stroke:#2FA4E7;stroke-width:1.0417;" x1="898.9583" x2="909.375" y1="86.7778" y2="76.3611"/><line style="stroke:#2FA4E7;stroke-width:1.0417;" x1="27.0833" x2="898.9583" y1="86.7778" y2="86.7778"/><line style="stroke:#2FA4E7;stroke-width:1.0417;" x1="898.9583" x2="898.9583" y1="86.7778" y2="188.1944"/><text fill="#111111" font-family="'Verdana'" font-size="14.5833" font-weight="700" lengthAdjust="spacing" textLength="92.9118" x="417.6066" y="104.5644">&#171;external&#187;</text><text fill="#111111" font-family="'Verdana'" font-size="14.5833" font-weight="700" lengthAdjust="spacing" textLength="138.3209" x="394.902" y="122.288">External Sources</text></g><!--cluster CLI + Orchestration--><g class="cluster" data-qualified-name="CLI . Orchestration" data-source-line="1532" id="ent0007"><polygon fill="#FCF3CF" filter="url(#ftgvasjjysvem)" points="934.375,104.4861,944.7917,94.0694,1176.0417,94.0694,1176.0417,394.1736,1165.625,404.5903,934.375,404.5903,934.375,104.4861" style="stroke:#2FA4E7;stroke-width:1.0417;stroke-linejoin:miter;stroke-miterlimit:10;"/><line style="stroke:#2FA4E7;stroke-width:1.0417;" x1="1165.625" x2="1176.0417" y1="104.4861" y2="94.0694"/><line style="stroke:#2FA4E7;stroke-width:1.0417;" x1="934.375" x2="1165.625" y1="104.4861" y2="104.4861"/><line style="stroke:#2FA4E7;stroke-width:1.0417;" x1="1165.625" x2="1165.625" y1="104.4861" y2="404.5903"/><text fill="#111111" font-family="'Verdana'" font-size="14.5833" font-weight="700" lengthAdjust="spacing" textLength="163.0371" x="969.5231" y="122.2727">CLI + Orchestration</text></g><!--cluster Data Layer--><g class="cluster" data-qualified-name="Data Layer" data-source-line="1538" id="ent0011"><polygon fill="#D6EAF8" filter="url(#ftgvasjjysvem)" points="198.9583,223.6111,209.375,213.1944,504.1667,213.1944,504.1667,588.6944,493.75,599.1111,198.9583,599.1111,198.9583,223.6111" style="stroke:#2FA4E7;stroke-width:1.0417;stroke-linejoin:miter;stroke-miterlimit:10;"/><line style="stroke:#2FA4E7;stroke-width:1.0417;" x1="493.75" x2="504.1667" y1="223.6111" y2="213.1944"/><line style="stroke:#2FA4E7;stroke-width:1.0417;" x1="198.9583" x2="493.75" y1="223.6111" y2="223.6111"/><line style="stroke:#2FA4E7;stroke-width:1.0417;" x1="493.75" x2="493.75" y1="223.6111" y2="599.1111"/><text fill="#111111" font-family="'Verdana'" font-size="14.5833" font-weight="700" lengthAdjust="spacing" textLength="88.6749" x="303.0584" y="241.3977">Data Layer</text></g><!--cluster Intelligence Layer--><g class="cluster" data-qualified-name="Intelligence Layer" data-source-line="1546" id="ent0017"><polygon fill="#E8DAEF" filter="url(#ftgvasjjysvem)" points="529.1667,515.3923,539.5833,504.9757,855.2083,504.9757,855.2083,685.9548,844.7917,696.3715,529.1667,696.3715,529.1667,515.3923" style="stroke:#2FA4E7;stroke-width:1.0417;stroke-linejoin:miter;stroke-miterlimit:10;"/><line style="stroke:#2FA4E7;stroke-width:1.0417;" x1="844.7917" x2="855.2083" y1="515.3923" y2="504.9757"/><line style="stroke:#2FA4E7;stroke-width:1.0417;" x1="529.1667" x2="844.7917" y1="515.3923" y2="515.3923"/><line style="stroke:#2FA4E7;stroke-width:1.0417;" x1="844.7917" x2="844.7917" y1="515.3923" y2="696.3715"/><text fill="#111111" font-family="'Verdana'" font-size="14.5833" font-weight="700" lengthAdjust="spacing" textLength="148.6104" x="613.7156" y="533.179">Intelligence Layer</text></g><!--cluster Execution Layer--><g class="cluster" data-qualified-name="Execution Layer" data-source-line="1553" id="ent0022"><polygon fill="#D1F2EB" filter="url(#ftgvasjjysvem)" points="406.25,948.184,416.6667,937.7673,738.5417,937.7673,738.5417,1118.7361,728.125,1129.1528,406.25,1129.1528,406.25,948.184" style="stroke:#2FA4E7;stroke-width:1.0417;stroke-linejoin:miter;stroke-miterlimit:10;"/><line style="stroke:#2FA4E7;stroke-width:1.0417;" x1="728.125" x2="738.5417" y1="948.184" y2="937.7673"/><line style="stroke:#2FA4E7;stroke-width:1.0417;" x1="406.25" x2="728.125" y1="948.184" y2="948.184"/><line style="stroke:#2FA4E7;stroke-width:1.0417;" x1="728.125" x2="728.125" y1="948.184" y2="1129.1528"/><text fill="#111111" font-family="'Verdana'" font-size="14.5833" font-weight="700" lengthAdjust="spacing" textLength="130.8441" x="502.8071" y="965.9707">Execution Layer</text></g><!--cluster Risk Layer--><g class="cluster" data-qualified-name="Risk Layer" data-source-line="1559" id="ent0026"><polygon fill="#FADBD8" filter="url(#ftgvasjjysvem)" points="272.9167,731.7882,283.3333,721.3715,745.8333,721.3715,745.8333,902.3507,735.4167,912.7673,272.9167,912.7673,272.9167,731.7882" style="stroke:#2FA4E7;stroke-width:1.0417;stroke-linejoin:miter;stroke-miterlimit:10;"/><line style="stroke:#2FA4E7;stroke-width:1.0417;" x1="735.4167" x2="745.8333" y1="731.7882" y2="721.3715"/><line style="stroke:#2FA4E7;stroke-width:1.0417;" x1="272.9167" x2="735.4167" y1="731.7882" y2="731.7882"/><line style="stroke:#2FA4E7;stroke-width:1.0417;" x1="735.4167" x2="735.4167" y1="731.7882" y2="912.7673"/><text fill="#111111" font-family="'Verdana'" font-size="14.5833" font-weight="700" lengthAdjust="spacing" textLength="85.2712" x="462.5727" y="749.5748">Risk Layer</text></g><!--cluster Reporting--><g class="cluster" data-qualified-name="Reporting" data-source-line="1566" id="ent0031"><polygon fill="#FEF9E7" filter="url(#ftgvasjjysvem)" points="413.5417,1164.5694,423.9583,1154.1528,691.6667,1154.1528,691.6667,1335.1319,681.25,1345.5486,413.5417,1345.5486,413.5417,1164.5694" style="stroke:#2FA4E7;stroke-width:1.0417;stroke-linejoin:miter;stroke-miterlimit:10;"/><line style="stroke:#2FA4E7;stroke-width:1.0417;" x1="681.25" x2="691.6667" y1="1164.5694" y2="1154.1528"/><line style="stroke:#2FA4E7;stroke-width:1.0417;" x1="413.5417" x2="681.25" y1="1164.5694" y2="1164.5694"/><line style="stroke:#2FA4E7;stroke-width:1.0417;" x1="681.25" x2="681.25" y1="1164.5694" y2="1345.5486"/><text fill="#111111" font-family="'Verdana'" font-size="14.5833" font-weight="700" lengthAdjust="spacing" textLength="80.7638" x="508.0556" y="1182.3561">Reporting</text></g><!--entity WS--><g class="entity" data-qualified-name="External Sources.WS" data-source-line="1525" id="ent0002"><rect fill="#AED6F1" filter="url(#ftgvasjjysvem)" height="34.759" rx="4.1667" ry="4.1667" style="stroke:#2FA4E7;stroke-width:1.0417;" width="134.2138" x="43.3125" y="136.7778"/><text fill="#111111" font-family="'Verdana'" font-size="11.4583" lengthAdjust="spacing" textLength="113.3804" x="53.7292" y="158.7143">Binance WebSocket</text></g><!--entity REST--><g class="entity" data-qualified-name="External Sources.REST" data-source-line="1526" id="ent0003"><rect fill="#AED6F1" filter="url(#ftgvasjjysvem)" height="34.759" rx="4.1667" ry="4.1667" style="stroke:#2FA4E7;stroke-width:1.0417;" width="123.7401" x="214.1667" y="136.7778"/><text fill="#111111" font-family="'Verdana'" font-size="11.4583" lengthAdjust="spacing" textLength="102.9068" x="224.5833" y="158.7143">Binance REST API</text></g><!--entity CC--><g class="entity" data-qualified-name="External Sources.CC" data-source-line="1527" id="ent0004"><rect fill="#F5CBA7" filter="url(#ftgvasjjysvem)" height="34.759" rx="4.1667" ry="4.1667" style="stroke:#2FA4E7;stroke-width:1.0417;" width="197.7102" x="514.6875" y="136.7778"/><text fill="#111111" font-family="'Verdana'" font-size="11.4583" lengthAdjust="spacing" textLength="176.8768" x="525.1042" y="158.7143">CryptoCompare / DuckDuckGo</text></g><!--entity LLM--><g class="entity" data-qualified-name="External Sources.LLM" data-source-line="1528" id="ent0005"><rect fill="#F5CBA7" filter="url(#ftgvasjjysvem)" height="34.759" rx="4.1667" ry="4.1667" style="stroke:#2FA4E7;stroke-width:1.0417;" width="143.8202" x="748.9271" y="136.7778"/><text fill="#111111" font-family="'Verdana'" font-size="11.4583" lengthAdjust="spacing" textLength="122.9869" x="759.3438" y="158.7143">OpenAI / Gemini LLM</text></g><!--entity DISK--><g class="entity" data-qualified-name="External Sources.DISK" data-source-line="1529" id="ent0006"><rect fill="#D5D8DC" filter="url(#ftgvasjjysvem)" height="34.759" rx="4.1667" ry="4.1667" style="stroke:#2FA4E7;stroke-width:1.0417;" width="103.6769" x="374.2083" y="136.7778"/><text fill="#111111" font-family="'Verdana'" font-size="11.4583" lengthAdjust="spacing" textLength="82.8435" x="384.625" y="158.7143">Disk Tick Data</text></g><!--entity APP--><g class="entity" data-qualified-name="CLI . Orchestration.APP" data-source-line="1533" id="ent0008"><rect fill="#FAD7A0" filter="url(#ftgvasjjysvem)" height="34.759" rx="4.1667" ry="4.1667" style="stroke:#2FA4E7;stroke-width:1.0417;" width="60.0815" x="1025.1667" y="136.7778"/><text fill="#111111" font-family="'Verdana'" font-size="11.4583" lengthAdjust="spacing" textLength="39.2481" x="1035.5833" y="158.7143">app.py</text></g><!--entity SVC--><g class="entity" data-qualified-name="CLI . Orchestration.SVC" data-source-line="1534" id="ent0009"><rect fill="#F7DC6F" filter="url(#ftgvasjjysvem)" height="34.759" rx="4.1667" ry="4.1667" style="stroke:#2FA4E7;stroke-width:1.0417;" width="69.0725" x="1020.6771" y="255.9028"/><text fill="#111111" font-family="'Verdana'" font-size="11.4583" lengthAdjust="spacing" textLength="48.2391" x="1031.0938" y="277.8393">Services</text></g><!--entity FAC--><g class="entity" data-qualified-name="CLI . Orchestration.FAC" data-source-line="1535" id="ent0010"><rect fill="#FCF3CF" filter="url(#ftgvasjjysvem)" height="34.759" rx="4.1667" ry="4.1667" style="stroke:#2FA4E7;stroke-width:1.0417;" width="72.5693" x="1018.9271" y="353.1632"/><text fill="#111111" font-family="'Verdana'" font-size="11.4583" lengthAdjust="spacing" textLength="51.7359" x="1029.3438" y="375.0997">Factories</text></g><!--entity TS--><g class="entity" data-qualified-name="Data Layer.TS" data-source-line="1539" id="ent0012"><rect fill="#AED6F1" filter="url(#ftgvasjjysvem)" height="34.759" rx="4.1667" ry="4.1667" style="stroke:#2FA4E7;stroke-width:1.0417;" width="74.8072" x="388.6354" y="255.9028"/><text fill="#111111" font-family="'Verdana'" font-size="11.4583" lengthAdjust="spacing" textLength="53.9739" x="399.0521" y="277.8393">TickStore</text></g><!--entity DS--><g class="entity" data-qualified-name="Data Layer.DS" data-source-line="1540" id="ent0013"><rect fill="#AED6F1" filter="url(#ftgvasjjysvem)" height="34.759" rx="4.1667" ry="4.1667" style="stroke:#2FA4E7;stroke-width:1.0417;" width="122.319" x="364.8854" y="353.1632"/><text fill="#111111" font-family="'Verdana'" font-size="11.4583" lengthAdjust="spacing" textLength="101.4857" x="375.3021" y="375.0997">DiskTickStreamer</text></g><!--entity LS--><g class="entity" data-qualified-name="Data Layer.LS" data-source-line="1541" id="ent0014"><rect fill="#A3E4D7" filter="url(#ftgvasjjysvem)" height="34.759" rx="4.1667" ry="4.1667" style="stroke:#2FA4E7;stroke-width:1.0417;" width="112.2035" x="215.7708" y="353.1632"/><text fill="#111111" font-family="'Verdana'" font-size="11.4583" lengthAdjust="spacing" textLength="91.3701" x="226.1875" y="375.0997">Streamer (Live)</text></g><!--entity BBL--><g class="entity" data-qualified-name="Data Layer.BBL" data-source-line="1542" id="ent0015"><rect fill="#AED6F1" filter="url(#ftgvasjjysvem)" height="34.759" rx="4.1667" ry="4.1667" style="stroke:#2FA4E7;stroke-width:1.0417;" width="80.7098" x="385.6875" y="450.4236"/><text fill="#111111" font-family="'Verdana'" font-size="11.4583" lengthAdjust="spacing" textLength="59.8765" x="396.1042" y="472.3601">BarBuilder</text></g><!--entity BST--><g class="entity" data-qualified-name="Data Layer.BST" data-source-line="1543" id="ent0016"><rect fill="#AED6F1" filter="url(#ftgvasjjysvem)" height="34.759" rx="4.1667" ry="4.1667" style="stroke:#2FA4E7;stroke-width:1.0417;" width="71.4783" x="402.8021" y="547.684"/><text fill="#111111" font-family="'Verdana'" font-size="11.4583" lengthAdjust="spacing" textLength="50.6449" x="413.2188" y="569.6205">BarStore</text></g><!--entity STRAT--><g class="entity" data-qualified-name="Intelligence Layer.STRAT" data-source-line="1547" id="ent0018"><rect fill="#D2B4DE" filter="url(#ftgvasjjysvem)" height="34.759" rx="4.1667" ry="4.1667" style="stroke:#2FA4E7;stroke-width:1.0417;" width="148.9451" x="545.3229" y="644.9444"/><text fill="#111111" font-family="'Verdana'" font-size="11.4583" lengthAdjust="spacing" textLength="128.1118" x="555.7396" y="666.881">IStrategy / Composite</text></g><!--entity REG--><g class="entity" data-qualified-name="Intelligence Layer.REG" data-source-line="1548" id="ent0019"><rect fill="#D7BDE2" filter="url(#ftgvasjjysvem)" height="34.759" rx="4.1667" ry="4.1667" style="stroke:#2FA4E7;stroke-width:1.0417;" width="113.205" x="563.1875" y="547.684"/><text fill="#111111" font-family="'Verdana'" font-size="11.4583" lengthAdjust="spacing" textLength="92.3716" x="573.6042" y="569.6205">RegimeDetector</text></g><!--entity NE--><g class="entity" data-qualified-name="Intelligence Layer.NE" data-source-line="1549" id="ent0020"><rect fill="#F5CBA7" filter="url(#ftgvasjjysvem)" height="34.759" rx="4.1667" ry="4.1667" style="stroke:#2FA4E7;stroke-width:1.0417;" width="90.4338" x="739.1563" y="547.684"/><text fill="#111111" font-family="'Verdana'" font-size="11.4583" lengthAdjust="spacing" textLength="69.6004" x="749.5729" y="569.6205">NewsEngine</text></g><!--entity MA--><g class="entity" data-qualified-name="Intelligence Layer.MA" data-source-line="1550" id="ent0021"><rect fill="#F5CBA7" filter="url(#ftgvasjjysvem)" height="34.759" rx="4.1667" ry="4.1667" style="stroke:#2FA4E7;stroke-width:1.0417;" width="108.164" x="730.2917" y="644.9444"/><text fill="#111111" font-family="'Verdana'" font-size="11.4583" lengthAdjust="spacing" textLength="87.3306" x="740.7083" y="666.881">MarginAdjuster</text></g><!--entity EM--><g class="entity" data-qualified-name="Execution Layer.EM" data-source-line="1554" id="ent0023"><rect fill="#ABEBC6" filter="url(#ftgvasjjysvem)" height="34.759" rx="4.1667" ry="4.1667" style="stroke:#2FA4E7;stroke-width:1.0417;" width="139.8422" x="582.1667" y="980.4757"/><text fill="#111111" font-family="'Verdana'" font-size="11.4583" lengthAdjust="spacing" textLength="119.0089" x="592.5833" y="1002.4122">ExecutionModel (BT)</text></g><!--entity BRK--><g class="entity" data-qualified-name="Execution Layer.BRK" data-source-line="1555" id="ent0024"><rect fill="#AED6F1" filter="url(#ftgvasjjysvem)" height="34.759" rx="4.1667" ry="4.1667" style="stroke:#2FA4E7;stroke-width:1.0417;" width="122.2967" x="423.2292" y="980.4757"/><text fill="#111111" font-family="'Verdana'" font-size="11.4583" lengthAdjust="spacing" textLength="101.4633" x="433.6458" y="1002.4122">Broker (Live/Dry)</text></g><!--entity PM--><g class="entity" data-qualified-name="Execution Layer.PM" data-source-line="1556" id="ent0025"><rect fill="#A3E4D7" filter="url(#ftgvasjjysvem)" height="34.759" rx="4.1667" ry="4.1667" style="stroke:#2FA4E7;stroke-width:1.0417;" width="213.2696" x="508.9896" y="1077.7257"/><text fill="#111111" font-family="'Verdana'" font-size="11.4583" lengthAdjust="spacing" textLength="192.4362" x="519.4063" y="1099.6622">LiveSupervisor / PositionManager</text></g><!--entity RM--><g class="entity" data-qualified-name="Risk Layer.RM" data-source-line="1560" id="ent0027"><rect fill="#F1948A" filter="url(#ftgvasjjysvem)" height="34.759" rx="4.1667" ry="4.1667" style="stroke:#2FA4E7;stroke-width:1.0417;" width="153.393" x="575.3854" y="764.0798"/><text fill="#111111" font-family="'Verdana'" font-size="11.4583" lengthAdjust="spacing" textLength="132.5597" x="585.8021" y="786.0164">BasicRiskManager (BT)</text></g><!--entity GR--><g class="entity" data-qualified-name="Risk Layer.GR" data-source-line="1561" id="ent0028"><rect fill="#F1948A" filter="url(#ftgvasjjysvem)" height="34.759" rx="4.1667" ry="4.1667" style="stroke:#2FA4E7;stroke-width:1.0417;" width="103.9734" x="298.0104" y="861.3403"/><text fill="#111111" font-family="'Verdana'" font-size="11.4583" lengthAdjust="spacing" textLength="83.1401" x="308.4271" y="883.2768">LiveGlobalRisk</text></g><!--entity EXM--><g class="entity" data-qualified-name="Risk Layer.EXM" data-source-line="1562" id="ent0029"><rect fill="#F1948A" filter="url(#ftgvasjjysvem)" height="34.759" rx="4.1667" ry="4.1667" style="stroke:#2FA4E7;stroke-width:1.0417;" width="92.0451" x="446.6875" y="764.0798"/><text fill="#111111" font-family="'Verdana'" font-size="11.4583" lengthAdjust="spacing" textLength="71.2118" x="457.1042" y="786.0164">ExitManager</text></g><!--entity RC--><g class="entity" data-qualified-name="Risk Layer.RC" data-source-line="1563" id="ent0030"><rect fill="#F1948A" filter="url(#ftgvasjjysvem)" height="34.759" rx="4.1667" ry="4.1667" style="stroke:#2FA4E7;stroke-width:1.0417;" width="119.9188" x="290.0417" y="764.0798"/><text fill="#111111" font-family="'Verdana'" font-size="11.4583" lengthAdjust="spacing" textLength="99.0855" x="300.4583" y="786.0164">RejectionCounter</text></g><!--entity MS--><g class="entity" data-qualified-name="Reporting.MS" data-source-line="1567" id="ent0032"><rect fill="#ABEBC6" filter="url(#ftgvasjjysvem)" height="34.759" rx="4.1667" ry="4.1667" style="stroke:#2FA4E7;stroke-width:1.0417;" width="137.4364" x="430.2396" y="1294.1215"/><text fill="#111111" font-family="'Verdana'" font-size="11.4583" lengthAdjust="spacing" textLength="116.6031" x="440.6563" y="1316.058">MetricsSink / Scorer</text></g><!--entity PF--><g class="entity" data-qualified-name="Reporting.PF" data-source-line="1568" id="ent0033"><rect fill="#F9E79F" filter="url(#ftgvasjjysvem)" height="34.759" rx="4.1667" ry="4.1667" style="stroke:#2FA4E7;stroke-width:1.0417;" width="68.3283" x="430.4167" y="1196.8611"/><text fill="#111111" font-family="'Verdana'" font-size="11.4583" lengthAdjust="spacing" textLength="47.495" x="440.8333" y="1218.7976">Portfolio</text></g><!--entity LM--><g class="entity" data-qualified-name="Reporting.LM" data-source-line="1569" id="ent0034"><rect fill="#A3E4D7" filter="url(#ftgvasjjysvem)" height="34.759" rx="4.1667" ry="4.1667" style="stroke:#2FA4E7;stroke-width:1.0417;" width="140.2674" x="535.0729" y="1196.8611"/><text fill="#111111" font-family="'Verdana'" font-size="11.4583" lengthAdjust="spacing" textLength="119.4341" x="545.4896" y="1218.7976">LiveMetrics / Notifier</text></g><!--link APP to SVC--><g class="link" data-entity-1="ent0008" data-entity-2="ent0009" data-link-type="dependency" data-source-line="1572" id="lnk35"><path d="M1055.2083,171.9653 C1055.2083,194.2153 1055.2083,228.059 1055.2083,250.2986" fill="none" id="APP-to-SVC" style="stroke:#D4AC0D;stroke-width:2.0833;"/><polygon fill="#D4AC0D" points="1055.2083,255.5069,1059.375,246.1319,1055.2083,250.2986,1051.0417,246.1319,1055.2083,255.5069" style="stroke:#D4AC0D;stroke-width:2.0833;stroke-linejoin:miter;stroke-miterlimit:10;"/></g><!--link SVC to FAC--><g class="link" data-entity-1="ent0009" data-entity-2="ent0010" data-link-type="dependency" data-source-line="1573" id="lnk36"><path d="M1055.2083,290.9028 C1055.2083,308.2673 1055.2083,330.1736 1055.2083,347.5903" fill="none" id="SVC-to-FAC" style="stroke:#D4AC0D;stroke-width:2.0833;"/><polygon fill="#D4AC0D" points="1055.2083,352.7986,1059.375,343.4236,1055.2083,347.5903,1051.0417,343.4236,1055.2083,352.7986" style="stroke:#D4AC0D;stroke-width:2.0833;stroke-linejoin:miter;stroke-miterlimit:10;"/></g><!--link DISK to TS--><g class="link" data-entity-1="ent0006" data-entity-2="ent0012" data-link-type="dependency" data-source-line="1574" id="lnk37"><path d="M426.0417,171.9653 C426.0417,194.2153 426.0417,228.059 426.0417,250.2986" fill="none" id="DISK-to-TS" style="stroke:#7F8C8D;stroke-width:2.0833;"/><polygon fill="#7F8C8D" points="426.0417,255.5069,430.2083,246.1319,426.0417,250.2986,421.875,246.1319,426.0417,255.5069" style="stroke:#7F8C8D;stroke-width:2.0833;stroke-linejoin:miter;stroke-miterlimit:10;"/></g><!--link TS to DS--><g class="link" data-entity-1="ent0012" data-entity-2="ent0013" data-link-type="dependency" data-source-line="1575" id="lnk38"><path d="M426.0417,290.9028 C426.0417,308.2673 426.0417,330.1736 426.0417,347.5903" fill="none" id="TS-to-DS" style="stroke:#2980B9;stroke-width:2.0833;"/><polygon fill="#2980B9" points="426.0417,352.7986,430.2083,343.4236,426.0417,347.5903,421.875,343.4236,426.0417,352.7986" style="stroke:#2980B9;stroke-width:2.0833;stroke-linejoin:miter;stroke-miterlimit:10;"/></g><!--link WS to LS--><g class="link" data-entity-1="ent0002" data-entity-2="ent0014" data-link-type="dependency" data-source-line="1576" id="lnk39"><path d="M123.0833,172.0069 C153.2708,212.0694 226.0127,308.6172 256.1273,348.6068" fill="none" id="WS-to-LS" style="stroke:#1ABC9C;stroke-width:2.0833;"/><polygon fill="#1ABC9C" points="259.2604,352.7673,256.9492,342.7718,256.1273,348.6068,250.2923,347.7849,259.2604,352.7673" style="stroke:#1ABC9C;stroke-width:2.0833;stroke-linejoin:miter;stroke-miterlimit:10;"/></g><!--link REST to LS--><g class="link" data-entity-1="ent0003" data-entity-2="ent0014" data-link-type="dependency" data-source-line="1577" id="lnk40"><path d="M275.7188,172.0069 C274.9375,212.0694 273.0809,307.5704 272.2996,347.56" fill="none" id="REST-to-LS" style="stroke:#1ABC9C;stroke-width:2.0833;"/><polygon fill="#1ABC9C" points="272.1979,352.7673,276.5469,343.4755,272.2996,347.56,268.2152,343.3127,272.1979,352.7673" style="stroke:#1ABC9C;stroke-width:2.0833;stroke-linejoin:miter;stroke-miterlimit:10;"/></g><!--link CC to NE--><g class="link" data-entity-1="ent0004" data-entity-2="ent0020" data-link-type="dependency" data-source-line="1578" id="lnk41"><path d="M620.4479,171.7257 C647.9792,237.6111 747.6896,476.2326 775.3771,542.4826" fill="none" id="CC-to-NE" style="stroke:#E67E22;stroke-width:2.0833;"/><polygon fill="#E67E22" points="777.3854,547.2882,777.6148,537.0315,775.3771,542.4826,769.9259,540.2449,777.3854,547.2882" style="stroke:#E67E22;stroke-width:2.0833;stroke-linejoin:miter;stroke-miterlimit:10;"/></g><!--link LLM to NE--><g class="link" data-entity-1="ent0005" data-entity-2="ent0020" data-link-type="dependency" data-source-line="1579" id="lnk42"><path d="M819.3542,171.7257 C813.4792,237.6111 792.2333,475.8504 786.3271,542.1004" fill="none" id="LLM-to-NE" style="stroke:#E67E22;stroke-width:2.0833;"/><polygon fill="#E67E22" points="785.8646,547.2882,790.8473,538.3202,786.3271,542.1004,782.5469,537.5802,785.8646,547.2882" style="stroke:#E67E22;stroke-width:2.0833;stroke-linejoin:miter;stroke-miterlimit:10;"/></g><!--link DS to BBL--><g class="link" data-entity-1="ent0013" data-entity-2="ent0015" data-link-type="dependency" data-source-line="1581" id="lnk43"><path d="M426.0417,388.1632 C426.0417,405.5278 426.0417,427.434 426.0417,444.8507" fill="none" id="DS-to-BBL" style="stroke:#2980B9;stroke-width:2.0833;"/><polygon fill="#2980B9" points="426.0417,450.059,430.2083,440.684,426.0417,444.8507,421.875,440.684,426.0417,450.059" style="stroke:#2980B9;stroke-width:2.0833;stroke-linejoin:miter;stroke-miterlimit:10;"/></g><!--link LS to BBL--><g class="link" data-entity-1="ent0014" data-entity-2="ent0015" data-link-type="dependency" data-source-line="1582" id="lnk44"><path d="M299.0833,388.3819 C327.2604,405.7778 366.5996,430.0623 394.6725,447.3956" fill="none" id="LS-to-BBL" style="stroke:#1ABC9C;stroke-width:2.0833;"/><polygon fill="#1ABC9C" points="399.1042,450.1319,393.3162,441.6613,394.6725,447.3956,388.9382,448.7519,399.1042,450.1319" style="stroke:#1ABC9C;stroke-width:2.0833;stroke-linejoin:miter;stroke-miterlimit:10;"/></g><!--link BBL to BST--><g class="link" data-entity-1="ent0015" data-entity-2="ent0016" data-link-type="dependency" data-source-line="1583" id="lnk45"><path d="M428.2188,485.4236 C430.5,502.7882 433.3861,524.7385 435.6673,542.1552" fill="none" id="BBL-to-BST" style="stroke:#2980B9;stroke-width:2.0833;"/><polygon fill="#2980B9" points="436.3438,547.3194,439.2576,537.4827,435.6673,542.1552,430.9948,538.5649,436.3438,547.3194" style="stroke:#2980B9;stroke-width:2.0833;stroke-linejoin:miter;stroke-miterlimit:10;"/></g><!--link BST to STRAT--><g class="link" data-entity-1="ent0016" data-entity-2="ent0018" data-link-type="dependency" data-source-line="1584" id="lnk46"><path d="M470.5313,582.9028 C503.5521,600.2465 550.1911,624.7309 583.2119,642.0746" fill="none" id="BST-to-STRAT" style="stroke:#8E44AD;stroke-width:2.0833;"/><polygon fill="#8E44AD" points="587.8229,644.4965,581.4606,636.4483,583.2119,642.0746,577.5856,643.8259,587.8229,644.4965" style="stroke:#8E44AD;stroke-width:2.0833;stroke-linejoin:miter;stroke-miterlimit:10;"/></g><!--link REG to STRAT--><g class="link" data-entity-1="ent0019" data-entity-2="ent0018" data-link-type="dependency" data-source-line="1585" id="lnk47"><path d="M619.7917,582.684 C619.7917,600.0486 619.7917,621.9548 619.7917,639.3611" fill="none" id="REG-to-STRAT" style="stroke:#8E44AD;stroke-width:2.0833;"/><polygon fill="#8E44AD" points="619.7917,644.5694,623.9583,635.1944,619.7917,639.3611,615.625,635.1944,619.7917,644.5694" style="stroke:#8E44AD;stroke-width:2.0833;stroke-linejoin:miter;stroke-miterlimit:10;"/></g><!--link NE to MA--><g class="link" data-entity-1="ent0020" data-entity-2="ent0021" data-link-type="dependency" data-source-line="1586" id="lnk48"><path d="M784.375,582.684 C784.375,600.0486 784.375,621.9548 784.375,639.3611" fill="none" id="NE-to-MA" style="stroke:#E67E22;stroke-width:2.0833;"/><polygon fill="#E67E22" points="784.375,644.5694,788.5417,635.1944,784.375,639.3611,780.2083,635.1944,784.375,644.5694" style="stroke:#E67E22;stroke-width:2.0833;stroke-linejoin:miter;stroke-miterlimit:10;"/></g><!--link STRAT to RM--><g class="link" data-entity-1="ent0018" data-entity-2="ent0027" data-link-type="dependency" data-source-line="1588" id="lnk49"><path d="M624.4167,680.1319 C630.5521,702.3819 639.9476,736.4238 646.083,758.653" fill="none" id="STRAT-to-RM" style="stroke:#C0392B;stroke-width:2.0833;"/><polygon fill="#C0392B" points="647.4688,763.6736,648.9909,753.5279,646.083,758.653,640.958,755.7451,647.4688,763.6736" style="stroke:#C0392B;stroke-width:2.0833;stroke-linejoin:miter;stroke-miterlimit:10;"/></g><!--link STRAT to GR--><g class="link" data-entity-1="ent0018" data-entity-2="ent0028" data-link-type="dependency" data-source-line="1589" id="lnk50"><path d="M545.0938,663.059 C453.6146,664.4757 306.5104,673.1111 271.875,713.0382 C246.8854,741.8403 257.3646,763.5694 271.875,798.8403 C282.5833,824.8507 302.3403,843.6922 320.9028,857.7755" fill="none" id="STRAT-to-GR" style="stroke:#C0392B;stroke-width:2.0833;"/><polygon fill="#C0392B" points="325.0521,860.9236,320.1018,851.9377,320.9028,857.7755,315.0649,858.5765,325.0521,860.9236" style="stroke:#C0392B;stroke-width:2.0833;stroke-linejoin:miter;stroke-miterlimit:10;"/></g><!--link MA to PM--><g class="link" data-entity-1="ent0021" data-entity-2="ent0025" data-link-type="dependency" data-source-line="1590" id="lnk51"><path d="M786.9896,680.0694 C794.4479,733.6632 811.0938,904.2882 740.625,1015.2257 C722.125,1044.3611 693.287,1062.4726 665.5995,1075.1601" fill="none" id="MA-to-PM" style="stroke:#E67E22;stroke-width:2.0833;"/><polygon fill="#E67E22" points="660.8646,1077.3298,671.1231,1077.2123,665.5995,1075.1601,667.6516,1069.6365,660.8646,1077.3298" style="stroke:#E67E22;stroke-width:2.0833;stroke-linejoin:miter;stroke-miterlimit:10;"/></g><!--link RM to EM--><g class="link" data-entity-1="ent0027" data-entity-2="ent0023" data-link-type="dependency" data-source-line="1591" id="lnk52"><path d="M652.0833,799.3194 C652.0833,839.3819 652.0833,934.8819 652.0833,974.8611" fill="none" id="RM-to-EM" style="stroke:#27AE60;stroke-width:2.0833;"/><polygon fill="#27AE60" points="652.0833,980.0694,656.25,970.6944,652.0833,974.8611,647.9167,970.6944,652.0833,980.0694" style="stroke:#27AE60;stroke-width:2.0833;stroke-linejoin:miter;stroke-miterlimit:10;"/></g><!--link GR to BRK--><g class="link" data-entity-1="ent0028" data-entity-2="ent0024" data-link-type="dependency" data-source-line="1592" id="lnk53"><path d="M369.25,896.5278 C394.8021,918.7778 435.7088,954.4081 461.2296,976.6477" fill="none" id="GR-to-BRK" style="stroke:#1ABC9C;stroke-width:2.0833;"/><polygon fill="#1ABC9C" points="465.1563,980.0694,460.8258,970.769,461.2296,976.6477,455.3509,977.0515,465.1563,980.0694" style="stroke:#1ABC9C;stroke-width:2.0833;stroke-linejoin:miter;stroke-miterlimit:10;"/></g><!--link EM to PF--><g class="link" data-entity-1="ent0023" data-entity-2="ent0033" data-link-type="dependency" data-source-line="1593" id="lnk54"><path d="M586.3229,1015.6528 C552.75,1027.559 514.1354,1047.0173 490.625,1077.7257 C463.4063,1113.2986 461.816,1163.981 463.066,1191.5331" fill="none" id="EM-to-PF" style="stroke:#F39C12;stroke-width:2.0833;"/><polygon fill="#F39C12" points="463.3021,1196.7361,467.0396,1187.1819,463.066,1191.5331,458.7148,1187.5596,463.3021,1196.7361" style="stroke:#F39C12;stroke-width:2.0833;stroke-linejoin:miter;stroke-miterlimit:10;"/></g><!--link BRK to PM--><g class="link" data-entity-1="ent0024" data-entity-2="ent0025" data-link-type="dependency" data-source-line="1594" id="lnk55"><path d="M507.5417,1015.684 C531.5313,1033.0903 564.5751,1057.0434 588.4813,1074.3767" fill="none" id="BRK-to-PM" style="stroke:#1ABC9C;stroke-width:2.0833;"/><polygon fill="#1ABC9C" points="592.6979,1077.434,587.5538,1068.5576,588.4813,1074.3767,582.6622,1075.3042,592.6979,1077.434" style="stroke:#1ABC9C;stroke-width:2.0833;stroke-linejoin:miter;stroke-miterlimit:10;"/></g><!--link RC to GR--><g class="link" data-entity-1="ent0030" data-entity-2="ent0028" data-link-type="dependency" data-source-line="1595" id="lnk56"><path d="M350,799.0798 C350,816.4444 350,838.3507 350,855.7569" fill="none" id="RC-to-GR" style="stroke:#C0392B;stroke-width:2.0833;"/><polygon fill="#C0392B" points="350,860.9653,354.1667,851.5903,350,855.7569,345.8333,851.5903,350,860.9653" style="stroke:#C0392B;stroke-width:2.0833;stroke-linejoin:miter;stroke-miterlimit:10;"/></g><!--link PF to MS--><g class="link" data-entity-1="ent0033" data-entity-2="ent0032" data-link-type="dependency" data-source-line="1596" id="lnk57"><path d="M470.5729,1231.8611 C476.8438,1249.2257 484.8659,1271.4417 491.1575,1288.8584" fill="none" id="PF-to-MS" style="stroke:#27AE60;stroke-width:2.0833;"/><polygon fill="#27AE60" points="492.9271,1293.7569,493.6607,1283.524,491.1575,1288.8584,485.8231,1286.3552,492.9271,1293.7569" style="stroke:#27AE60;stroke-width:2.0833;stroke-linejoin:miter;stroke-miterlimit:10;"/></g><!--link PM to LM--><g class="link" data-entity-1="ent0025" data-entity-2="ent0034" data-link-type="dependency" data-source-line="1597" id="lnk58"><path d="M614.1354,1112.9236 C612.1563,1135.1736 609.1388,1169.0378 607.1596,1191.2774" fill="none" id="PM-to-LM" style="stroke:#1ABC9C;stroke-width:2.0833;"/><polygon fill="#1ABC9C" points="606.6979,1196.4653,611.6792,1187.4965,607.1596,1191.2774,603.3787,1186.7578,606.6979,1196.4653" style="stroke:#1ABC9C;stroke-width:2.0833;stroke-linejoin:miter;stroke-miterlimit:10;"/></g><?plantuml-src XLJRRjj647tVhzXQBwaBrv8iwr8O0iZbKX4iEW8fr0MCFAofiRmHnHMMopXg4A0VqI_ibtHsILse9YW1GU2PC_Sv_CcymWPe2hhCGEHNgZIPp87S5MQNmPXGgfKoj7w-qb3bXgbCQThgk8T-GuwH9eF_uQoqAhVlGIn1_v1JlCbD9dBuSPoxwxgmAkLT8V-4txhjyUKbKvkjoY4tz9-__gR9hZ2mePvENwM1r9GQBY_H6UbZGegrpBT2YmtzQhE-YgLwa_cA6bq20aju4MLcRFu47MYdYs2wZv_O0gZ6e29VPPRlQQtUwaflUhtHBT-3YrUPhdCe2jebtqxIvce9BlSnHs__vi8_gspPy3YaFtFh88kuS1VyYm6TYumcgjGf51VqxWvgR3ocBUw7jw7l_9zycOiy1Ve8pubArs0-Kb7GnuIsF1xqmyuf9-R9WdhpgQEubnCIqxkjKNRuGWEzfa6PhkrleXoTCTeARvdl3IpvmnPoRugi2MnaBkbi5ZaM_f_I0bciwG8dHmDXX6C4q-IUjeBRO1YmOyTiDgM_q0-uP2YC5aQg_083iV26XLMVOhlzTRjp8Rpv76rUCF3QrfA0_YnnIiwM_6xh70Ii7rfRA5AZjAoDeSVsGO-fRMLq9dQWCMFGvruuh3BQkXFq1kUxQ4pKDbRPDOWDwAgr1cLlekzcyZFyN8t7CcvuBt3JyONsIvajQtVVdpMM9lGnkt-ogqFbqzn0biaLsDtkE-33mEFrpAQ9dIMiThWefwe29LIDQH5x637e-ht0tlXJ32kvWG2in9Ik3sI2Z84VSAkQfmTuAtY-mc-AipxmqqL7GgF5MtugKQsLU-GT22U73MbfbtiSU2ViylgK3zO8oHbzvo-ggN6yAS_dFkkxkMYrta_rEj2xYkF7zwV3iyQatDhBA53CrtHkUxUXHIvMTONpwB2DGuMnlTXzSNXZVb1VWoyAcLfh7U5ONcnFlZFg3RrzvaccdaLcoOumYKy9_8iqfrNmFnh-CNp25M2bJ9NvVfOnEr2EbS9MQOCVErie3qTyK1KQWT4oBHAPhx7l9CKJgXUId8vnZiulAfELkkSX1i4Get3VGnq6Gpme8rza7MJMc9bLujLJA-Xvh1ryl1fR-H4hmGQ8iYDEzeWEmY4REdIH4DGKGjtHiEsFB1GavD517Szd8sQXMKBSX-eSP2u7xmzujskX1qxij-SS8y5P2XGPcPtbi9WLNvEOB8XV9HxoNi-hshEo8LOOtu5H4OtqaKT8fJE4MVjcrFKj74VVGoSnGS4q_ESHYLr7tO77-sqByOZWCJMBZ-y9TxJmPiGwbMT8h1uQF1kD_ISdxhsH84h8F3eRTaJ-1G00?></g></svg>