<svg xmlns="http://www.w3.org/2000/svg" xmlns:xlink="http://www.w3.org/1999/xlink" contentStyleType="text/css" data-diagram-type="DESCRIPTION" height="793.75px" preserveAspectRatio="none" style="width:1021px;height:793px;" version="1.1" viewBox="0 0 1021 793" width="1021.875px" zoomAndPan="magnify"><?plantuml 1.2026.5?><defs><filter height="300%" id="fi2ka5ybnmlnw" width="300%" x="-1" y="-1"><feGaussianBlur result="blurOut" stdDeviation="2.0833"/><feColorMatrix in="blurOut" result="blurOut2" type="matrix" values="0 0 0 0 0 0 0 0 0 0 0 0 0 0 0 0 0 0 .4 0"/><feOffset dx="4.1667" dy="4.1667" in="blurOut2" result="blurOut3"/><feBlend in="SourceGraphic" in2="blurOut3" mode="normal"/></filter></defs><g><g class="title" data-source-line="1611"><rect fill="none" height="55.543" rx="4.1667" ry="4.1667" style="stroke:#BABDBF;stroke-width:1.0417;" width="224.2513" x="398.0462" y="20.8333"/><text fill="#111111" font-family="'Verdana'" font-size="20.8333" font-weight="700" lengthAdjust="spacing" textLength="211.7513" x="404.2962" y="48.0286">Use Case Diagram</text><text fill="#111111" font-family="'Verdana'" font-size="14.5833" font-weight="700" lengthAdjust="spacing" textLength="198.9614" x="410.6912" y="67.0644">AI-Adaptive Trading Bot</text></g><!--cluster AI-Adaptive Trading Bot--><g class="cluster" data-qualified-name="AI-Adaptive Trading Bot" data-source-line="1642" id="ent0004"><rect fill="#FDFEFE" filter="url(#fi2ka5ybnmlnw)" height="466.6667" rx="4.1667" ry="4.1667" style="stroke:#2C3E50;stroke-width:2.0833;" width="838.0625" x="158.3229" y="301.3451"/><text fill="#111111" font-family="'Verdana'" font-size="16.6667" font-weight="700" lengthAdjust="spacing" textLength="227.3844" x="463.6619" y="320.1846">AI-Adaptive Trading Bot</text></g><!--entity UC1--><g class="entity" data-qualified-name="AI-Adaptive Trading Bot.UC1" data-source-line="1643" id="ent0005"><ellipse cx="557.0527" cy="355.5098" fill="#FADBD8" rx="58.011" ry="14.1022" style="stroke:#2980B9;stroke-width:2.0833;"/><text fill="#111111" font-family="'Verdana'" font-size="11.4583" font-weight="700" lengthAdjust="spacing" textLength="84.8633" x="514.621" y="358.8268">Run Backtest</text></g><!--entity UC2--><g class="entity" data-qualified-name="AI-Adaptive Trading Bot.UC2" data-source-line="1644" id="ent0006"><ellipse cx="261.7229" cy="414.8876" fill="#FADBD8" rx="86.7229" ry="19.8446" style="stroke:#2980B9;stroke-width:2.0833;"/><text fill="#111111" font-family="'Verdana'" font-size="11.4583" font-weight="700" lengthAdjust="spacing" textLength="152.0075" x="185.7191" y="418.2046">Sweep / Cross-Validate</text></g><!--entity UC3--><g class="entity" data-qualified-name="AI-Adaptive Trading Bot.UC3" data-source-line="1645" id="ent0007"><ellipse cx="872.6995" cy="364.885" fill="#E8DAEF" rx="107.0224" ry="23.9045" style="stroke:#2980B9;stroke-width:2.0833;"/><text fill="#111111" font-family="'Verdana'" font-size="11.4583" font-weight="700" lengthAdjust="spacing" textLength="195.782" x="774.8085" y="368.202">Configure / Compose Strategy</text></g><!--entity UC4--><g class="entity" data-qualified-name="AI-Adaptive Trading Bot.UC4" data-source-line="1646" id="ent0008"><ellipse cx="557.0533" cy="509.6756" fill="#FCF3CF" rx="83.6158" ry="22.0492" style="stroke:#2980B9;stroke-width:2.0833;"/><text fill="#111111" font-family="'Verdana'" font-size="11.4583" font-weight="700" lengthAdjust="spacing" textLength="97.7371" x="508.1847" y="504.9182">Validate Config</text><text fill="#111111" font-family="'Verdana'" font-size="11.4583" font-weight="700" lengthAdjust="spacing" textLength="118.4606" x="497.823" y="518.8439">(real-money gate)</text></g><!--entity UC5--><g class="entity" data-qualified-name="AI-Adaptive Trading Bot.UC5" data-source-line="1647" id="ent0009"><ellipse cx="557.0508" cy="665.9323" fill="#FCF3CF" rx="64.8633" ry="15.4727" style="stroke:#2980B9;stroke-width:2.0833;"/><text fill="#111111" font-family="'Verdana'" font-size="11.4583" font-weight="700" lengthAdjust="spacing" textLength="101.9725" x="506.0646" y="669.2494">Promote to Live</text></g><!--entity UC6--><g class="entity" data-qualified-name="AI-Adaptive Trading Bot.UC6" data-source-line="1648" id="ent0010"><ellipse cx="261.7189" cy="568.0097" fill="#D1F2EB" rx="77.4377" ry="17.9875" style="stroke:#2980B9;stroke-width:2.0833;"/><text fill="#111111" font-family="'Verdana'" font-size="11.4583" font-weight="700" lengthAdjust="spacing" textLength="131.3065" x="196.0657" y="571.3267">Start Live / Dry-Run</text></g><!--entity UC7--><g class="entity" data-qualified-name="AI-Adaptive Trading Bot.UC7" data-source-line="1649" id="ent0011"><ellipse cx="557.0534" cy="428.4319" fill="#FDEBD0" rx="65.9596" ry="22.5868" style="stroke:#2980B9;stroke-width:2.0833;"/><text fill="#111111" font-family="'Verdana'" font-size="11.4583" font-weight="700" lengthAdjust="spacing" textLength="89.9211" x="512.0929" y="425.1162">Adjust Margin</text><text fill="#111111" font-family="'Verdana'" font-size="11.4583" font-weight="700" lengthAdjust="spacing" textLength="85.5515" x="514.2777" y="439.0419">by Sentiment</text></g><!--entity UC8--><g class="entity" data-qualified-name="AI-Adaptive Trading Bot.UC8" data-source-line="1650" id="ent0012"><ellipse cx="557.0567" cy="590.9326" fill="#FADBD8" rx="60.2546" ry="22.7125" style="stroke:#2980B9;stroke-width:2.0833;"/><text fill="#111111" font-family="'Verdana'" font-size="11.4583" font-weight="700" lengthAdjust="spacing" textLength="81.2322" x="516.4406" y="587.4376">Manage Risk</text><text fill="#111111" font-family="'Verdana'" font-size="11.4583" font-weight="700" lengthAdjust="spacing" textLength="79.453" x="517.3302" y="601.3633">(kill-switch)</text></g><!--entity UC9--><g class="entity" data-qualified-name="AI-Adaptive Trading Bot.UC9" data-source-line="1651" id="ent0013"><ellipse cx="557.0562" cy="734.6751" fill="#D1F2EB" rx="69.2541" ry="16.3508" style="stroke:#2980B9;stroke-width:2.0833;"/><text fill="#111111" font-family="'Verdana'" font-size="11.4583" font-weight="700" lengthAdjust="spacing" textLength="112.4461" x="500.8331" y="737.9921">Monitor Positions</text></g><!--entity trader--><g class="entity" data-qualified-name="trader" data-source-line="1638" id="ent0001"><ellipse cx="63.0164" cy="307.6993" fill="#F9E79F" filter="url(#fi2ka5ybnmlnw)" rx="8.3333" ry="8.3333" style="stroke:#2FA4E7;stroke-width:1.0417;"/><path d="M63.0164,316.0326 L63.0164,344.1576 M49.4747,324.3659 L76.558,324.3659 M63.0164,344.1576 L49.4747,359.7826 M63.0164,344.1576 L76.558,359.7826" fill="none" filter="url(#fi2ka5ybnmlnw)" style="stroke:#2FA4E7;stroke-width:1.0417;"/><text fill="#111111" font-family="'Verdana'" font-size="13.5417" font-weight="700" lengthAdjust="spacing" textLength="50.1994" x="37.9167" y="378.6053">Trader</text></g><!--entity binance--><g class="entity" data-qualified-name="binance" data-source-line="1639" id="ent0002"><ellipse cx="63.0178" cy="668.1159" fill="#AED6F1" filter="url(#fi2ka5ybnmlnw)" rx="8.3333" ry="8.3333" style="stroke:#2FA4E7;stroke-width:1.0417;"/><path d="M63.0178,676.4493 L63.0178,704.5743 M49.4761,684.7826 L76.5594,684.7826 M63.0178,704.5743 L49.4761,720.1993 M63.0178,704.5743 L76.5594,720.1993" fill="none" filter="url(#fi2ka5ybnmlnw)" style="stroke:#2FA4E7;stroke-width:1.0417;"/><text fill="#111111" font-family="'Verdana'" font-size="13.5417" font-weight="700" lengthAdjust="spacing" textLength="92.7022" x="16.6667" y="739.022">Binance API</text></g><!--entity newsapi--><g class="entity" data-qualified-name="newsapi" data-source-line="1640" id="ent0003"><ellipse cx="261.7208" cy="210.8243" fill="#F5CBA7" filter="url(#fi2ka5ybnmlnw)" rx="8.3333" ry="8.3333" style="stroke:#2FA4E7;stroke-width:1.0417;"/><path d="M261.7208,219.1576 L261.7208,247.2826 M248.1791,227.4909 L275.2624,227.4909 M261.7208,247.2826 L248.1791,262.9076 M261.7208,247.2826 L275.2624,262.9076" fill="none" filter="url(#fi2ka5ybnmlnw)" style="stroke:#2FA4E7;stroke-width:1.0417;"/><text fill="#111111" font-family="'Verdana'" font-size="13.5417" font-weight="700" lengthAdjust="spacing" textLength="122.8999" x="200.2708" y="281.7303">News / LLM API</text></g><!--link UC1 to UC3--><g class="link" data-entity-1="ent0005" data-entity-2="ent0007" data-link-type="dependency" data-source-line="1653" id="lnk14"><path d="M614.875,357.2097 C656.9688,358.4701 710.3565,360.0647 760.9502,361.5751" fill="none" id="UC1-to-UC3" style="stroke:#7F8C8D;stroke-width:1.5625;stroke-dasharray:7.2917,7.2917;"/><polygon fill="#7F8C8D" points="766.1563,361.7305,756.9098,357.2859,760.9502,361.5751,756.6611,365.6156,766.1563,361.7305" style="stroke:#7F8C8D;stroke-width:1.5625;stroke-linejoin:miter;stroke-miterlimit:10;"/><text fill="#111111" font-family="'Verdana'" font-size="12.5" lengthAdjust="spacing" textLength="60.5408" x="672.9583" y="356.0268">&#171;include&#187;</text></g><!--link UC2 to UC1--><g class="link" data-entity-1="ent0006" data-entity-2="ent0005" data-link-type="dependency" data-source-line="1654" id="lnk15"><path d="M327.8438,401.7097 C383.6979,390.3972 457.5932,375.4412 506.4682,365.5453" fill="none" id="UC2-to-UC1" style="stroke:#7F8C8D;stroke-width:1.5625;stroke-dasharray:7.2917,7.2917;"/><polygon fill="#7F8C8D" points="511.5729,364.5118,501.5575,362.2884,506.4682,365.5453,503.2112,370.456,511.5729,364.5118" style="stroke:#7F8C8D;stroke-width:1.5625;stroke-linejoin:miter;stroke-miterlimit:10;"/><text fill="#111111" font-family="'Verdana'" font-size="12.5" lengthAdjust="spacing" textLength="60.5408" x="380.7292" y="376.8185">&#171;include&#187;</text></g><!--link UC6 to UC4--><g class="link" data-entity-1="ent0010" data-entity-2="ent0008" data-link-type="dependency" data-source-line="1655" id="lnk16"><path d="M321.75,556.2722 C370.1667,546.6472 433.621,534.0285 484.069,523.9869" fill="none" id="UC6-to-UC4" style="stroke:#7F8C8D;stroke-width:1.5625;stroke-dasharray:7.2917,7.2917;"/><polygon fill="#7F8C8D" points="489.1771,522.9701,479.169,520.7138,484.069,523.9869,480.7959,528.8868,489.1771,522.9701" style="stroke:#7F8C8D;stroke-width:1.5625;stroke-linejoin:miter;stroke-miterlimit:10;"/><text fill="#111111" font-family="'Verdana'" font-size="12.5" lengthAdjust="spacing" textLength="60.5408" x="380.7292" y="530.5581">&#171;include&#187;</text></g><!--link UC6 to UC5--><g class="link" data-entity-1="ent0010" data-entity-2="ent0009" data-link-type="dependency" data-source-line="1656" id="lnk17"><path d="M307.3021,582.8868 C364.8229,602.0847 459.0182,633.539 513.1328,651.6119" fill="none" id="UC6-to-UC5" style="stroke:#7F8C8D;stroke-width:1.5625;stroke-dasharray:7.2917,7.2917;"/><polygon fill="#7F8C8D" points="518.0729,653.2618,510.5006,646.3399,513.1328,651.6119,507.8608,654.2441,518.0729,653.2618" style="stroke:#7F8C8D;stroke-width:1.5625;stroke-linejoin:miter;stroke-miterlimit:10;"/><text fill="#111111" font-family="'Verdana'" font-size="12.5" lengthAdjust="spacing" textLength="60.5408" x="380.7292" y="605.1414">&#171;include&#187;</text></g><!--link UC6 to UC8--><g class="link" data-entity-1="ent0010" data-entity-2="ent0012" data-link-type="dependency" data-source-line="1657" id="lnk18"><path d="M335.625,573.7097 C385.6667,577.6159 446.0158,582.3355 492.5783,585.9709" fill="none" id="UC6-to-UC8" style="stroke:#7F8C8D;stroke-width:1.5625;stroke-dasharray:7.2917,7.2917;"/><polygon fill="#7F8C8D" points="497.7708,586.3763,488.7486,581.4926,492.5783,585.9709,488.0999,589.8006,497.7708,586.3763" style="stroke:#7F8C8D;stroke-width:1.5625;stroke-linejoin:miter;stroke-miterlimit:10;"/><text fill="#111111" font-family="'Verdana'" font-size="12.5" lengthAdjust="spacing" textLength="60.5408" x="380.7292" y="574.3601">&#171;include&#187;</text></g><!--link UC6 to UC9--><g class="link" data-entity-1="ent0010" data-entity-2="ent0013" data-link-type="dependency" data-source-line="1658" id="lnk19"><path d="M285.4479,585.3347 C308.5729,602.6576 345.7708,629.6368 379.6875,650.3034 C419.8333,674.7618 430.9792,679.1055 473.4375,699.2618 C488.8021,706.5534 501.2534,712.0288 515.993,718.2476" fill="none" id="UC6-to-UC9" style="stroke:#7F8C8D;stroke-width:1.5625;stroke-dasharray:7.2917,7.2917;"/><polygon fill="#7F8C8D" points="520.7917,720.2722,513.7737,712.7889,515.993,718.2476,510.5343,720.4668,520.7917,720.2722" style="stroke:#7F8C8D;stroke-width:1.5625;stroke-linejoin:miter;stroke-miterlimit:10;"/><text fill="#111111" font-family="'Verdana'" font-size="12.5" lengthAdjust="spacing" textLength="60.5408" x="380.7292" y="647.2456">&#171;include&#187;</text></g><!--link UC6 to UC7--><g class="link" data-entity-1="ent0010" data-entity-2="ent0011" data-link-type="dependency" data-source-line="1659" id="lnk20"><path d="M294.8333,551.2513 C318.2292,539.1472 350.7604,522.5534 379.6875,508.6368 C425.9063,486.4076 474.8754,464.3133 510.7608,448.3758" fill="none" id="UC6-to-UC7" style="stroke:#E67E22;stroke-width:1.5625;stroke-dasharray:7.2917,7.2917;"/><polygon fill="#E67E22" points="515.5208,446.2618,505.2616,446.259,510.7608,448.3758,508.644,453.875,515.5208,446.2618" style="stroke:#E67E22;stroke-width:1.5625;stroke-linejoin:miter;stroke-miterlimit:10;"/><text fill="#111111" font-family="'Verdana'" font-size="12.5" lengthAdjust="spacing" textLength="59.0271" x="381.7708" y="478.4122">&#171;extend&#187;</text></g><!--link trader to UC1--><g class="link" data-entity-1="ent0001" data-entity-2="ent0005" data-link-type="dependency" data-source-line="1662" id="lnk21"><path d="M74.2292,297.8763 C85.75,260.5222 108.5521,208.1368 149.9896,183.6368 C225.9167,138.7513 265.4583,153.7409 348.4375,183.6368 C438.6771,216.1472 514.2495,302.7339 542.0724,337.5672" fill="none" id="trader-to-UC1" style="stroke:#E74C3C;stroke-width:1.5625;"/><polygon fill="#E74C3C" points="545.3229,341.6368,542.7276,331.7112,542.0724,337.5672,536.2164,336.912,545.3229,341.6368" style="stroke:#E74C3C;stroke-width:1.5625;stroke-linejoin:miter;stroke-miterlimit:10;"/></g><!--link trader to UC2--><g class="link" data-entity-1="ent0001" data-entity-2="ent0006" data-link-type="dependency" data-source-line="1663" id="lnk22"><path d="M88.5625,349.2305 C120.2708,361.3243 171.2486,380.7693 210.7173,395.8318" fill="none" id="trader-to-UC2" style="stroke:#C0392B;stroke-width:1.5625;"/><polygon fill="#C0392B" points="215.5833,397.6888,208.3101,390.4534,210.7173,395.8318,205.3389,398.239,215.5833,397.6888" style="stroke:#C0392B;stroke-width:1.5625;stroke-linejoin:miter;stroke-miterlimit:10;"/></g><!--link trader to UC3--><g class="link" data-entity-1="ent0001" data-entity-2="ent0007" data-link-type="dependency" data-source-line="1664" id="lnk23"><path d="M68.8125,297.918 C76.6563,250.6993 97.1458,176.1368 149.9896,141.9701 C224.0625,94.0847 262.0208,124.3243 348.4375,141.9701 C540.7083,181.2201 745.2913,291.283 829.1871,339.7101" fill="none" id="trader-to-UC3" style="stroke:#8E44AD;stroke-width:1.5625;"/><polygon fill="#8E44AD" points="833.6979,342.3138,827.6615,334.0185,829.1871,339.7101,823.4955,341.2357,833.6979,342.3138" style="stroke:#8E44AD;stroke-width:1.5625;stroke-linejoin:miter;stroke-miterlimit:10;"/></g><!--link trader to UC4--><g class="link" data-entity-1="ent0001" data-entity-2="ent0008" data-link-type="dependency" data-source-line="1665" id="lnk24"><path d="M88.6146,332.7618 C154.1979,315.3451 335.7083,277.9805 442.1875,362.8034 C480.6875,393.4701 441.7396,431.3972 473.4375,469.0534 C481.6771,478.8347 488.19,484.0799 499.6275,489.9549" fill="none" id="trader-to-UC4" style="stroke:#D4AC0D;stroke-width:1.5625;"/><polygon fill="#D4AC0D" points="504.2604,492.3347,497.825,484.3449,499.6275,489.9549,494.0174,491.7575,504.2604,492.3347" style="stroke:#D4AC0D;stroke-width:1.5625;stroke-linejoin:miter;stroke-miterlimit:10;"/></g><!--link trader to UC6--><g class="link" data-entity-1="ent0001" data-entity-2="ent0010" data-link-type="dependency" data-source-line="1666" id="lnk25"><path d="M88.5938,374.5013 C105.2396,397.4388 128.125,427.8868 149.9896,453.4284 C180.75,489.3555 216.073,524.7716 238.6147,546.7507" fill="none" id="trader-to-UC6" style="stroke:#1ABC9C;stroke-width:1.5625;"/><polygon fill="#1ABC9C" points="242.3438,550.3868,238.5402,540.8586,238.6147,546.7507,232.7226,546.8252,242.3438,550.3868" style="stroke:#1ABC9C;stroke-width:1.5625;stroke-linejoin:miter;stroke-miterlimit:10;"/></g><!--link binance to UC6--><g class="link" data-entity-1="ent0002" data-entity-2="ent0010" data-link-type="dependency" data-source-line="1667" id="lnk26"><path d="M109.6563,669.6159 C148.5729,643.4388 198.8036,609.6379 230.5745,588.2629" fill="none" id="binance-to-UC6" style="stroke:#2980B9;stroke-width:1.5625;"/><polygon fill="#2980B9" points="234.8958,585.3555,224.7915,587.1317,230.5745,588.2629,229.4433,594.0458,234.8958,585.3555" style="stroke:#2980B9;stroke-width:1.5625;stroke-linejoin:miter;stroke-miterlimit:10;"/></g><!--link binance to UC9--><g class="link" data-entity-1="ent0002" data-entity-2="ent0013" data-link-type="dependency" data-source-line="1668" id="lnk27"><path d="M109.4583,703.4805 C196.875,709.5847 383.6689,722.6384 485.0752,729.7218" fill="none" id="binance-to-UC9" style="stroke:#2980B9;stroke-width:1.5625;"/><polygon fill="#2980B9" points="490.2708,730.0847,481.209,725.2749,485.0752,729.7218,480.6283,733.588,490.2708,730.0847" style="stroke:#2980B9;stroke-width:1.5625;stroke-linejoin:miter;stroke-miterlimit:10;"/></g><!--link newsapi to UC7--><g class="link" data-entity-1="ent0003" data-entity-2="ent0011" data-link-type="dependency" data-source-line="1669" id="lnk28"><path d="M323.4792,253.918 C361.7708,263.5951 409.9063,281.2826 442.1875,312.8034 C468.0313,338.0326 448.7188,361.4805 473.4375,387.8034 C483.2813,398.2826 491.7142,404.1789 504.5996,410.3143" fill="none" id="newsapi-to-UC7" style="stroke:#E67E22;stroke-width:1.5625;"/><polygon fill="#E67E22" points="509.3021,412.5534,502.6289,404.7611,504.5996,410.3143,499.0464,412.285,509.3021,412.5534" style="stroke:#E67E22;stroke-width:1.5625;stroke-linejoin:miter;stroke-miterlimit:10;"/></g><?plantuml-src ZPHTRzCm58RlyojCUmCJ6KsQjWcgAkLJ86reei0Duy9BpbBJrAviXr8c_ZidYGCfwc2vY9JNptk-REUPti0EI0wohe1oMzIwOXoifTB72bOM8L88JSppG3B1TImg8SdOQH_o4ndDT0N_OKefwlqRe0N8HnbrOBkASdWyplALAQnBkLJi1xns9wkBYuyAI4pnbJ1QIhgxk40MLrUtlACSRnM-jSE2xZNx1kI3f0NZ9Oc4Dg1bgItZUufcyj1Kiw65E3ICbZMWKC0zhIlTrBL60t5S54CfnS6KEVMyO9RsueSDoxSSb2BEvSpwEOXUAyYRKfii4SstpMnuOO8aypJC_6P5I1oMKTt0dqG1gd-oE_rNCn5o9whY90dDDHeVJYpJVriav9hoiZALdUIFf-biSgxUBCdIB3r9Cp-NnghWNXCjY6JbHfE2DTcOu9RLLJfgTWJaY5250s_FoJWBqaMGzK34EEKvaF3cRKlTcUznc2RppEcnTt1Gv1Mvkhh-JNAKw9vXm5aSXGlB-jFfw953CMfdqE_Kw7tDszOrADs6_1Wx62vCeiGVSki3m1wpnr8ePN-Y5Ike1kDmppbYmUzPMKjeN6At5oYkSG0QogFnJSauzPCmpOQ-FZRf0jpovn9ePUy4XoCfSU65SNkODSwcyOdxHegTG3FknnLsRj3PENIjgTGjXHKcycZZB0m_n-FgP6uQ3Vcm-5ehJQwfB1c_vNT7iWQksGvVnhPeJaqQ9PEXxPfoMW9vpzGMUzcoghBnVw3pJT-7VsvwruApPjTlX6BDQL863dvNXdIpLvUVnulCZ_tao-Mg7UbhibmodbTr0QjL2xb_GyuPQFutv3q5cZq5yfy21Oz1wNoHkkxBWgeD51sxQ5duhe4NYE8TD1VBHdpXnTFuYztsET3ZoJHmeqvt1xgVUbwOTFfqe2TU64-CxWrq9upYmCIVM_rLnONkJ_QVXS3ghwpTTzOjBAnV?></g></svg>